%TF.GenerationSoftware,KiCad,Pcbnew,9.0.4*%
%TF.CreationDate,2026-02-15T13:42:43+01:00*%
%TF.ProjectId,board-game-timer_hardware,626f6172-642d-4676-916d-652d74696d65,rev?*%
%TF.SameCoordinates,Original*%
%TF.FileFunction,Copper,L1,Top*%
%TF.FilePolarity,Positive*%
%FSLAX46Y46*%
G04 Gerber Fmt 4.6, Leading zero omitted, Abs format (unit mm)*
G04 Created by KiCad (PCBNEW 9.0.4) date 2026-02-15 13:42:43*
%MOMM*%
%LPD*%
G01*
G04 APERTURE LIST*
%TA.AperFunction,ComponentPad*%
%ADD10R,1.700000X1.700000*%
%TD*%
%TA.AperFunction,ComponentPad*%
%ADD11C,1.700000*%
%TD*%
%TA.AperFunction,ComponentPad*%
%ADD12C,1.600000*%
%TD*%
%TA.AperFunction,ViaPad*%
%ADD13C,0.600000*%
%TD*%
%TA.AperFunction,Conductor*%
%ADD14C,0.200000*%
%TD*%
%TA.AperFunction,Conductor*%
%ADD15C,0.400000*%
%TD*%
G04 APERTURE END LIST*
D10*
%TO.P,BT1,1,+*%
%TO.N,Net-(BT1-+)*%
X107700000Y-32300000D03*
D11*
%TO.P,BT1,2,-*%
%TO.N,GND*%
X107700000Y-34840000D03*
%TD*%
D12*
%TO.P,U1,1,D1/TX/PA_9*%
%TO.N,unconnected-(U1-D1{slash}TX{slash}PA_9-Pad1)*%
X82500000Y-34000000D03*
%TO.P,U1,2,D0/RX/PA_10*%
%TO.N,unconnected-(U1-D0{slash}RX{slash}PA_10-Pad2)*%
X82500000Y-36540000D03*
%TO.P,U1,3,RST*%
%TO.N,unconnected-(U1-RST-Pad3)*%
X82500000Y-39080000D03*
%TO.P,U1,4,GND*%
%TO.N,GND*%
X82500000Y-41620000D03*
%TO.P,U1,5,D2/PA_12*%
%TO.N,unconnected-(U1-D2{slash}PA_12-Pad5)*%
X82500000Y-44160000D03*
%TO.P,U1,6,D3/PB_0*%
%TO.N,/encoder_A*%
X82500000Y-46700000D03*
%TO.P,U1,7,D4/PB_7*%
%TO.N,unconnected-(U1-D4{slash}PB_7-Pad7)*%
X82500000Y-49240000D03*
%TO.P,U1,8,D5/PB_6*%
%TO.N,unconnected-(U1-D5{slash}PB_6-Pad8)*%
X82500000Y-51780000D03*
%TO.P,U1,9,D6/PB_1*%
%TO.N,/encoder_B*%
X82500000Y-54320000D03*
%TO.P,U1,10,D7/NC*%
%TO.N,unconnected-(U1-D7{slash}NC-Pad10)*%
X82500000Y-56860000D03*
%TO.P,U1,11,D8/NC*%
%TO.N,unconnected-(U1-D8{slash}NC-Pad11)*%
X82500000Y-59400000D03*
%TO.P,U1,12,D9/PA_8*%
%TO.N,unconnected-(U1-D9{slash}PA_8-Pad12)*%
X82500000Y-61940000D03*
%TO.P,U1,13,D10/PA_11*%
%TO.N,unconnected-(U1-D10{slash}PA_11-Pad13)*%
X82500000Y-64480000D03*
%TO.P,U1,14,D11/PB_5*%
%TO.N,unconnected-(U1-D11{slash}PB_5-Pad14)*%
X82500000Y-67020000D03*
%TO.P,U1,15,D12/PB_4*%
%TO.N,unconnected-(U1-D12{slash}PB_4-Pad15)*%
X82500000Y-69560000D03*
%TO.P,U1,16,VIN*%
%TO.N,Net-(BT1-+)*%
X97740000Y-34000000D03*
%TO.P,U1,17,GND*%
%TO.N,GND*%
X97740000Y-36540000D03*
%TO.P,U1,18,RST*%
%TO.N,unconnected-(U1-RST-Pad18)*%
X97740000Y-39080000D03*
%TO.P,U1,19,5V*%
%TO.N,+5V*%
X97740000Y-41620000D03*
%TO.P,U1,20,A7/PA_2*%
%TO.N,unconnected-(U1-A7{slash}PA_2-Pad20)*%
X97740000Y-44160000D03*
%TO.P,U1,21,A6/PA_7*%
%TO.N,/CLK*%
X97740000Y-46700000D03*
%TO.P,U1,22,A5/PA_6*%
%TO.N,/DIO*%
X97740000Y-49240000D03*
%TO.P,U1,23,A4/PA_5*%
%TO.N,unconnected-(U1-A4{slash}PA_5-Pad23)*%
X97740000Y-51780000D03*
%TO.P,U1,24,A3/PA_4*%
%TO.N,encoder_switch*%
X97740000Y-54320000D03*
%TO.P,U1,25,A2/PA_3*%
%TO.N,Net-(U1-A2{slash}PA_3)*%
X97740000Y-56860000D03*
%TO.P,U1,26,A1/PA_1*%
%TO.N,unconnected-(U1-A1{slash}PA_1-Pad26)*%
X97740000Y-59400000D03*
%TO.P,U1,27,A0/PA_0*%
%TO.N,unconnected-(U1-A0{slash}PA_0-Pad27)*%
X97740000Y-61940000D03*
%TO.P,U1,28,REF*%
%TO.N,unconnected-(U1-REF-Pad28)*%
X97740000Y-64480000D03*
%TO.P,U1,29,3V3*%
%TO.N,unconnected-(U1-3V3-Pad29)*%
X97740000Y-67020000D03*
%TO.P,U1,30,D13/PB_3*%
%TO.N,unconnected-(U1-D13{slash}PB_3-Pad30)*%
X97740000Y-69560000D03*
%TD*%
D10*
%TO.P,J1,1,Pin_1*%
%TO.N,GND*%
X67800000Y-45660000D03*
D11*
%TO.P,J1,2,Pin_2*%
%TO.N,+5V*%
X67800000Y-48200000D03*
%TO.P,J1,3,Pin_3*%
%TO.N,encoder_switch*%
X67800000Y-50740000D03*
%TO.P,J1,4,Pin_4*%
%TO.N,/encoder_B*%
X67800000Y-53280000D03*
%TO.P,J1,5,Pin_5*%
%TO.N,/encoder_A*%
X67800000Y-55820000D03*
%TD*%
D10*
%TO.P,SW1,1,1*%
%TO.N,Net-(U1-A2{slash}PA_3)*%
X107700000Y-60500000D03*
D11*
%TO.P,SW1,2,2*%
%TO.N,GND*%
X107700000Y-63040000D03*
%TD*%
D10*
%TO.P,J2,1,Pin_1*%
%TO.N,/CLK*%
X107700000Y-43200000D03*
D11*
%TO.P,J2,2,Pin_2*%
%TO.N,/DIO*%
X107700000Y-45740000D03*
%TO.P,J2,3,Pin_3*%
%TO.N,+5V*%
X107700000Y-48280000D03*
%TO.P,J2,4,Pin_4*%
%TO.N,GND*%
X107700000Y-50820000D03*
%TD*%
D13*
%TO.N,/encoder_A*%
X76000000Y-48500000D03*
X73500000Y-57000000D03*
%TD*%
D14*
%TO.N,/DIO*%
X101260000Y-49240000D02*
X104770000Y-45730000D01*
X104770000Y-45730000D02*
X104780000Y-45740000D01*
X97740000Y-49240000D02*
X101260000Y-49240000D01*
X104780000Y-45740000D02*
X107700000Y-45740000D01*
%TO.N,/CLK*%
X103400000Y-43200000D02*
X107700000Y-43200000D01*
X99900000Y-46700000D02*
X103400000Y-43200000D01*
X97740000Y-46700000D02*
X99900000Y-46700000D01*
D15*
%TO.N,+5V*%
X109120000Y-48280000D02*
X107700000Y-48280000D01*
X92600000Y-33100000D02*
X92600000Y-40800000D01*
X93420000Y-41620000D02*
X92600000Y-40800000D01*
X102700000Y-39600000D02*
X100680000Y-41620000D01*
X73700000Y-35100000D02*
X77800000Y-31000000D01*
X102700000Y-39600000D02*
X111100000Y-39600000D01*
X111700000Y-40200000D02*
X111700000Y-45700000D01*
X67800000Y-48200000D02*
X71200000Y-48200000D01*
X73700000Y-45700000D02*
X73700000Y-35100000D01*
X111700000Y-45700000D02*
X109120000Y-48280000D01*
X90500000Y-31000000D02*
X92600000Y-33100000D01*
X111100000Y-39600000D02*
X111700000Y-40200000D01*
X100680000Y-41620000D02*
X97740000Y-41620000D01*
X97740000Y-41620000D02*
X93420000Y-41620000D01*
X71200000Y-48200000D02*
X73700000Y-45700000D01*
X77800000Y-31000000D02*
X90500000Y-31000000D01*
D14*
%TO.N,Net-(U1-A2{slash}PA_3)*%
X104060000Y-56860000D02*
X107700000Y-60500000D01*
X97740000Y-56860000D02*
X104060000Y-56860000D01*
%TO.N,encoder_switch*%
X68040000Y-50500000D02*
X93920000Y-50500000D01*
X68260000Y-50740000D02*
X68500000Y-50500000D01*
X93920000Y-50500000D02*
X97740000Y-54320000D01*
X67800000Y-50740000D02*
X68260000Y-50740000D01*
X67800000Y-50740000D02*
X68040000Y-50500000D01*
%TO.N,/encoder_B*%
X67800000Y-53280000D02*
X68840000Y-54320000D01*
X68840000Y-54320000D02*
X82500000Y-54320000D01*
%TO.N,/encoder_A*%
X76000000Y-48500000D02*
X77800000Y-46700000D01*
X77800000Y-46700000D02*
X82500000Y-46700000D01*
X67800000Y-55820000D02*
X68980000Y-57000000D01*
X68980000Y-57000000D02*
X73500000Y-57000000D01*
D15*
%TO.N,Net-(BT1-+)*%
X97740000Y-34000000D02*
X99440000Y-32300000D01*
X99440000Y-32300000D02*
X107700000Y-32300000D01*
%TD*%
M02*
