%TF.GenerationSoftware,KiCad,Pcbnew,9.0.4*%
%TF.CreationDate,2026-03-18T12:24:47+01:00*%
%TF.ProjectId,board-game-timer_hardware_v2,626f6172-642d-4676-916d-652d74696d65,rev?*%
%TF.SameCoordinates,Original*%
%TF.FileFunction,Soldermask,Top*%
%TF.FilePolarity,Negative*%
%FSLAX46Y46*%
G04 Gerber Fmt 4.6, Leading zero omitted, Abs format (unit mm)*
G04 Created by KiCad (PCBNEW 9.0.4) date 2026-03-18 12:24:47*
%MOMM*%
%LPD*%
G01*
G04 APERTURE LIST*
G04 Aperture macros list*
%AMRoundRect*
0 Rectangle with rounded corners*
0 $1 Rounding radius*
0 $2 $3 $4 $5 $6 $7 $8 $9 X,Y pos of 4 corners*
0 Add a 4 corners polygon primitive as box body*
4,1,4,$2,$3,$4,$5,$6,$7,$8,$9,$2,$3,0*
0 Add four circle primitives for the rounded corners*
1,1,$1+$1,$2,$3*
1,1,$1+$1,$4,$5*
1,1,$1+$1,$6,$7*
1,1,$1+$1,$8,$9*
0 Add four rect primitives between the rounded corners*
20,1,$1+$1,$2,$3,$4,$5,0*
20,1,$1+$1,$4,$5,$6,$7,0*
20,1,$1+$1,$6,$7,$8,$9,0*
20,1,$1+$1,$8,$9,$2,$3,0*%
G04 Aperture macros list end*
%ADD10RoundRect,0.250000X-0.350000X0.450000X-0.350000X-0.450000X0.350000X-0.450000X0.350000X0.450000X0*%
%ADD11RoundRect,0.140000X0.170000X-0.140000X0.170000X0.140000X-0.170000X0.140000X-0.170000X-0.140000X0*%
%ADD12RoundRect,0.218750X-0.256250X0.218750X-0.256250X-0.218750X0.256250X-0.218750X0.256250X0.218750X0*%
%ADD13R,1.700000X1.700000*%
%ADD14C,1.700000*%
%ADD15RoundRect,0.100000X0.637500X0.100000X-0.637500X0.100000X-0.637500X-0.100000X0.637500X-0.100000X0*%
%ADD16RoundRect,0.140000X0.140000X0.170000X-0.140000X0.170000X-0.140000X-0.170000X0.140000X-0.170000X0*%
%ADD17C,3.200000*%
%ADD18RoundRect,0.140000X-0.140000X-0.170000X0.140000X-0.170000X0.140000X0.170000X-0.140000X0.170000X0*%
%ADD19RoundRect,0.250000X0.475000X-0.250000X0.475000X0.250000X-0.475000X0.250000X-0.475000X-0.250000X0*%
%ADD20RoundRect,0.218750X0.218750X0.256250X-0.218750X0.256250X-0.218750X-0.256250X0.218750X-0.256250X0*%
%ADD21C,2.000000*%
%ADD22RoundRect,0.250000X0.250000X0.475000X-0.250000X0.475000X-0.250000X-0.475000X0.250000X-0.475000X0*%
%ADD23RoundRect,0.100000X-0.100000X-0.575000X0.100000X-0.575000X0.100000X0.575000X-0.100000X0.575000X0*%
%ADD24O,0.900000X1.600000*%
%ADD25RoundRect,0.250000X-0.550000X-0.450000X0.550000X-0.450000X0.550000X0.450000X-0.550000X0.450000X0*%
%ADD26RoundRect,0.250000X-0.700000X-0.700000X0.700000X-0.700000X0.700000X0.700000X-0.700000X0.700000X0*%
%ADD27RoundRect,0.375000X0.375000X-0.625000X0.375000X0.625000X-0.375000X0.625000X-0.375000X-0.625000X0*%
%ADD28RoundRect,0.500000X1.400000X-0.500000X1.400000X0.500000X-1.400000X0.500000X-1.400000X-0.500000X0*%
%ADD29RoundRect,0.250000X-0.475000X0.250000X-0.475000X-0.250000X0.475000X-0.250000X0.475000X0.250000X0*%
%ADD30RoundRect,0.135000X-0.185000X0.135000X-0.185000X-0.135000X0.185000X-0.135000X0.185000X0.135000X0*%
%ADD31RoundRect,0.135000X0.185000X-0.135000X0.185000X0.135000X-0.185000X0.135000X-0.185000X-0.135000X0*%
G04 APERTURE END LIST*
D10*
%TO.C,Y1*%
X100620000Y-78490000D03*
X100620000Y-80690000D03*
X98920000Y-80690000D03*
X98920000Y-78490000D03*
%TD*%
D11*
%TO.C,C6*%
X120010000Y-75380000D03*
X120010000Y-74420000D03*
%TD*%
D12*
%TO.C,D1*%
X83350000Y-95437500D03*
X83350000Y-97012500D03*
%TD*%
D13*
%TO.C,J3*%
X113000000Y-65000000D03*
D14*
X110460000Y-65000000D03*
X107920000Y-65000000D03*
X105380000Y-65000000D03*
%TD*%
D11*
%TO.C,C5*%
X107370000Y-88800000D03*
X107370000Y-87840000D03*
%TD*%
D15*
%TO.C,U2*%
X102902500Y-92055000D03*
X102902500Y-91405000D03*
X102902500Y-90755000D03*
X102902500Y-90105000D03*
X102902500Y-89455000D03*
X102902500Y-88805000D03*
X102902500Y-88155000D03*
X102902500Y-87505000D03*
X102902500Y-86855000D03*
X102902500Y-86205000D03*
X97177500Y-86205000D03*
X97177500Y-86855000D03*
X97177500Y-87505000D03*
X97177500Y-88155000D03*
X97177500Y-88805000D03*
X97177500Y-89455000D03*
X97177500Y-90105000D03*
X97177500Y-90755000D03*
X97177500Y-91405000D03*
X97177500Y-92055000D03*
%TD*%
D13*
%TO.C,J1*%
X89460000Y-73000000D03*
D14*
X92000000Y-73000000D03*
X94540000Y-73000000D03*
X97080000Y-73000000D03*
X99620000Y-73000000D03*
%TD*%
D16*
%TO.C,C3*%
X99480000Y-83830000D03*
X98520000Y-83830000D03*
%TD*%
D17*
%TO.C,H3*%
X85000000Y-105000000D03*
%TD*%
D18*
%TO.C,C4*%
X100620000Y-83830000D03*
X101580000Y-83830000D03*
%TD*%
D11*
%TO.C,C2*%
X94950000Y-89600000D03*
X94950000Y-88640000D03*
%TD*%
D19*
%TO.C,C8*%
X87900000Y-97012500D03*
X87900000Y-95112500D03*
%TD*%
%TO.C,C1*%
X92075000Y-90075000D03*
X92075000Y-88175000D03*
%TD*%
D20*
%TO.C,FB1*%
X106975000Y-95030000D03*
X105400000Y-95030000D03*
%TD*%
D21*
%TO.C,SW2*%
X120540000Y-84160000D03*
X114040000Y-84160000D03*
X120540000Y-79660000D03*
X114040000Y-79660000D03*
%TD*%
D17*
%TO.C,H1*%
X85000000Y-65000000D03*
%TD*%
D13*
%TO.C,J4*%
X107760000Y-73000000D03*
D14*
X105220000Y-73000000D03*
%TD*%
D19*
%TO.C,C9*%
X110300000Y-89060000D03*
X110300000Y-87160000D03*
%TD*%
D22*
%TO.C,C7*%
X95480000Y-107590000D03*
X93580000Y-107590000D03*
%TD*%
D23*
%TO.C,J5*%
X101200000Y-105185000D03*
X101850000Y-105185000D03*
X102500000Y-105185000D03*
X103150000Y-105185000D03*
X103800000Y-105185000D03*
D24*
X99200000Y-107860000D03*
D25*
X99300000Y-105410000D03*
D26*
X101300000Y-107860000D03*
X103700000Y-107860000D03*
D25*
X105700000Y-105410000D03*
D24*
X105800000Y-107860000D03*
%TD*%
D13*
%TO.C,J2*%
X92000000Y-65000000D03*
D14*
X94540000Y-65000000D03*
X97080000Y-65000000D03*
X99620000Y-65000000D03*
%TD*%
D17*
%TO.C,H2*%
X120000000Y-65000000D03*
%TD*%
D21*
%TO.C,SW1*%
X113950000Y-94457500D03*
X120450000Y-94457500D03*
X113950000Y-98957500D03*
X120450000Y-98957500D03*
%TD*%
D27*
%TO.C,U1*%
X91280000Y-104020000D03*
X93580000Y-104020000D03*
D28*
X93580000Y-97720000D03*
D27*
X95880000Y-104020000D03*
%TD*%
D29*
%TO.C,C10*%
X100520000Y-95622500D03*
X100520000Y-97522500D03*
%TD*%
D17*
%TO.C,H4*%
X120000000Y-105000000D03*
%TD*%
D30*
%TO.C,R2*%
X115000000Y-74340000D03*
X115000000Y-75360000D03*
%TD*%
%TO.C,R1*%
X119930000Y-89750000D03*
X119930000Y-90770000D03*
%TD*%
D31*
%TO.C,R3*%
X83350000Y-93625000D03*
X83350000Y-92605000D03*
%TD*%
M02*
