M48
; DRILL file {KiCad 9.0.4} date 2026-02-15T13:42:55+0100
; FORMAT={-:-/ absolute / metric / decimal}
; #@! TF.CreationDate,2026-02-15T13:42:55+01:00
; #@! TF.GenerationSoftware,Kicad,Pcbnew,9.0.4
; #@! TF.FileFunction,Plated,1,2,PTH
FMAT,2
METRIC
; #@! TA.AperFunction,Plated,PTH,ViaDrill
T1C0.300
; #@! TA.AperFunction,Plated,PTH,ComponentDrill
T2C1.000
%
G90
G05
T1
X73.5Y-57.0
X76.0Y-48.5
T2
X67.8Y-45.66
X67.8Y-48.2
X67.8Y-50.74
X67.8Y-53.28
X67.8Y-55.82
X82.5Y-34.0
X82.5Y-36.54
X82.5Y-39.08
X82.5Y-41.62
X82.5Y-44.16
X82.5Y-46.7
X82.5Y-49.24
X82.5Y-51.78
X82.5Y-54.32
X82.5Y-56.86
X82.5Y-59.4
X82.5Y-61.94
X82.5Y-64.48
X82.5Y-67.02
X82.5Y-69.56
X97.74Y-34.0
X97.74Y-36.54
X97.74Y-39.08
X97.74Y-41.62
X97.74Y-44.16
X97.74Y-46.7
X97.74Y-49.24
X97.74Y-51.78
X97.74Y-54.32
X97.74Y-56.86
X97.74Y-59.4
X97.74Y-61.94
X97.74Y-64.48
X97.74Y-67.02
X97.74Y-69.56
X107.7Y-32.3
X107.7Y-34.84
X107.7Y-43.2
X107.7Y-45.74
X107.7Y-48.28
X107.7Y-50.82
X107.7Y-60.5
X107.7Y-63.04
M30
