%TF.GenerationSoftware,KiCad,Pcbnew,9.0.4*%
%TF.CreationDate,2026-02-15T13:42:43+01:00*%
%TF.ProjectId,board-game-timer_hardware,626f6172-642d-4676-916d-652d74696d65,rev?*%
%TF.SameCoordinates,Original*%
%TF.FileFunction,Copper,L2,Bot*%
%TF.FilePolarity,Positive*%
%FSLAX46Y46*%
G04 Gerber Fmt 4.6, Leading zero omitted, Abs format (unit mm)*
G04 Created by KiCad (PCBNEW 9.0.4) date 2026-02-15 13:42:43*
%MOMM*%
%LPD*%
G01*
G04 APERTURE LIST*
%TA.AperFunction,ComponentPad*%
%ADD10R,1.700000X1.700000*%
%TD*%
%TA.AperFunction,ComponentPad*%
%ADD11C,1.700000*%
%TD*%
%TA.AperFunction,ComponentPad*%
%ADD12C,1.600000*%
%TD*%
%TA.AperFunction,ViaPad*%
%ADD13C,0.600000*%
%TD*%
%TA.AperFunction,Conductor*%
%ADD14C,0.200000*%
%TD*%
G04 APERTURE END LIST*
D10*
%TO.P,BT1,1,+*%
%TO.N,Net-(BT1-+)*%
X107700000Y-32300000D03*
D11*
%TO.P,BT1,2,-*%
%TO.N,GND*%
X107700000Y-34840000D03*
%TD*%
D12*
%TO.P,U1,1,D1/TX/PA_9*%
%TO.N,unconnected-(U1-D1{slash}TX{slash}PA_9-Pad1)*%
X82500000Y-34000000D03*
%TO.P,U1,2,D0/RX/PA_10*%
%TO.N,unconnected-(U1-D0{slash}RX{slash}PA_10-Pad2)*%
X82500000Y-36540000D03*
%TO.P,U1,3,RST*%
%TO.N,unconnected-(U1-RST-Pad3)*%
X82500000Y-39080000D03*
%TO.P,U1,4,GND*%
%TO.N,GND*%
X82500000Y-41620000D03*
%TO.P,U1,5,D2/PA_12*%
%TO.N,unconnected-(U1-D2{slash}PA_12-Pad5)*%
X82500000Y-44160000D03*
%TO.P,U1,6,D3/PB_0*%
%TO.N,/encoder_A*%
X82500000Y-46700000D03*
%TO.P,U1,7,D4/PB_7*%
%TO.N,unconnected-(U1-D4{slash}PB_7-Pad7)*%
X82500000Y-49240000D03*
%TO.P,U1,8,D5/PB_6*%
%TO.N,unconnected-(U1-D5{slash}PB_6-Pad8)*%
X82500000Y-51780000D03*
%TO.P,U1,9,D6/PB_1*%
%TO.N,/encoder_B*%
X82500000Y-54320000D03*
%TO.P,U1,10,D7/NC*%
%TO.N,unconnected-(U1-D7{slash}NC-Pad10)*%
X82500000Y-56860000D03*
%TO.P,U1,11,D8/NC*%
%TO.N,unconnected-(U1-D8{slash}NC-Pad11)*%
X82500000Y-59400000D03*
%TO.P,U1,12,D9/PA_8*%
%TO.N,unconnected-(U1-D9{slash}PA_8-Pad12)*%
X82500000Y-61940000D03*
%TO.P,U1,13,D10/PA_11*%
%TO.N,unconnected-(U1-D10{slash}PA_11-Pad13)*%
X82500000Y-64480000D03*
%TO.P,U1,14,D11/PB_5*%
%TO.N,unconnected-(U1-D11{slash}PB_5-Pad14)*%
X82500000Y-67020000D03*
%TO.P,U1,15,D12/PB_4*%
%TO.N,unconnected-(U1-D12{slash}PB_4-Pad15)*%
X82500000Y-69560000D03*
%TO.P,U1,16,VIN*%
%TO.N,Net-(BT1-+)*%
X97740000Y-34000000D03*
%TO.P,U1,17,GND*%
%TO.N,GND*%
X97740000Y-36540000D03*
%TO.P,U1,18,RST*%
%TO.N,unconnected-(U1-RST-Pad18)*%
X97740000Y-39080000D03*
%TO.P,U1,19,5V*%
%TO.N,+5V*%
X97740000Y-41620000D03*
%TO.P,U1,20,A7/PA_2*%
%TO.N,unconnected-(U1-A7{slash}PA_2-Pad20)*%
X97740000Y-44160000D03*
%TO.P,U1,21,A6/PA_7*%
%TO.N,/CLK*%
X97740000Y-46700000D03*
%TO.P,U1,22,A5/PA_6*%
%TO.N,/DIO*%
X97740000Y-49240000D03*
%TO.P,U1,23,A4/PA_5*%
%TO.N,unconnected-(U1-A4{slash}PA_5-Pad23)*%
X97740000Y-51780000D03*
%TO.P,U1,24,A3/PA_4*%
%TO.N,encoder_switch*%
X97740000Y-54320000D03*
%TO.P,U1,25,A2/PA_3*%
%TO.N,Net-(U1-A2{slash}PA_3)*%
X97740000Y-56860000D03*
%TO.P,U1,26,A1/PA_1*%
%TO.N,unconnected-(U1-A1{slash}PA_1-Pad26)*%
X97740000Y-59400000D03*
%TO.P,U1,27,A0/PA_0*%
%TO.N,unconnected-(U1-A0{slash}PA_0-Pad27)*%
X97740000Y-61940000D03*
%TO.P,U1,28,REF*%
%TO.N,unconnected-(U1-REF-Pad28)*%
X97740000Y-64480000D03*
%TO.P,U1,29,3V3*%
%TO.N,unconnected-(U1-3V3-Pad29)*%
X97740000Y-67020000D03*
%TO.P,U1,30,D13/PB_3*%
%TO.N,unconnected-(U1-D13{slash}PB_3-Pad30)*%
X97740000Y-69560000D03*
%TD*%
D10*
%TO.P,J1,1,Pin_1*%
%TO.N,GND*%
X67800000Y-45660000D03*
D11*
%TO.P,J1,2,Pin_2*%
%TO.N,+5V*%
X67800000Y-48200000D03*
%TO.P,J1,3,Pin_3*%
%TO.N,encoder_switch*%
X67800000Y-50740000D03*
%TO.P,J1,4,Pin_4*%
%TO.N,/encoder_B*%
X67800000Y-53280000D03*
%TO.P,J1,5,Pin_5*%
%TO.N,/encoder_A*%
X67800000Y-55820000D03*
%TD*%
D10*
%TO.P,SW1,1,1*%
%TO.N,Net-(U1-A2{slash}PA_3)*%
X107700000Y-60500000D03*
D11*
%TO.P,SW1,2,2*%
%TO.N,GND*%
X107700000Y-63040000D03*
%TD*%
D10*
%TO.P,J2,1,Pin_1*%
%TO.N,/CLK*%
X107700000Y-43200000D03*
D11*
%TO.P,J2,2,Pin_2*%
%TO.N,/DIO*%
X107700000Y-45740000D03*
%TO.P,J2,3,Pin_3*%
%TO.N,+5V*%
X107700000Y-48280000D03*
%TO.P,J2,4,Pin_4*%
%TO.N,GND*%
X107700000Y-50820000D03*
%TD*%
D13*
%TO.N,/encoder_A*%
X76000000Y-48500000D03*
X73500000Y-57000000D03*
%TD*%
D14*
%TO.N,/encoder_A*%
X73500000Y-57000000D02*
X76000000Y-54500000D01*
X76000000Y-54500000D02*
X76000000Y-48500000D01*
%TD*%
%TA.AperFunction,Conductor*%
%TO.N,GND*%
G36*
X117504043Y-20500765D02*
G01*
X117752895Y-20517075D01*
X117768953Y-20519190D01*
X117976105Y-20560395D01*
X118009535Y-20567045D01*
X118025202Y-20571243D01*
X118194947Y-20628863D01*
X118257481Y-20650091D01*
X118272458Y-20656294D01*
X118481799Y-20759529D01*
X118492460Y-20764787D01*
X118506508Y-20772897D01*
X118710464Y-20909177D01*
X118723328Y-20919048D01*
X118907749Y-21080781D01*
X118919218Y-21092250D01*
X119080951Y-21276671D01*
X119090825Y-21289539D01*
X119227102Y-21493492D01*
X119235212Y-21507539D01*
X119343702Y-21727534D01*
X119349909Y-21742520D01*
X119428756Y-21974797D01*
X119432954Y-21990464D01*
X119480807Y-22231035D01*
X119482925Y-22247116D01*
X119499235Y-22495956D01*
X119499500Y-22504066D01*
X119499500Y-77495933D01*
X119499235Y-77504043D01*
X119482925Y-77752883D01*
X119480807Y-77768964D01*
X119432954Y-78009535D01*
X119428756Y-78025202D01*
X119349909Y-78257479D01*
X119343702Y-78272465D01*
X119235212Y-78492460D01*
X119227102Y-78506507D01*
X119090825Y-78710460D01*
X119080951Y-78723328D01*
X118919218Y-78907749D01*
X118907749Y-78919218D01*
X118723328Y-79080951D01*
X118710460Y-79090825D01*
X118506507Y-79227102D01*
X118492460Y-79235212D01*
X118272465Y-79343702D01*
X118257479Y-79349909D01*
X118025202Y-79428756D01*
X118009535Y-79432954D01*
X117768964Y-79480807D01*
X117752883Y-79482925D01*
X117504043Y-79499235D01*
X117495933Y-79499500D01*
X62504067Y-79499500D01*
X62495957Y-79499235D01*
X62247116Y-79482925D01*
X62231035Y-79480807D01*
X61990464Y-79432954D01*
X61974797Y-79428756D01*
X61742520Y-79349909D01*
X61727534Y-79343702D01*
X61507539Y-79235212D01*
X61493492Y-79227102D01*
X61289539Y-79090825D01*
X61276671Y-79080951D01*
X61092250Y-78919218D01*
X61080781Y-78907749D01*
X60919048Y-78723328D01*
X60909174Y-78710460D01*
X60772897Y-78506507D01*
X60764787Y-78492460D01*
X60658855Y-78277652D01*
X60656294Y-78272458D01*
X60650090Y-78257479D01*
X60571243Y-78025202D01*
X60567045Y-78009535D01*
X60559186Y-77970026D01*
X60519190Y-77768953D01*
X60517075Y-77752895D01*
X60500765Y-77504043D01*
X60500500Y-77495933D01*
X60500500Y-74878711D01*
X63149500Y-74878711D01*
X63149500Y-75121288D01*
X63181161Y-75361785D01*
X63243947Y-75596104D01*
X63336773Y-75820205D01*
X63336776Y-75820212D01*
X63458064Y-76030289D01*
X63458066Y-76030292D01*
X63458067Y-76030293D01*
X63605733Y-76222736D01*
X63605739Y-76222743D01*
X63777256Y-76394260D01*
X63777262Y-76394265D01*
X63969711Y-76541936D01*
X64179788Y-76663224D01*
X64403900Y-76756054D01*
X64638211Y-76818838D01*
X64818586Y-76842584D01*
X64878711Y-76850500D01*
X64878712Y-76850500D01*
X65121289Y-76850500D01*
X65169388Y-76844167D01*
X65361789Y-76818838D01*
X65596100Y-76756054D01*
X65820212Y-76663224D01*
X66030289Y-76541936D01*
X66222738Y-76394265D01*
X66394265Y-76222738D01*
X66541936Y-76030289D01*
X66663224Y-75820212D01*
X66756054Y-75596100D01*
X66818838Y-75361789D01*
X66850500Y-75121288D01*
X66850500Y-74878712D01*
X66850500Y-74878711D01*
X113149500Y-74878711D01*
X113149500Y-75121288D01*
X113181161Y-75361785D01*
X113243947Y-75596104D01*
X113336773Y-75820205D01*
X113336776Y-75820212D01*
X113458064Y-76030289D01*
X113458066Y-76030292D01*
X113458067Y-76030293D01*
X113605733Y-76222736D01*
X113605739Y-76222743D01*
X113777256Y-76394260D01*
X113777262Y-76394265D01*
X113969711Y-76541936D01*
X114179788Y-76663224D01*
X114403900Y-76756054D01*
X114638211Y-76818838D01*
X114818586Y-76842584D01*
X114878711Y-76850500D01*
X114878712Y-76850500D01*
X115121289Y-76850500D01*
X115169388Y-76844167D01*
X115361789Y-76818838D01*
X115596100Y-76756054D01*
X115820212Y-76663224D01*
X116030289Y-76541936D01*
X116222738Y-76394265D01*
X116394265Y-76222738D01*
X116541936Y-76030289D01*
X116663224Y-75820212D01*
X116756054Y-75596100D01*
X116818838Y-75361789D01*
X116850500Y-75121288D01*
X116850500Y-74878712D01*
X116818838Y-74638211D01*
X116756054Y-74403900D01*
X116663224Y-74179788D01*
X116541936Y-73969711D01*
X116394265Y-73777262D01*
X116394260Y-73777256D01*
X116222743Y-73605739D01*
X116222736Y-73605733D01*
X116030293Y-73458067D01*
X116030292Y-73458066D01*
X116030289Y-73458064D01*
X115820212Y-73336776D01*
X115820205Y-73336773D01*
X115596104Y-73243947D01*
X115361785Y-73181161D01*
X115121289Y-73149500D01*
X115121288Y-73149500D01*
X114878712Y-73149500D01*
X114878711Y-73149500D01*
X114638214Y-73181161D01*
X114403895Y-73243947D01*
X114179794Y-73336773D01*
X114179785Y-73336777D01*
X113969706Y-73458067D01*
X113777263Y-73605733D01*
X113777256Y-73605739D01*
X113605739Y-73777256D01*
X113605733Y-73777263D01*
X113458067Y-73969706D01*
X113336777Y-74179785D01*
X113336773Y-74179794D01*
X113243947Y-74403895D01*
X113181161Y-74638214D01*
X113149500Y-74878711D01*
X66850500Y-74878711D01*
X66818838Y-74638211D01*
X66756054Y-74403900D01*
X66663224Y-74179788D01*
X66541936Y-73969711D01*
X66394265Y-73777262D01*
X66394260Y-73777256D01*
X66222743Y-73605739D01*
X66222736Y-73605733D01*
X66030293Y-73458067D01*
X66030292Y-73458066D01*
X66030289Y-73458064D01*
X65820212Y-73336776D01*
X65820205Y-73336773D01*
X65596104Y-73243947D01*
X65361785Y-73181161D01*
X65121289Y-73149500D01*
X65121288Y-73149500D01*
X64878712Y-73149500D01*
X64878711Y-73149500D01*
X64638214Y-73181161D01*
X64403895Y-73243947D01*
X64179794Y-73336773D01*
X64179785Y-73336777D01*
X63969706Y-73458067D01*
X63777263Y-73605733D01*
X63777256Y-73605739D01*
X63605739Y-73777256D01*
X63605733Y-73777263D01*
X63458067Y-73969706D01*
X63336777Y-74179785D01*
X63336773Y-74179794D01*
X63243947Y-74403895D01*
X63181161Y-74638214D01*
X63149500Y-74878711D01*
X60500500Y-74878711D01*
X60500500Y-48093713D01*
X66449500Y-48093713D01*
X66449500Y-48306287D01*
X66482754Y-48516243D01*
X66508746Y-48596239D01*
X66548444Y-48718414D01*
X66644951Y-48907820D01*
X66769890Y-49079786D01*
X66920213Y-49230109D01*
X67092182Y-49355050D01*
X67100946Y-49359516D01*
X67151742Y-49407491D01*
X67168536Y-49475312D01*
X67145998Y-49541447D01*
X67100946Y-49580484D01*
X67092182Y-49584949D01*
X66920213Y-49709890D01*
X66769890Y-49860213D01*
X66644951Y-50032179D01*
X66548444Y-50221585D01*
X66482753Y-50423760D01*
X66458834Y-50574780D01*
X66449500Y-50633713D01*
X66449500Y-50846287D01*
X66482754Y-51056243D01*
X66535994Y-51220099D01*
X66548444Y-51258414D01*
X66644951Y-51447820D01*
X66769890Y-51619786D01*
X66920213Y-51770109D01*
X67092182Y-51895050D01*
X67100946Y-51899516D01*
X67151742Y-51947491D01*
X67168536Y-52015312D01*
X67145998Y-52081447D01*
X67100946Y-52120484D01*
X67092182Y-52124949D01*
X66920213Y-52249890D01*
X66769890Y-52400213D01*
X66644951Y-52572179D01*
X66548444Y-52761585D01*
X66482753Y-52963760D01*
X66458834Y-53114780D01*
X66449500Y-53173713D01*
X66449500Y-53386287D01*
X66482754Y-53596243D01*
X66496448Y-53638390D01*
X66548444Y-53798414D01*
X66644951Y-53987820D01*
X66769890Y-54159786D01*
X66920213Y-54310109D01*
X67092182Y-54435050D01*
X67100946Y-54439516D01*
X67151742Y-54487491D01*
X67168536Y-54555312D01*
X67145998Y-54621447D01*
X67100946Y-54660484D01*
X67092182Y-54664949D01*
X66920213Y-54789890D01*
X66769890Y-54940213D01*
X66644951Y-55112179D01*
X66548444Y-55301585D01*
X66482753Y-55503760D01*
X66458834Y-55654780D01*
X66449500Y-55713713D01*
X66449500Y-55926287D01*
X66482754Y-56136243D01*
X66513303Y-56230264D01*
X66548444Y-56338414D01*
X66644951Y-56527820D01*
X66769890Y-56699786D01*
X66920213Y-56850109D01*
X67092179Y-56975048D01*
X67092181Y-56975049D01*
X67092184Y-56975051D01*
X67281588Y-57071557D01*
X67483757Y-57137246D01*
X67693713Y-57170500D01*
X67693714Y-57170500D01*
X67906286Y-57170500D01*
X67906287Y-57170500D01*
X68116243Y-57137246D01*
X68318412Y-57071557D01*
X68507816Y-56975051D01*
X68582001Y-56921153D01*
X72699500Y-56921153D01*
X72699500Y-57078846D01*
X72730261Y-57233489D01*
X72730264Y-57233501D01*
X72790602Y-57379172D01*
X72790609Y-57379185D01*
X72878210Y-57510288D01*
X72878213Y-57510292D01*
X72989707Y-57621786D01*
X72989711Y-57621789D01*
X73120814Y-57709390D01*
X73120827Y-57709397D01*
X73266498Y-57769735D01*
X73266503Y-57769737D01*
X73421153Y-57800499D01*
X73421156Y-57800500D01*
X73421158Y-57800500D01*
X73578844Y-57800500D01*
X73578845Y-57800499D01*
X73733497Y-57769737D01*
X73879179Y-57709394D01*
X74010289Y-57621789D01*
X74121789Y-57510289D01*
X74209394Y-57379179D01*
X74269737Y-57233497D01*
X74289113Y-57136085D01*
X74300638Y-57078150D01*
X74333023Y-57016239D01*
X74334519Y-57014715D01*
X76368713Y-54980521D01*
X76368716Y-54980520D01*
X76480520Y-54868716D01*
X76530639Y-54781904D01*
X76559577Y-54731785D01*
X76600501Y-54579057D01*
X76600501Y-54420943D01*
X76600501Y-54413348D01*
X76600500Y-54413330D01*
X76600500Y-49079765D01*
X76620185Y-49012726D01*
X76621398Y-49010874D01*
X76709390Y-48879185D01*
X76709390Y-48879184D01*
X76709394Y-48879179D01*
X76769737Y-48733497D01*
X76800500Y-48578842D01*
X76800500Y-48421158D01*
X76800500Y-48421155D01*
X76800499Y-48421153D01*
X76793563Y-48386286D01*
X76769737Y-48266503D01*
X76762087Y-48248034D01*
X76709397Y-48120827D01*
X76709390Y-48120814D01*
X76621789Y-47989711D01*
X76621786Y-47989707D01*
X76510292Y-47878213D01*
X76510288Y-47878210D01*
X76379185Y-47790609D01*
X76379172Y-47790602D01*
X76233501Y-47730264D01*
X76233489Y-47730261D01*
X76078845Y-47699500D01*
X76078842Y-47699500D01*
X75921158Y-47699500D01*
X75921155Y-47699500D01*
X75766510Y-47730261D01*
X75766498Y-47730264D01*
X75620827Y-47790602D01*
X75620814Y-47790609D01*
X75489711Y-47878210D01*
X75489707Y-47878213D01*
X75378213Y-47989707D01*
X75378210Y-47989711D01*
X75290609Y-48120814D01*
X75290602Y-48120827D01*
X75230264Y-48266498D01*
X75230261Y-48266510D01*
X75199500Y-48421153D01*
X75199500Y-48578846D01*
X75230261Y-48733489D01*
X75230264Y-48733501D01*
X75290602Y-48879172D01*
X75290609Y-48879185D01*
X75378602Y-49010874D01*
X75399480Y-49077551D01*
X75399500Y-49079765D01*
X75399500Y-54199903D01*
X75379815Y-54266942D01*
X75363181Y-54287584D01*
X73485339Y-56165425D01*
X73424016Y-56198910D01*
X73421850Y-56199361D01*
X73266508Y-56230261D01*
X73266498Y-56230264D01*
X73120827Y-56290602D01*
X73120814Y-56290609D01*
X72989711Y-56378210D01*
X72989707Y-56378213D01*
X72878213Y-56489707D01*
X72878210Y-56489711D01*
X72790609Y-56620814D01*
X72790602Y-56620827D01*
X72730264Y-56766498D01*
X72730261Y-56766510D01*
X72699500Y-56921153D01*
X68582001Y-56921153D01*
X68679786Y-56850109D01*
X68679788Y-56850106D01*
X68679792Y-56850104D01*
X68830104Y-56699792D01*
X68830106Y-56699788D01*
X68830109Y-56699786D01*
X68955048Y-56527820D01*
X68955047Y-56527820D01*
X68955051Y-56527816D01*
X69051557Y-56338412D01*
X69117246Y-56136243D01*
X69150500Y-55926287D01*
X69150500Y-55713713D01*
X69117246Y-55503757D01*
X69051557Y-55301588D01*
X68955051Y-55112184D01*
X68955049Y-55112181D01*
X68955048Y-55112179D01*
X68830109Y-54940213D01*
X68679786Y-54789890D01*
X68507820Y-54664951D01*
X68507115Y-54664591D01*
X68499054Y-54660485D01*
X68448259Y-54612512D01*
X68431463Y-54544692D01*
X68453999Y-54478556D01*
X68499054Y-54439515D01*
X68507816Y-54435051D01*
X68537713Y-54413330D01*
X68679786Y-54310109D01*
X68679788Y-54310106D01*
X68679792Y-54310104D01*
X68830104Y-54159792D01*
X68830106Y-54159788D01*
X68830109Y-54159786D01*
X68955048Y-53987820D01*
X68955047Y-53987820D01*
X68955051Y-53987816D01*
X69051557Y-53798412D01*
X69117246Y-53596243D01*
X69150500Y-53386287D01*
X69150500Y-53173713D01*
X69117246Y-52963757D01*
X69051557Y-52761588D01*
X68955051Y-52572184D01*
X68955049Y-52572181D01*
X68955048Y-52572179D01*
X68830109Y-52400213D01*
X68679786Y-52249890D01*
X68507820Y-52124951D01*
X68507115Y-52124591D01*
X68499054Y-52120485D01*
X68448259Y-52072512D01*
X68431463Y-52004692D01*
X68453999Y-51938556D01*
X68499054Y-51899515D01*
X68507816Y-51895051D01*
X68529789Y-51879086D01*
X68679786Y-51770109D01*
X68679788Y-51770106D01*
X68679792Y-51770104D01*
X68830104Y-51619792D01*
X68830106Y-51619788D01*
X68830109Y-51619786D01*
X68955048Y-51447820D01*
X68955047Y-51447820D01*
X68955051Y-51447816D01*
X69051557Y-51258412D01*
X69117246Y-51056243D01*
X69150500Y-50846287D01*
X69150500Y-50633713D01*
X69117246Y-50423757D01*
X69051557Y-50221588D01*
X68955051Y-50032184D01*
X68955049Y-50032181D01*
X68955048Y-50032179D01*
X68830109Y-49860213D01*
X68679786Y-49709890D01*
X68507820Y-49584951D01*
X68507115Y-49584591D01*
X68499054Y-49580485D01*
X68448259Y-49532512D01*
X68431463Y-49464692D01*
X68453999Y-49398556D01*
X68499054Y-49359515D01*
X68507816Y-49355051D01*
X68569681Y-49310104D01*
X68679786Y-49230109D01*
X68679788Y-49230106D01*
X68679792Y-49230104D01*
X68830104Y-49079792D01*
X68830106Y-49079788D01*
X68830109Y-49079786D01*
X68955048Y-48907820D01*
X68955047Y-48907820D01*
X68955051Y-48907816D01*
X69051557Y-48718412D01*
X69117246Y-48516243D01*
X69150500Y-48306287D01*
X69150500Y-48093713D01*
X69117246Y-47883757D01*
X69051557Y-47681588D01*
X68955051Y-47492184D01*
X68955049Y-47492181D01*
X68955048Y-47492179D01*
X68830109Y-47320213D01*
X68716181Y-47206285D01*
X68682696Y-47144962D01*
X68687680Y-47075270D01*
X68729552Y-47019337D01*
X68760529Y-47002422D01*
X68892086Y-46953354D01*
X68892093Y-46953350D01*
X69007187Y-46867190D01*
X69007190Y-46867187D01*
X69093350Y-46752093D01*
X69093354Y-46752086D01*
X69143596Y-46617379D01*
X69143598Y-46617372D01*
X69149999Y-46557844D01*
X69150000Y-46557827D01*
X69150000Y-45910000D01*
X68233012Y-45910000D01*
X68265925Y-45852993D01*
X68300000Y-45725826D01*
X68300000Y-45594174D01*
X68265925Y-45467007D01*
X68233012Y-45410000D01*
X69150000Y-45410000D01*
X69150000Y-44762172D01*
X69149999Y-44762155D01*
X69143598Y-44702627D01*
X69143596Y-44702620D01*
X69093354Y-44567913D01*
X69093350Y-44567906D01*
X69007190Y-44452812D01*
X69007187Y-44452809D01*
X68892093Y-44366649D01*
X68892086Y-44366645D01*
X68757379Y-44316403D01*
X68757372Y-44316401D01*
X68697844Y-44310000D01*
X68050000Y-44310000D01*
X68050000Y-45226988D01*
X67992993Y-45194075D01*
X67865826Y-45160000D01*
X67734174Y-45160000D01*
X67607007Y-45194075D01*
X67550000Y-45226988D01*
X67550000Y-44310000D01*
X66902155Y-44310000D01*
X66842627Y-44316401D01*
X66842620Y-44316403D01*
X66707913Y-44366645D01*
X66707906Y-44366649D01*
X66592812Y-44452809D01*
X66592809Y-44452812D01*
X66506649Y-44567906D01*
X66506645Y-44567913D01*
X66456403Y-44702620D01*
X66456401Y-44702627D01*
X66450000Y-44762155D01*
X66450000Y-45410000D01*
X67366988Y-45410000D01*
X67334075Y-45467007D01*
X67300000Y-45594174D01*
X67300000Y-45725826D01*
X67334075Y-45852993D01*
X67366988Y-45910000D01*
X66450000Y-45910000D01*
X66450000Y-46557844D01*
X66456401Y-46617372D01*
X66456403Y-46617379D01*
X66506645Y-46752086D01*
X66506649Y-46752093D01*
X66592809Y-46867187D01*
X66592812Y-46867190D01*
X66707906Y-46953350D01*
X66707913Y-46953354D01*
X66839470Y-47002422D01*
X66895404Y-47044293D01*
X66919821Y-47109758D01*
X66904969Y-47178031D01*
X66883819Y-47206285D01*
X66769889Y-47320215D01*
X66644951Y-47492179D01*
X66548444Y-47681585D01*
X66482753Y-47883760D01*
X66458834Y-48034780D01*
X66449500Y-48093713D01*
X60500500Y-48093713D01*
X60500500Y-33897648D01*
X81199500Y-33897648D01*
X81199500Y-34102351D01*
X81231522Y-34304534D01*
X81294781Y-34499223D01*
X81387715Y-34681613D01*
X81508028Y-34847213D01*
X81652786Y-34991971D01*
X81807749Y-35104556D01*
X81818390Y-35112287D01*
X81886532Y-35147007D01*
X81911080Y-35159515D01*
X81961876Y-35207490D01*
X81978671Y-35275311D01*
X81956134Y-35341446D01*
X81911080Y-35380485D01*
X81818386Y-35427715D01*
X81652786Y-35548028D01*
X81508028Y-35692786D01*
X81387715Y-35858386D01*
X81294781Y-36040776D01*
X81231522Y-36235465D01*
X81199500Y-36437648D01*
X81199500Y-36642351D01*
X81231522Y-36844534D01*
X81294781Y-37039223D01*
X81358691Y-37164653D01*
X81387585Y-37221359D01*
X81387715Y-37221613D01*
X81508028Y-37387213D01*
X81652786Y-37531971D01*
X81773226Y-37619474D01*
X81818390Y-37652287D01*
X81909840Y-37698883D01*
X81911080Y-37699515D01*
X81961876Y-37747490D01*
X81978671Y-37815311D01*
X81956134Y-37881446D01*
X81911080Y-37920485D01*
X81818386Y-37967715D01*
X81652786Y-38088028D01*
X81508028Y-38232786D01*
X81387715Y-38398386D01*
X81294781Y-38580776D01*
X81231522Y-38775465D01*
X81199500Y-38977648D01*
X81199500Y-39182351D01*
X81231522Y-39384534D01*
X81294781Y-39579223D01*
X81387715Y-39761613D01*
X81508028Y-39927213D01*
X81652786Y-40071971D01*
X81818385Y-40192284D01*
X81818387Y-40192285D01*
X81818390Y-40192287D01*
X81911080Y-40239515D01*
X81911630Y-40239795D01*
X81962426Y-40287770D01*
X81979221Y-40355591D01*
X81956684Y-40421725D01*
X81911630Y-40460765D01*
X81818644Y-40508143D01*
X81774077Y-40540523D01*
X81774077Y-40540524D01*
X82370591Y-41137037D01*
X82307007Y-41154075D01*
X82192993Y-41219901D01*
X82099901Y-41312993D01*
X82034075Y-41427007D01*
X82017037Y-41490590D01*
X81420524Y-40894077D01*
X81420523Y-40894077D01*
X81388143Y-40938644D01*
X81295244Y-41120968D01*
X81232009Y-41315582D01*
X81200000Y-41517682D01*
X81200000Y-41722317D01*
X81232009Y-41924417D01*
X81295244Y-42119031D01*
X81388141Y-42301350D01*
X81388147Y-42301359D01*
X81420523Y-42345921D01*
X81420524Y-42345922D01*
X82017037Y-41749408D01*
X82034075Y-41812993D01*
X82099901Y-41927007D01*
X82192993Y-42020099D01*
X82307007Y-42085925D01*
X82370590Y-42102962D01*
X81774076Y-42699474D01*
X81818652Y-42731861D01*
X81911628Y-42779234D01*
X81962425Y-42827208D01*
X81979220Y-42895029D01*
X81956683Y-42961164D01*
X81911630Y-43000203D01*
X81818388Y-43047713D01*
X81652786Y-43168028D01*
X81508028Y-43312786D01*
X81387715Y-43478386D01*
X81294781Y-43660776D01*
X81231522Y-43855465D01*
X81199500Y-44057648D01*
X81199500Y-44262351D01*
X81231522Y-44464534D01*
X81294781Y-44659223D01*
X81387715Y-44841613D01*
X81508028Y-45007213D01*
X81652786Y-45151971D01*
X81748608Y-45221588D01*
X81818390Y-45272287D01*
X81909840Y-45318883D01*
X81911080Y-45319515D01*
X81961876Y-45367490D01*
X81978671Y-45435311D01*
X81956134Y-45501446D01*
X81911080Y-45540485D01*
X81818386Y-45587715D01*
X81652786Y-45708028D01*
X81508028Y-45852786D01*
X81387715Y-46018386D01*
X81294781Y-46200776D01*
X81231522Y-46395465D01*
X81199500Y-46597648D01*
X81199500Y-46802351D01*
X81231522Y-47004534D01*
X81294781Y-47199223D01*
X81387715Y-47381613D01*
X81508028Y-47547213D01*
X81652786Y-47691971D01*
X81807749Y-47804556D01*
X81818390Y-47812287D01*
X81909840Y-47858883D01*
X81911080Y-47859515D01*
X81961876Y-47907490D01*
X81978671Y-47975311D01*
X81956134Y-48041446D01*
X81911080Y-48080485D01*
X81818386Y-48127715D01*
X81652786Y-48248028D01*
X81508028Y-48392786D01*
X81387715Y-48558386D01*
X81294781Y-48740776D01*
X81231522Y-48935465D01*
X81199500Y-49137648D01*
X81199500Y-49342351D01*
X81231522Y-49544534D01*
X81294781Y-49739223D01*
X81387715Y-49921613D01*
X81508028Y-50087213D01*
X81652786Y-50231971D01*
X81748875Y-50301782D01*
X81818390Y-50352287D01*
X81909840Y-50398883D01*
X81911080Y-50399515D01*
X81961876Y-50447490D01*
X81978671Y-50515311D01*
X81956134Y-50581446D01*
X81911080Y-50620485D01*
X81818386Y-50667715D01*
X81652786Y-50788028D01*
X81508028Y-50932786D01*
X81387715Y-51098386D01*
X81294781Y-51280776D01*
X81231522Y-51475465D01*
X81199500Y-51677648D01*
X81199500Y-51882351D01*
X81231522Y-52084534D01*
X81294781Y-52279223D01*
X81387715Y-52461613D01*
X81508028Y-52627213D01*
X81652786Y-52771971D01*
X81807749Y-52884556D01*
X81818390Y-52892287D01*
X81909840Y-52938883D01*
X81911080Y-52939515D01*
X81961876Y-52987490D01*
X81978671Y-53055311D01*
X81956134Y-53121446D01*
X81911080Y-53160485D01*
X81818386Y-53207715D01*
X81652786Y-53328028D01*
X81508028Y-53472786D01*
X81387715Y-53638386D01*
X81294781Y-53820776D01*
X81231522Y-54015465D01*
X81199500Y-54217648D01*
X81199500Y-54422351D01*
X81231522Y-54624534D01*
X81294781Y-54819223D01*
X81356427Y-54940208D01*
X81382170Y-54990732D01*
X81387715Y-55001613D01*
X81508028Y-55167213D01*
X81652786Y-55311971D01*
X81807749Y-55424556D01*
X81818390Y-55432287D01*
X81909840Y-55478883D01*
X81911080Y-55479515D01*
X81961876Y-55527490D01*
X81978671Y-55595311D01*
X81956134Y-55661446D01*
X81911080Y-55700485D01*
X81818386Y-55747715D01*
X81652786Y-55868028D01*
X81508028Y-56012786D01*
X81387715Y-56178386D01*
X81294781Y-56360776D01*
X81231522Y-56555465D01*
X81199500Y-56757648D01*
X81199500Y-56962351D01*
X81231522Y-57164534D01*
X81294781Y-57359223D01*
X81387715Y-57541613D01*
X81508028Y-57707213D01*
X81652786Y-57851971D01*
X81807749Y-57964556D01*
X81818390Y-57972287D01*
X81909840Y-58018883D01*
X81911080Y-58019515D01*
X81961876Y-58067490D01*
X81978671Y-58135311D01*
X81956134Y-58201446D01*
X81911080Y-58240485D01*
X81818386Y-58287715D01*
X81652786Y-58408028D01*
X81508028Y-58552786D01*
X81387715Y-58718386D01*
X81294781Y-58900776D01*
X81231522Y-59095465D01*
X81199500Y-59297648D01*
X81199500Y-59502351D01*
X81231522Y-59704534D01*
X81294781Y-59899223D01*
X81387715Y-60081613D01*
X81508028Y-60247213D01*
X81652786Y-60391971D01*
X81807749Y-60504556D01*
X81818390Y-60512287D01*
X81909840Y-60558883D01*
X81911080Y-60559515D01*
X81961876Y-60607490D01*
X81978671Y-60675311D01*
X81956134Y-60741446D01*
X81911080Y-60780485D01*
X81818386Y-60827715D01*
X81652786Y-60948028D01*
X81508028Y-61092786D01*
X81387715Y-61258386D01*
X81294781Y-61440776D01*
X81231522Y-61635465D01*
X81199500Y-61837648D01*
X81199500Y-62042351D01*
X81231522Y-62244534D01*
X81294781Y-62439223D01*
X81387715Y-62621613D01*
X81508028Y-62787213D01*
X81652786Y-62931971D01*
X81801477Y-63039999D01*
X81818390Y-63052287D01*
X81909840Y-63098883D01*
X81911080Y-63099515D01*
X81961876Y-63147490D01*
X81978671Y-63215311D01*
X81956134Y-63281446D01*
X81911080Y-63320485D01*
X81818386Y-63367715D01*
X81652786Y-63488028D01*
X81508028Y-63632786D01*
X81387715Y-63798386D01*
X81294781Y-63980776D01*
X81231522Y-64175465D01*
X81199500Y-64377648D01*
X81199500Y-64582351D01*
X81231522Y-64784534D01*
X81294781Y-64979223D01*
X81387715Y-65161613D01*
X81508028Y-65327213D01*
X81652786Y-65471971D01*
X81807749Y-65584556D01*
X81818390Y-65592287D01*
X81909840Y-65638883D01*
X81911080Y-65639515D01*
X81961876Y-65687490D01*
X81978671Y-65755311D01*
X81956134Y-65821446D01*
X81911080Y-65860485D01*
X81818386Y-65907715D01*
X81652786Y-66028028D01*
X81508028Y-66172786D01*
X81387715Y-66338386D01*
X81294781Y-66520776D01*
X81231522Y-66715465D01*
X81199500Y-66917648D01*
X81199500Y-67122351D01*
X81231522Y-67324534D01*
X81294781Y-67519223D01*
X81387715Y-67701613D01*
X81508028Y-67867213D01*
X81652786Y-68011971D01*
X81807749Y-68124556D01*
X81818390Y-68132287D01*
X81909840Y-68178883D01*
X81911080Y-68179515D01*
X81961876Y-68227490D01*
X81978671Y-68295311D01*
X81956134Y-68361446D01*
X81911080Y-68400485D01*
X81818386Y-68447715D01*
X81652786Y-68568028D01*
X81508028Y-68712786D01*
X81387715Y-68878386D01*
X81294781Y-69060776D01*
X81231522Y-69255465D01*
X81199500Y-69457648D01*
X81199500Y-69662351D01*
X81231522Y-69864534D01*
X81294781Y-70059223D01*
X81387715Y-70241613D01*
X81508028Y-70407213D01*
X81652786Y-70551971D01*
X81807749Y-70664556D01*
X81818390Y-70672287D01*
X81934607Y-70731503D01*
X82000776Y-70765218D01*
X82000778Y-70765218D01*
X82000781Y-70765220D01*
X82105137Y-70799127D01*
X82195465Y-70828477D01*
X82296557Y-70844488D01*
X82397648Y-70860500D01*
X82397649Y-70860500D01*
X82602351Y-70860500D01*
X82602352Y-70860500D01*
X82804534Y-70828477D01*
X82999219Y-70765220D01*
X83181610Y-70672287D01*
X83274590Y-70604732D01*
X83347213Y-70551971D01*
X83347215Y-70551968D01*
X83347219Y-70551966D01*
X83491966Y-70407219D01*
X83491968Y-70407215D01*
X83491971Y-70407213D01*
X83544732Y-70334590D01*
X83612287Y-70241610D01*
X83705220Y-70059219D01*
X83768477Y-69864534D01*
X83800500Y-69662352D01*
X83800500Y-69457648D01*
X83768477Y-69255466D01*
X83705220Y-69060781D01*
X83705218Y-69060778D01*
X83705218Y-69060776D01*
X83671503Y-68994607D01*
X83612287Y-68878390D01*
X83604556Y-68867749D01*
X83491971Y-68712786D01*
X83347213Y-68568028D01*
X83181614Y-68447715D01*
X83175006Y-68444348D01*
X83088917Y-68400483D01*
X83038123Y-68352511D01*
X83021328Y-68284690D01*
X83043865Y-68218555D01*
X83088917Y-68179516D01*
X83181610Y-68132287D01*
X83202770Y-68116913D01*
X83347213Y-68011971D01*
X83347215Y-68011968D01*
X83347219Y-68011966D01*
X83491966Y-67867219D01*
X83491968Y-67867215D01*
X83491971Y-67867213D01*
X83544732Y-67794590D01*
X83612287Y-67701610D01*
X83705220Y-67519219D01*
X83768477Y-67324534D01*
X83800500Y-67122352D01*
X83800500Y-66917648D01*
X83768477Y-66715466D01*
X83705220Y-66520781D01*
X83705218Y-66520778D01*
X83705218Y-66520776D01*
X83671503Y-66454607D01*
X83612287Y-66338390D01*
X83604556Y-66327749D01*
X83491971Y-66172786D01*
X83347213Y-66028028D01*
X83181614Y-65907715D01*
X83175006Y-65904348D01*
X83088917Y-65860483D01*
X83038123Y-65812511D01*
X83021328Y-65744690D01*
X83043865Y-65678555D01*
X83088917Y-65639516D01*
X83181610Y-65592287D01*
X83202770Y-65576913D01*
X83347213Y-65471971D01*
X83347215Y-65471968D01*
X83347219Y-65471966D01*
X83491966Y-65327219D01*
X83491968Y-65327215D01*
X83491971Y-65327213D01*
X83544732Y-65254590D01*
X83612287Y-65161610D01*
X83705220Y-64979219D01*
X83768477Y-64784534D01*
X83800500Y-64582352D01*
X83800500Y-64377648D01*
X83786791Y-64291095D01*
X83768477Y-64175465D01*
X83705218Y-63980776D01*
X83671503Y-63914607D01*
X83612287Y-63798390D01*
X83575350Y-63747550D01*
X83491971Y-63632786D01*
X83347213Y-63488028D01*
X83181614Y-63367715D01*
X83140972Y-63347007D01*
X83088917Y-63320483D01*
X83038123Y-63272511D01*
X83021328Y-63204690D01*
X83043865Y-63138555D01*
X83088917Y-63099516D01*
X83181610Y-63052287D01*
X83202770Y-63036913D01*
X83347213Y-62931971D01*
X83347215Y-62931968D01*
X83347219Y-62931966D01*
X83491966Y-62787219D01*
X83491968Y-62787215D01*
X83491971Y-62787213D01*
X83565181Y-62686446D01*
X83612287Y-62621610D01*
X83705220Y-62439219D01*
X83768477Y-62244534D01*
X83800500Y-62042352D01*
X83800500Y-61837648D01*
X83768477Y-61635466D01*
X83705220Y-61440781D01*
X83705218Y-61440778D01*
X83705218Y-61440776D01*
X83671503Y-61374607D01*
X83612287Y-61258390D01*
X83604556Y-61247749D01*
X83491971Y-61092786D01*
X83347213Y-60948028D01*
X83181614Y-60827715D01*
X83175006Y-60824348D01*
X83088917Y-60780483D01*
X83038123Y-60732511D01*
X83021328Y-60664690D01*
X83043865Y-60598555D01*
X83088917Y-60559516D01*
X83181610Y-60512287D01*
X83202770Y-60496913D01*
X83347213Y-60391971D01*
X83347215Y-60391968D01*
X83347219Y-60391966D01*
X83491966Y-60247219D01*
X83491968Y-60247215D01*
X83491971Y-60247213D01*
X83544732Y-60174590D01*
X83612287Y-60081610D01*
X83705220Y-59899219D01*
X83768477Y-59704534D01*
X83800500Y-59502352D01*
X83800500Y-59297648D01*
X83768477Y-59095465D01*
X83705218Y-58900776D01*
X83671503Y-58834607D01*
X83612287Y-58718390D01*
X83604556Y-58707749D01*
X83491971Y-58552786D01*
X83347213Y-58408028D01*
X83181614Y-58287715D01*
X83175006Y-58284348D01*
X83088917Y-58240483D01*
X83038123Y-58192511D01*
X83021328Y-58124690D01*
X83043865Y-58058555D01*
X83088917Y-58019516D01*
X83181610Y-57972287D01*
X83202770Y-57956913D01*
X83347213Y-57851971D01*
X83347215Y-57851968D01*
X83347219Y-57851966D01*
X83491966Y-57707219D01*
X83491968Y-57707215D01*
X83491971Y-57707213D01*
X83554036Y-57621786D01*
X83612287Y-57541610D01*
X83705220Y-57359219D01*
X83768477Y-57164534D01*
X83800500Y-56962352D01*
X83800500Y-56757648D01*
X83768477Y-56555466D01*
X83705220Y-56360781D01*
X83705218Y-56360778D01*
X83705218Y-56360776D01*
X83671503Y-56294607D01*
X83612287Y-56178390D01*
X83581663Y-56136239D01*
X83491971Y-56012786D01*
X83347213Y-55868028D01*
X83181614Y-55747715D01*
X83114881Y-55713713D01*
X83088917Y-55700483D01*
X83038123Y-55652511D01*
X83021328Y-55584690D01*
X83043865Y-55518555D01*
X83088917Y-55479516D01*
X83181610Y-55432287D01*
X83202770Y-55416913D01*
X83347213Y-55311971D01*
X83347215Y-55311968D01*
X83347219Y-55311966D01*
X83491966Y-55167219D01*
X83491968Y-55167215D01*
X83491971Y-55167213D01*
X83544732Y-55094590D01*
X83612287Y-55001610D01*
X83705220Y-54819219D01*
X83768477Y-54624534D01*
X83800500Y-54422352D01*
X83800500Y-54217648D01*
X83768477Y-54015466D01*
X83705220Y-53820781D01*
X83705218Y-53820778D01*
X83705218Y-53820776D01*
X83671503Y-53754607D01*
X83612287Y-53638390D01*
X83581663Y-53596239D01*
X83491971Y-53472786D01*
X83347213Y-53328028D01*
X83181614Y-53207715D01*
X83114881Y-53173713D01*
X83088917Y-53160483D01*
X83038123Y-53112511D01*
X83021328Y-53044690D01*
X83043865Y-52978555D01*
X83088917Y-52939516D01*
X83181610Y-52892287D01*
X83202770Y-52876913D01*
X83347213Y-52771971D01*
X83347215Y-52771968D01*
X83347219Y-52771966D01*
X83491966Y-52627219D01*
X83491968Y-52627215D01*
X83491971Y-52627213D01*
X83544732Y-52554590D01*
X83612287Y-52461610D01*
X83705220Y-52279219D01*
X83768477Y-52084534D01*
X83800500Y-51882352D01*
X83800500Y-51677648D01*
X83776727Y-51527554D01*
X83768477Y-51475465D01*
X83705218Y-51280776D01*
X83650585Y-51173554D01*
X83612287Y-51098390D01*
X83581663Y-51056239D01*
X83491971Y-50932786D01*
X83347213Y-50788028D01*
X83181614Y-50667715D01*
X83114881Y-50633713D01*
X83088917Y-50620483D01*
X83038123Y-50572511D01*
X83021328Y-50504690D01*
X83043865Y-50438555D01*
X83088917Y-50399516D01*
X83181610Y-50352287D01*
X83251125Y-50301782D01*
X83347213Y-50231971D01*
X83347215Y-50231968D01*
X83347219Y-50231966D01*
X83491966Y-50087219D01*
X83491968Y-50087215D01*
X83491971Y-50087213D01*
X83544732Y-50014590D01*
X83612287Y-49921610D01*
X83705220Y-49739219D01*
X83768477Y-49544534D01*
X83800500Y-49342352D01*
X83800500Y-49137648D01*
X83768477Y-48935466D01*
X83705220Y-48740781D01*
X83705218Y-48740778D01*
X83705218Y-48740776D01*
X83671503Y-48674607D01*
X83612287Y-48558390D01*
X83581663Y-48516239D01*
X83491971Y-48392786D01*
X83347213Y-48248028D01*
X83181614Y-48127715D01*
X83114881Y-48093713D01*
X83088917Y-48080483D01*
X83038123Y-48032511D01*
X83021328Y-47964690D01*
X83043865Y-47898555D01*
X83088917Y-47859516D01*
X83181610Y-47812287D01*
X83202770Y-47796913D01*
X83347213Y-47691971D01*
X83347215Y-47691968D01*
X83347219Y-47691966D01*
X83491966Y-47547219D01*
X83491968Y-47547215D01*
X83491971Y-47547213D01*
X83598771Y-47400213D01*
X83612287Y-47381610D01*
X83705220Y-47199219D01*
X83768477Y-47004534D01*
X83800500Y-46802352D01*
X83800500Y-46597648D01*
X83768477Y-46395466D01*
X83705220Y-46200781D01*
X83705218Y-46200778D01*
X83705218Y-46200776D01*
X83667079Y-46125925D01*
X83612287Y-46018390D01*
X83604556Y-46007749D01*
X83491971Y-45852786D01*
X83347213Y-45708028D01*
X83181614Y-45587715D01*
X83175006Y-45584348D01*
X83088917Y-45540483D01*
X83038123Y-45492511D01*
X83021328Y-45424690D01*
X83043865Y-45358555D01*
X83088917Y-45319516D01*
X83181610Y-45272287D01*
X83251396Y-45221585D01*
X83347213Y-45151971D01*
X83347215Y-45151968D01*
X83347219Y-45151966D01*
X83491966Y-45007219D01*
X83491968Y-45007215D01*
X83491971Y-45007213D01*
X83544732Y-44934590D01*
X83612287Y-44841610D01*
X83705220Y-44659219D01*
X83768477Y-44464534D01*
X83800500Y-44262352D01*
X83800500Y-44057648D01*
X83768477Y-43855466D01*
X83705220Y-43660781D01*
X83705218Y-43660778D01*
X83705218Y-43660776D01*
X83671503Y-43594607D01*
X83612287Y-43478390D01*
X83604556Y-43467749D01*
X83491971Y-43312786D01*
X83347213Y-43168028D01*
X83181611Y-43047713D01*
X83088369Y-43000203D01*
X83037574Y-42952229D01*
X83020779Y-42884407D01*
X83043317Y-42818273D01*
X83088371Y-42779234D01*
X83181346Y-42731861D01*
X83181347Y-42731861D01*
X83225921Y-42699474D01*
X82629409Y-42102962D01*
X82692993Y-42085925D01*
X82807007Y-42020099D01*
X82900099Y-41927007D01*
X82965925Y-41812993D01*
X82982962Y-41749409D01*
X83579474Y-42345921D01*
X83611859Y-42301349D01*
X83704755Y-42119031D01*
X83767990Y-41924417D01*
X83800000Y-41722317D01*
X83800000Y-41517682D01*
X83767990Y-41315582D01*
X83704755Y-41120968D01*
X83611859Y-40938650D01*
X83579474Y-40894077D01*
X83579474Y-40894076D01*
X82982962Y-41490589D01*
X82965925Y-41427007D01*
X82900099Y-41312993D01*
X82807007Y-41219901D01*
X82692993Y-41154075D01*
X82629408Y-41137037D01*
X83225922Y-40540524D01*
X83225921Y-40540523D01*
X83181359Y-40508147D01*
X83181350Y-40508141D01*
X83088369Y-40460765D01*
X83037573Y-40412790D01*
X83020778Y-40344969D01*
X83043315Y-40278835D01*
X83088370Y-40239795D01*
X83088920Y-40239515D01*
X83181610Y-40192287D01*
X83231144Y-40156298D01*
X83347213Y-40071971D01*
X83347215Y-40071968D01*
X83347219Y-40071966D01*
X83491966Y-39927219D01*
X83491968Y-39927215D01*
X83491971Y-39927213D01*
X83544732Y-39854590D01*
X83612287Y-39761610D01*
X83705220Y-39579219D01*
X83768477Y-39384534D01*
X83800500Y-39182352D01*
X83800500Y-38977648D01*
X83768477Y-38775466D01*
X83705220Y-38580781D01*
X83705218Y-38580778D01*
X83705218Y-38580776D01*
X83671503Y-38514607D01*
X83612287Y-38398390D01*
X83604556Y-38387749D01*
X83491971Y-38232786D01*
X83347213Y-38088028D01*
X83181614Y-37967715D01*
X83175006Y-37964348D01*
X83088917Y-37920483D01*
X83038123Y-37872511D01*
X83021328Y-37804690D01*
X83043865Y-37738555D01*
X83088917Y-37699516D01*
X83181610Y-37652287D01*
X83226774Y-37619474D01*
X83347213Y-37531971D01*
X83347215Y-37531968D01*
X83347219Y-37531966D01*
X83491966Y-37387219D01*
X83491968Y-37387215D01*
X83491971Y-37387213D01*
X83544732Y-37314590D01*
X83612287Y-37221610D01*
X83705220Y-37039219D01*
X83768477Y-36844534D01*
X83800500Y-36642352D01*
X83800500Y-36437648D01*
X83786144Y-36347007D01*
X83768477Y-36235465D01*
X83716038Y-36074075D01*
X83705220Y-36040781D01*
X83705218Y-36040778D01*
X83705218Y-36040776D01*
X83612419Y-35858650D01*
X83612287Y-35858390D01*
X83580092Y-35814077D01*
X83491971Y-35692786D01*
X83347213Y-35548028D01*
X83181614Y-35427715D01*
X83175006Y-35424348D01*
X83088917Y-35380483D01*
X83038123Y-35332511D01*
X83021328Y-35264690D01*
X83043865Y-35198555D01*
X83088917Y-35159516D01*
X83181610Y-35112287D01*
X83290750Y-35032993D01*
X83347213Y-34991971D01*
X83347215Y-34991968D01*
X83347219Y-34991966D01*
X83491966Y-34847219D01*
X83491968Y-34847215D01*
X83491971Y-34847213D01*
X83574403Y-34733753D01*
X83612287Y-34681610D01*
X83705220Y-34499219D01*
X83768477Y-34304534D01*
X83800500Y-34102352D01*
X83800500Y-33897648D01*
X96439500Y-33897648D01*
X96439500Y-34102351D01*
X96471522Y-34304534D01*
X96534781Y-34499223D01*
X96627715Y-34681613D01*
X96748028Y-34847213D01*
X96892786Y-34991971D01*
X97058385Y-35112284D01*
X97058387Y-35112285D01*
X97058390Y-35112287D01*
X97126532Y-35147007D01*
X97151630Y-35159795D01*
X97202426Y-35207770D01*
X97219221Y-35275591D01*
X97196684Y-35341725D01*
X97151630Y-35380765D01*
X97058644Y-35428143D01*
X97014077Y-35460523D01*
X97014077Y-35460524D01*
X97610591Y-36057037D01*
X97547007Y-36074075D01*
X97432993Y-36139901D01*
X97339901Y-36232993D01*
X97274075Y-36347007D01*
X97257037Y-36410590D01*
X96660524Y-35814077D01*
X96660523Y-35814077D01*
X96628143Y-35858644D01*
X96535244Y-36040968D01*
X96472009Y-36235582D01*
X96440000Y-36437682D01*
X96440000Y-36642317D01*
X96472009Y-36844417D01*
X96535244Y-37039031D01*
X96628141Y-37221350D01*
X96628147Y-37221359D01*
X96660523Y-37265921D01*
X96660524Y-37265922D01*
X97257037Y-36669409D01*
X97274075Y-36732993D01*
X97339901Y-36847007D01*
X97432993Y-36940099D01*
X97547007Y-37005925D01*
X97610590Y-37022962D01*
X97014076Y-37619474D01*
X97058652Y-37651861D01*
X97151628Y-37699234D01*
X97202425Y-37747208D01*
X97219220Y-37815029D01*
X97196683Y-37881164D01*
X97151630Y-37920203D01*
X97058388Y-37967713D01*
X96892786Y-38088028D01*
X96748028Y-38232786D01*
X96627715Y-38398386D01*
X96534781Y-38580776D01*
X96471522Y-38775465D01*
X96439500Y-38977648D01*
X96439500Y-39182351D01*
X96471522Y-39384534D01*
X96534781Y-39579223D01*
X96627715Y-39761613D01*
X96748028Y-39927213D01*
X96892786Y-40071971D01*
X97047749Y-40184556D01*
X97058390Y-40192287D01*
X97149840Y-40238883D01*
X97151080Y-40239515D01*
X97201876Y-40287490D01*
X97218671Y-40355311D01*
X97196134Y-40421446D01*
X97151080Y-40460485D01*
X97058386Y-40507715D01*
X96892786Y-40628028D01*
X96748028Y-40772786D01*
X96627715Y-40938386D01*
X96534781Y-41120776D01*
X96471522Y-41315465D01*
X96439500Y-41517648D01*
X96439500Y-41722351D01*
X96471522Y-41924534D01*
X96534781Y-42119223D01*
X96597601Y-42242512D01*
X96627585Y-42301359D01*
X96627715Y-42301613D01*
X96748028Y-42467213D01*
X96892786Y-42611971D01*
X97013226Y-42699474D01*
X97058390Y-42732287D01*
X97149840Y-42778883D01*
X97151080Y-42779515D01*
X97201876Y-42827490D01*
X97218671Y-42895311D01*
X97196134Y-42961446D01*
X97151080Y-43000485D01*
X97058386Y-43047715D01*
X96892786Y-43168028D01*
X96748028Y-43312786D01*
X96627715Y-43478386D01*
X96534781Y-43660776D01*
X96471522Y-43855465D01*
X96439500Y-44057648D01*
X96439500Y-44262351D01*
X96471522Y-44464534D01*
X96534781Y-44659223D01*
X96627715Y-44841613D01*
X96748028Y-45007213D01*
X96892786Y-45151971D01*
X96988608Y-45221588D01*
X97058390Y-45272287D01*
X97149840Y-45318883D01*
X97151080Y-45319515D01*
X97201876Y-45367490D01*
X97218671Y-45435311D01*
X97196134Y-45501446D01*
X97151080Y-45540485D01*
X97058386Y-45587715D01*
X96892786Y-45708028D01*
X96748028Y-45852786D01*
X96627715Y-46018386D01*
X96534781Y-46200776D01*
X96471522Y-46395465D01*
X96439500Y-46597648D01*
X96439500Y-46802351D01*
X96471522Y-47004534D01*
X96534781Y-47199223D01*
X96627715Y-47381613D01*
X96748028Y-47547213D01*
X96892786Y-47691971D01*
X97047749Y-47804556D01*
X97058390Y-47812287D01*
X97149840Y-47858883D01*
X97151080Y-47859515D01*
X97201876Y-47907490D01*
X97218671Y-47975311D01*
X97196134Y-48041446D01*
X97151080Y-48080485D01*
X97058386Y-48127715D01*
X96892786Y-48248028D01*
X96748028Y-48392786D01*
X96627715Y-48558386D01*
X96534781Y-48740776D01*
X96471522Y-48935465D01*
X96439500Y-49137648D01*
X96439500Y-49342351D01*
X96471522Y-49544534D01*
X96534781Y-49739223D01*
X96627715Y-49921613D01*
X96748028Y-50087213D01*
X96892786Y-50231971D01*
X96988875Y-50301782D01*
X97058390Y-50352287D01*
X97149840Y-50398883D01*
X97151080Y-50399515D01*
X97201876Y-50447490D01*
X97218671Y-50515311D01*
X97196134Y-50581446D01*
X97151080Y-50620485D01*
X97058386Y-50667715D01*
X96892786Y-50788028D01*
X96748028Y-50932786D01*
X96627715Y-51098386D01*
X96534781Y-51280776D01*
X96471522Y-51475465D01*
X96439500Y-51677648D01*
X96439500Y-51882351D01*
X96471522Y-52084534D01*
X96534781Y-52279223D01*
X96627715Y-52461613D01*
X96748028Y-52627213D01*
X96892786Y-52771971D01*
X97047749Y-52884556D01*
X97058390Y-52892287D01*
X97149840Y-52938883D01*
X97151080Y-52939515D01*
X97201876Y-52987490D01*
X97218671Y-53055311D01*
X97196134Y-53121446D01*
X97151080Y-53160485D01*
X97058386Y-53207715D01*
X96892786Y-53328028D01*
X96748028Y-53472786D01*
X96627715Y-53638386D01*
X96534781Y-53820776D01*
X96471522Y-54015465D01*
X96439500Y-54217648D01*
X96439500Y-54422351D01*
X96471522Y-54624534D01*
X96534781Y-54819223D01*
X96596427Y-54940208D01*
X96622170Y-54990732D01*
X96627715Y-55001613D01*
X96748028Y-55167213D01*
X96892786Y-55311971D01*
X97047749Y-55424556D01*
X97058390Y-55432287D01*
X97149840Y-55478883D01*
X97151080Y-55479515D01*
X97201876Y-55527490D01*
X97218671Y-55595311D01*
X97196134Y-55661446D01*
X97151080Y-55700485D01*
X97058386Y-55747715D01*
X96892786Y-55868028D01*
X96748028Y-56012786D01*
X96627715Y-56178386D01*
X96534781Y-56360776D01*
X96471522Y-56555465D01*
X96439500Y-56757648D01*
X96439500Y-56962351D01*
X96471522Y-57164534D01*
X96534781Y-57359223D01*
X96627715Y-57541613D01*
X96748028Y-57707213D01*
X96892786Y-57851971D01*
X97047749Y-57964556D01*
X97058390Y-57972287D01*
X97149840Y-58018883D01*
X97151080Y-58019515D01*
X97201876Y-58067490D01*
X97218671Y-58135311D01*
X97196134Y-58201446D01*
X97151080Y-58240485D01*
X97058386Y-58287715D01*
X96892786Y-58408028D01*
X96748028Y-58552786D01*
X96627715Y-58718386D01*
X96534781Y-58900776D01*
X96471522Y-59095465D01*
X96439500Y-59297648D01*
X96439500Y-59502351D01*
X96471522Y-59704534D01*
X96534781Y-59899223D01*
X96627715Y-60081613D01*
X96748028Y-60247213D01*
X96892786Y-60391971D01*
X97047749Y-60504556D01*
X97058390Y-60512287D01*
X97149840Y-60558883D01*
X97151080Y-60559515D01*
X97201876Y-60607490D01*
X97218671Y-60675311D01*
X97196134Y-60741446D01*
X97151080Y-60780485D01*
X97058386Y-60827715D01*
X96892786Y-60948028D01*
X96748028Y-61092786D01*
X96627715Y-61258386D01*
X96534781Y-61440776D01*
X96471522Y-61635465D01*
X96439500Y-61837648D01*
X96439500Y-62042351D01*
X96471522Y-62244534D01*
X96534781Y-62439223D01*
X96627715Y-62621613D01*
X96748028Y-62787213D01*
X96892786Y-62931971D01*
X97041477Y-63039999D01*
X97058390Y-63052287D01*
X97149840Y-63098883D01*
X97151080Y-63099515D01*
X97201876Y-63147490D01*
X97218671Y-63215311D01*
X97196134Y-63281446D01*
X97151080Y-63320485D01*
X97058386Y-63367715D01*
X96892786Y-63488028D01*
X96748028Y-63632786D01*
X96627715Y-63798386D01*
X96534781Y-63980776D01*
X96471522Y-64175465D01*
X96439500Y-64377648D01*
X96439500Y-64582351D01*
X96471522Y-64784534D01*
X96534781Y-64979223D01*
X96627715Y-65161613D01*
X96748028Y-65327213D01*
X96892786Y-65471971D01*
X97047749Y-65584556D01*
X97058390Y-65592287D01*
X97149840Y-65638883D01*
X97151080Y-65639515D01*
X97201876Y-65687490D01*
X97218671Y-65755311D01*
X97196134Y-65821446D01*
X97151080Y-65860485D01*
X97058386Y-65907715D01*
X96892786Y-66028028D01*
X96748028Y-66172786D01*
X96627715Y-66338386D01*
X96534781Y-66520776D01*
X96471522Y-66715465D01*
X96439500Y-66917648D01*
X96439500Y-67122351D01*
X96471522Y-67324534D01*
X96534781Y-67519223D01*
X96627715Y-67701613D01*
X96748028Y-67867213D01*
X96892786Y-68011971D01*
X97047749Y-68124556D01*
X97058390Y-68132287D01*
X97149840Y-68178883D01*
X97151080Y-68179515D01*
X97201876Y-68227490D01*
X97218671Y-68295311D01*
X97196134Y-68361446D01*
X97151080Y-68400485D01*
X97058386Y-68447715D01*
X96892786Y-68568028D01*
X96748028Y-68712786D01*
X96627715Y-68878386D01*
X96534781Y-69060776D01*
X96471522Y-69255465D01*
X96439500Y-69457648D01*
X96439500Y-69662351D01*
X96471522Y-69864534D01*
X96534781Y-70059223D01*
X96627715Y-70241613D01*
X96748028Y-70407213D01*
X96892786Y-70551971D01*
X97047749Y-70664556D01*
X97058390Y-70672287D01*
X97174607Y-70731503D01*
X97240776Y-70765218D01*
X97240778Y-70765218D01*
X97240781Y-70765220D01*
X97345137Y-70799127D01*
X97435465Y-70828477D01*
X97536557Y-70844488D01*
X97637648Y-70860500D01*
X97637649Y-70860500D01*
X97842351Y-70860500D01*
X97842352Y-70860500D01*
X98044534Y-70828477D01*
X98239219Y-70765220D01*
X98421610Y-70672287D01*
X98514590Y-70604732D01*
X98587213Y-70551971D01*
X98587215Y-70551968D01*
X98587219Y-70551966D01*
X98731966Y-70407219D01*
X98731968Y-70407215D01*
X98731971Y-70407213D01*
X98784732Y-70334590D01*
X98852287Y-70241610D01*
X98945220Y-70059219D01*
X99008477Y-69864534D01*
X99040500Y-69662352D01*
X99040500Y-69457648D01*
X99008477Y-69255466D01*
X98945220Y-69060781D01*
X98945218Y-69060778D01*
X98945218Y-69060776D01*
X98911503Y-68994607D01*
X98852287Y-68878390D01*
X98844556Y-68867749D01*
X98731971Y-68712786D01*
X98587213Y-68568028D01*
X98421614Y-68447715D01*
X98415006Y-68444348D01*
X98328917Y-68400483D01*
X98278123Y-68352511D01*
X98261328Y-68284690D01*
X98283865Y-68218555D01*
X98328917Y-68179516D01*
X98421610Y-68132287D01*
X98442770Y-68116913D01*
X98587213Y-68011971D01*
X98587215Y-68011968D01*
X98587219Y-68011966D01*
X98731966Y-67867219D01*
X98731968Y-67867215D01*
X98731971Y-67867213D01*
X98784732Y-67794590D01*
X98852287Y-67701610D01*
X98945220Y-67519219D01*
X99008477Y-67324534D01*
X99040500Y-67122352D01*
X99040500Y-66917648D01*
X99008477Y-66715466D01*
X98945220Y-66520781D01*
X98945218Y-66520778D01*
X98945218Y-66520776D01*
X98911503Y-66454607D01*
X98852287Y-66338390D01*
X98844556Y-66327749D01*
X98731971Y-66172786D01*
X98587213Y-66028028D01*
X98421614Y-65907715D01*
X98415006Y-65904348D01*
X98328917Y-65860483D01*
X98278123Y-65812511D01*
X98261328Y-65744690D01*
X98283865Y-65678555D01*
X98328917Y-65639516D01*
X98421610Y-65592287D01*
X98442770Y-65576913D01*
X98587213Y-65471971D01*
X98587215Y-65471968D01*
X98587219Y-65471966D01*
X98731966Y-65327219D01*
X98731968Y-65327215D01*
X98731971Y-65327213D01*
X98784732Y-65254590D01*
X98852287Y-65161610D01*
X98945220Y-64979219D01*
X99008477Y-64784534D01*
X99040500Y-64582352D01*
X99040500Y-64377648D01*
X99008477Y-64175466D01*
X98945220Y-63980781D01*
X98852287Y-63798390D01*
X98815350Y-63747550D01*
X98731971Y-63632786D01*
X98587213Y-63488028D01*
X98421614Y-63367715D01*
X98380972Y-63347007D01*
X98328917Y-63320483D01*
X98278123Y-63272511D01*
X98261328Y-63204690D01*
X98283865Y-63138555D01*
X98328917Y-63099516D01*
X98421610Y-63052287D01*
X98442770Y-63036913D01*
X98587213Y-62931971D01*
X98587215Y-62931968D01*
X98587219Y-62931966D01*
X98731966Y-62787219D01*
X98731968Y-62787215D01*
X98731971Y-62787213D01*
X98805181Y-62686446D01*
X98852287Y-62621610D01*
X98945220Y-62439219D01*
X99008477Y-62244534D01*
X99040500Y-62042352D01*
X99040500Y-61837648D01*
X99008477Y-61635466D01*
X98945220Y-61440781D01*
X98945218Y-61440778D01*
X98945218Y-61440776D01*
X98911503Y-61374607D01*
X98852287Y-61258390D01*
X98844556Y-61247749D01*
X98731971Y-61092786D01*
X98587213Y-60948028D01*
X98421614Y-60827715D01*
X98415006Y-60824348D01*
X98328917Y-60780483D01*
X98278123Y-60732511D01*
X98261328Y-60664690D01*
X98283865Y-60598555D01*
X98328917Y-60559516D01*
X98421610Y-60512287D01*
X98442770Y-60496913D01*
X98587213Y-60391971D01*
X98587215Y-60391968D01*
X98587219Y-60391966D01*
X98731966Y-60247219D01*
X98731968Y-60247215D01*
X98731971Y-60247213D01*
X98784732Y-60174590D01*
X98852287Y-60081610D01*
X98945220Y-59899219D01*
X99008477Y-59704534D01*
X99024696Y-59602135D01*
X106349500Y-59602135D01*
X106349500Y-61397870D01*
X106349501Y-61397876D01*
X106355908Y-61457483D01*
X106406202Y-61592328D01*
X106406206Y-61592335D01*
X106492452Y-61707544D01*
X106492455Y-61707547D01*
X106607664Y-61793793D01*
X106607671Y-61793797D01*
X106652618Y-61810561D01*
X106742517Y-61844091D01*
X106802127Y-61850500D01*
X106812685Y-61850499D01*
X106879723Y-61870179D01*
X106900372Y-61886818D01*
X107570591Y-62557037D01*
X107507007Y-62574075D01*
X107392993Y-62639901D01*
X107299901Y-62732993D01*
X107234075Y-62847007D01*
X107217037Y-62910591D01*
X106584728Y-62278282D01*
X106584727Y-62278282D01*
X106545380Y-62332439D01*
X106448904Y-62521782D01*
X106383242Y-62723869D01*
X106383242Y-62723872D01*
X106350000Y-62933753D01*
X106350000Y-63146246D01*
X106383242Y-63356127D01*
X106383242Y-63356130D01*
X106448904Y-63558217D01*
X106545375Y-63747550D01*
X106584728Y-63801716D01*
X107217037Y-63169408D01*
X107234075Y-63232993D01*
X107299901Y-63347007D01*
X107392993Y-63440099D01*
X107507007Y-63505925D01*
X107570590Y-63522962D01*
X106938282Y-64155269D01*
X106938282Y-64155270D01*
X106992449Y-64194624D01*
X107181782Y-64291095D01*
X107383870Y-64356757D01*
X107593754Y-64390000D01*
X107806246Y-64390000D01*
X108016127Y-64356757D01*
X108016130Y-64356757D01*
X108218217Y-64291095D01*
X108407554Y-64194622D01*
X108461716Y-64155270D01*
X108461717Y-64155270D01*
X107829408Y-63522962D01*
X107892993Y-63505925D01*
X108007007Y-63440099D01*
X108100099Y-63347007D01*
X108165925Y-63232993D01*
X108182962Y-63169409D01*
X108815270Y-63801717D01*
X108815270Y-63801716D01*
X108854622Y-63747554D01*
X108951095Y-63558217D01*
X109016757Y-63356130D01*
X109016757Y-63356127D01*
X109050000Y-63146246D01*
X109050000Y-62933753D01*
X109016757Y-62723872D01*
X109016757Y-62723869D01*
X108951095Y-62521782D01*
X108854624Y-62332449D01*
X108815270Y-62278282D01*
X108815269Y-62278282D01*
X108182962Y-62910590D01*
X108165925Y-62847007D01*
X108100099Y-62732993D01*
X108007007Y-62639901D01*
X107892993Y-62574075D01*
X107829409Y-62557037D01*
X108499627Y-61886818D01*
X108560950Y-61853333D01*
X108587307Y-61850499D01*
X108597872Y-61850499D01*
X108657483Y-61844091D01*
X108792331Y-61793796D01*
X108907546Y-61707546D01*
X108993796Y-61592331D01*
X109044091Y-61457483D01*
X109050500Y-61397873D01*
X109050499Y-59602128D01*
X109044091Y-59542517D01*
X109029110Y-59502352D01*
X108993797Y-59407671D01*
X108993793Y-59407664D01*
X108907547Y-59292455D01*
X108907544Y-59292452D01*
X108792335Y-59206206D01*
X108792328Y-59206202D01*
X108657482Y-59155908D01*
X108657483Y-59155908D01*
X108597883Y-59149501D01*
X108597881Y-59149500D01*
X108597873Y-59149500D01*
X108597864Y-59149500D01*
X106802129Y-59149500D01*
X106802123Y-59149501D01*
X106742516Y-59155908D01*
X106607671Y-59206202D01*
X106607664Y-59206206D01*
X106492455Y-59292452D01*
X106492452Y-59292455D01*
X106406206Y-59407664D01*
X106406202Y-59407671D01*
X106355908Y-59542517D01*
X106349501Y-59602116D01*
X106349501Y-59602123D01*
X106349500Y-59602135D01*
X99024696Y-59602135D01*
X99040500Y-59502352D01*
X99040500Y-59297648D01*
X99008477Y-59095465D01*
X98945218Y-58900776D01*
X98911503Y-58834607D01*
X98852287Y-58718390D01*
X98844556Y-58707749D01*
X98731971Y-58552786D01*
X98587213Y-58408028D01*
X98421614Y-58287715D01*
X98415006Y-58284348D01*
X98328917Y-58240483D01*
X98278123Y-58192511D01*
X98261328Y-58124690D01*
X98283865Y-58058555D01*
X98328917Y-58019516D01*
X98421610Y-57972287D01*
X98442770Y-57956913D01*
X98587213Y-57851971D01*
X98587215Y-57851968D01*
X98587219Y-57851966D01*
X98731966Y-57707219D01*
X98731968Y-57707215D01*
X98731971Y-57707213D01*
X98794036Y-57621786D01*
X98852287Y-57541610D01*
X98945220Y-57359219D01*
X99008477Y-57164534D01*
X99040500Y-56962352D01*
X99040500Y-56757648D01*
X99008477Y-56555466D01*
X98945220Y-56360781D01*
X98945218Y-56360778D01*
X98945218Y-56360776D01*
X98911503Y-56294607D01*
X98852287Y-56178390D01*
X98821663Y-56136239D01*
X98731971Y-56012786D01*
X98587213Y-55868028D01*
X98421614Y-55747715D01*
X98354881Y-55713713D01*
X98328917Y-55700483D01*
X98278123Y-55652511D01*
X98261328Y-55584690D01*
X98283865Y-55518555D01*
X98328917Y-55479516D01*
X98421610Y-55432287D01*
X98442770Y-55416913D01*
X98587213Y-55311971D01*
X98587215Y-55311968D01*
X98587219Y-55311966D01*
X98731966Y-55167219D01*
X98731968Y-55167215D01*
X98731971Y-55167213D01*
X98784732Y-55094590D01*
X98852287Y-55001610D01*
X98945220Y-54819219D01*
X99008477Y-54624534D01*
X99040500Y-54422352D01*
X99040500Y-54217648D01*
X99008477Y-54015466D01*
X98945220Y-53820781D01*
X98945218Y-53820778D01*
X98945218Y-53820776D01*
X98911503Y-53754607D01*
X98852287Y-53638390D01*
X98821663Y-53596239D01*
X98731971Y-53472786D01*
X98587213Y-53328028D01*
X98421614Y-53207715D01*
X98354881Y-53173713D01*
X98328917Y-53160483D01*
X98278123Y-53112511D01*
X98261328Y-53044690D01*
X98283865Y-52978555D01*
X98328917Y-52939516D01*
X98421610Y-52892287D01*
X98442770Y-52876913D01*
X98587213Y-52771971D01*
X98587215Y-52771968D01*
X98587219Y-52771966D01*
X98731966Y-52627219D01*
X98731968Y-52627215D01*
X98731971Y-52627213D01*
X98784732Y-52554590D01*
X98852287Y-52461610D01*
X98945220Y-52279219D01*
X99008477Y-52084534D01*
X99040500Y-51882352D01*
X99040500Y-51677648D01*
X99016727Y-51527554D01*
X99008477Y-51475465D01*
X98945218Y-51280776D01*
X98890585Y-51173554D01*
X98852287Y-51098390D01*
X98821663Y-51056239D01*
X98731971Y-50932786D01*
X98587213Y-50788028D01*
X98421614Y-50667715D01*
X98354881Y-50633713D01*
X98328917Y-50620483D01*
X98278123Y-50572511D01*
X98261328Y-50504690D01*
X98283865Y-50438555D01*
X98328917Y-50399516D01*
X98421610Y-50352287D01*
X98491125Y-50301782D01*
X98587213Y-50231971D01*
X98587215Y-50231968D01*
X98587219Y-50231966D01*
X98731966Y-50087219D01*
X98731968Y-50087215D01*
X98731971Y-50087213D01*
X98784732Y-50014590D01*
X98852287Y-49921610D01*
X98945220Y-49739219D01*
X99008477Y-49544534D01*
X99040500Y-49342352D01*
X99040500Y-49137648D01*
X99008477Y-48935466D01*
X98945220Y-48740781D01*
X98945218Y-48740778D01*
X98945218Y-48740776D01*
X98911503Y-48674607D01*
X98852287Y-48558390D01*
X98821663Y-48516239D01*
X98731971Y-48392786D01*
X98587213Y-48248028D01*
X98421614Y-48127715D01*
X98354881Y-48093713D01*
X98328917Y-48080483D01*
X98278123Y-48032511D01*
X98261328Y-47964690D01*
X98283865Y-47898555D01*
X98328917Y-47859516D01*
X98421610Y-47812287D01*
X98442770Y-47796913D01*
X98587213Y-47691971D01*
X98587215Y-47691968D01*
X98587219Y-47691966D01*
X98731966Y-47547219D01*
X98731968Y-47547215D01*
X98731971Y-47547213D01*
X98838771Y-47400213D01*
X98852287Y-47381610D01*
X98945220Y-47199219D01*
X99008477Y-47004534D01*
X99040500Y-46802352D01*
X99040500Y-46597648D01*
X99008477Y-46395466D01*
X98945220Y-46200781D01*
X98945218Y-46200778D01*
X98945218Y-46200776D01*
X98907079Y-46125925D01*
X98852287Y-46018390D01*
X98844556Y-46007749D01*
X98731971Y-45852786D01*
X98587213Y-45708028D01*
X98421614Y-45587715D01*
X98415006Y-45584348D01*
X98328917Y-45540483D01*
X98278123Y-45492511D01*
X98261328Y-45424690D01*
X98283865Y-45358555D01*
X98328917Y-45319516D01*
X98421610Y-45272287D01*
X98491396Y-45221585D01*
X98587213Y-45151971D01*
X98587215Y-45151968D01*
X98587219Y-45151966D01*
X98731966Y-45007219D01*
X98731968Y-45007215D01*
X98731971Y-45007213D01*
X98784732Y-44934590D01*
X98852287Y-44841610D01*
X98945220Y-44659219D01*
X99008477Y-44464534D01*
X99040500Y-44262352D01*
X99040500Y-44057648D01*
X99008477Y-43855466D01*
X98945220Y-43660781D01*
X98945218Y-43660778D01*
X98945218Y-43660776D01*
X98911503Y-43594607D01*
X98852287Y-43478390D01*
X98844556Y-43467749D01*
X98731971Y-43312786D01*
X98587213Y-43168028D01*
X98421614Y-43047715D01*
X98415006Y-43044348D01*
X98328917Y-43000483D01*
X98278123Y-42952511D01*
X98261328Y-42884690D01*
X98283865Y-42818555D01*
X98328917Y-42779516D01*
X98421610Y-42732287D01*
X98466774Y-42699474D01*
X98587213Y-42611971D01*
X98587215Y-42611968D01*
X98587219Y-42611966D01*
X98731966Y-42467219D01*
X98731968Y-42467215D01*
X98731971Y-42467213D01*
X98820093Y-42345921D01*
X98851906Y-42302135D01*
X106349500Y-42302135D01*
X106349500Y-44097870D01*
X106349501Y-44097876D01*
X106355908Y-44157483D01*
X106406202Y-44292328D01*
X106406206Y-44292335D01*
X106492452Y-44407544D01*
X106492455Y-44407547D01*
X106607664Y-44493793D01*
X106607671Y-44493797D01*
X106739082Y-44542810D01*
X106795016Y-44584681D01*
X106819433Y-44650145D01*
X106804582Y-44718418D01*
X106783431Y-44746673D01*
X106669889Y-44860215D01*
X106544951Y-45032179D01*
X106448444Y-45221585D01*
X106382753Y-45423760D01*
X106349500Y-45633713D01*
X106349500Y-45846286D01*
X106376758Y-46018390D01*
X106382754Y-46056243D01*
X106429717Y-46200781D01*
X106448444Y-46258414D01*
X106544951Y-46447820D01*
X106669890Y-46619786D01*
X106820213Y-46770109D01*
X106992182Y-46895050D01*
X107000946Y-46899516D01*
X107051742Y-46947491D01*
X107068536Y-47015312D01*
X107045998Y-47081447D01*
X107000946Y-47120484D01*
X106992182Y-47124949D01*
X106820213Y-47249890D01*
X106669890Y-47400213D01*
X106544951Y-47572179D01*
X106448444Y-47761585D01*
X106382753Y-47963760D01*
X106349500Y-48173713D01*
X106349500Y-48386286D01*
X106379998Y-48578846D01*
X106382754Y-48596243D01*
X106429717Y-48740781D01*
X106448444Y-48798414D01*
X106544951Y-48987820D01*
X106669890Y-49159786D01*
X106820213Y-49310109D01*
X106992179Y-49435048D01*
X106992181Y-49435049D01*
X106992184Y-49435051D01*
X107001493Y-49439794D01*
X107052290Y-49487766D01*
X107069087Y-49555587D01*
X107046552Y-49621722D01*
X107001505Y-49660760D01*
X106992446Y-49665376D01*
X106992440Y-49665380D01*
X106938282Y-49704727D01*
X106938282Y-49704728D01*
X107570591Y-50337037D01*
X107507007Y-50354075D01*
X107392993Y-50419901D01*
X107299901Y-50512993D01*
X107234075Y-50627007D01*
X107217037Y-50690591D01*
X106584728Y-50058282D01*
X106584727Y-50058282D01*
X106545380Y-50112439D01*
X106448904Y-50301782D01*
X106383242Y-50503869D01*
X106383242Y-50503872D01*
X106350000Y-50713753D01*
X106350000Y-50926246D01*
X106383242Y-51136127D01*
X106383242Y-51136130D01*
X106448904Y-51338217D01*
X106545375Y-51527550D01*
X106584728Y-51581716D01*
X107217037Y-50949408D01*
X107234075Y-51012993D01*
X107299901Y-51127007D01*
X107392993Y-51220099D01*
X107507007Y-51285925D01*
X107570590Y-51302962D01*
X106938282Y-51935269D01*
X106938282Y-51935270D01*
X106992449Y-51974624D01*
X107181782Y-52071095D01*
X107383870Y-52136757D01*
X107593754Y-52170000D01*
X107806246Y-52170000D01*
X108016127Y-52136757D01*
X108016130Y-52136757D01*
X108218217Y-52071095D01*
X108407554Y-51974622D01*
X108461716Y-51935270D01*
X108461717Y-51935270D01*
X107829408Y-51302962D01*
X107892993Y-51285925D01*
X108007007Y-51220099D01*
X108100099Y-51127007D01*
X108165925Y-51012993D01*
X108182962Y-50949409D01*
X108815270Y-51581717D01*
X108815270Y-51581716D01*
X108854622Y-51527554D01*
X108951095Y-51338217D01*
X109016757Y-51136130D01*
X109016757Y-51136127D01*
X109050000Y-50926246D01*
X109050000Y-50713753D01*
X109016757Y-50503872D01*
X109016757Y-50503869D01*
X108951095Y-50301782D01*
X108854624Y-50112449D01*
X108815270Y-50058282D01*
X108815269Y-50058282D01*
X108182962Y-50690590D01*
X108165925Y-50627007D01*
X108100099Y-50512993D01*
X108007007Y-50419901D01*
X107892993Y-50354075D01*
X107829409Y-50337037D01*
X108461716Y-49704728D01*
X108407547Y-49665373D01*
X108407547Y-49665372D01*
X108398500Y-49660763D01*
X108347706Y-49612788D01*
X108330912Y-49544966D01*
X108353451Y-49478832D01*
X108398508Y-49439793D01*
X108407816Y-49435051D01*
X108511782Y-49359516D01*
X108579786Y-49310109D01*
X108579788Y-49310106D01*
X108579792Y-49310104D01*
X108730104Y-49159792D01*
X108730106Y-49159788D01*
X108730109Y-49159786D01*
X108855048Y-48987820D01*
X108855047Y-48987820D01*
X108855051Y-48987816D01*
X108951557Y-48798412D01*
X109017246Y-48596243D01*
X109050500Y-48386287D01*
X109050500Y-48173713D01*
X109017246Y-47963757D01*
X108951557Y-47761588D01*
X108855051Y-47572184D01*
X108855049Y-47572181D01*
X108855048Y-47572179D01*
X108730109Y-47400213D01*
X108579786Y-47249890D01*
X108407820Y-47124951D01*
X108407115Y-47124591D01*
X108399054Y-47120485D01*
X108348259Y-47072512D01*
X108331463Y-47004692D01*
X108353999Y-46938556D01*
X108399054Y-46899515D01*
X108407816Y-46895051D01*
X108470512Y-46849500D01*
X108579786Y-46770109D01*
X108579788Y-46770106D01*
X108579792Y-46770104D01*
X108730104Y-46619792D01*
X108730106Y-46619788D01*
X108730109Y-46619786D01*
X108855048Y-46447820D01*
X108855047Y-46447820D01*
X108855051Y-46447816D01*
X108951557Y-46258412D01*
X109017246Y-46056243D01*
X109050500Y-45846287D01*
X109050500Y-45633713D01*
X109017246Y-45423757D01*
X108951557Y-45221588D01*
X108855051Y-45032184D01*
X108855049Y-45032181D01*
X108855048Y-45032179D01*
X108730109Y-44860213D01*
X108616569Y-44746673D01*
X108583084Y-44685350D01*
X108588068Y-44615658D01*
X108629940Y-44559725D01*
X108660915Y-44542810D01*
X108792331Y-44493796D01*
X108907546Y-44407546D01*
X108993796Y-44292331D01*
X109044091Y-44157483D01*
X109050500Y-44097873D01*
X109050499Y-42302128D01*
X109044091Y-42242517D01*
X109044089Y-42242512D01*
X108993797Y-42107671D01*
X108993793Y-42107664D01*
X108907547Y-41992455D01*
X108907544Y-41992452D01*
X108792335Y-41906206D01*
X108792328Y-41906202D01*
X108657482Y-41855908D01*
X108657483Y-41855908D01*
X108597883Y-41849501D01*
X108597881Y-41849500D01*
X108597873Y-41849500D01*
X108597864Y-41849500D01*
X106802129Y-41849500D01*
X106802123Y-41849501D01*
X106742516Y-41855908D01*
X106607671Y-41906202D01*
X106607664Y-41906206D01*
X106492455Y-41992452D01*
X106492452Y-41992455D01*
X106406206Y-42107664D01*
X106406202Y-42107671D01*
X106355908Y-42242517D01*
X106349555Y-42301611D01*
X106349501Y-42302123D01*
X106349500Y-42302135D01*
X98851906Y-42302135D01*
X98852287Y-42301610D01*
X98945220Y-42119219D01*
X99008477Y-41924534D01*
X99040500Y-41722352D01*
X99040500Y-41517648D01*
X99026144Y-41427007D01*
X99008477Y-41315465D01*
X98956038Y-41154075D01*
X98945220Y-41120781D01*
X98945218Y-41120778D01*
X98945218Y-41120776D01*
X98852419Y-40938650D01*
X98852287Y-40938390D01*
X98820092Y-40894077D01*
X98731971Y-40772786D01*
X98587213Y-40628028D01*
X98421614Y-40507715D01*
X98415006Y-40504348D01*
X98328917Y-40460483D01*
X98278123Y-40412511D01*
X98261328Y-40344690D01*
X98283865Y-40278555D01*
X98328917Y-40239516D01*
X98421610Y-40192287D01*
X98442770Y-40176913D01*
X98587213Y-40071971D01*
X98587215Y-40071968D01*
X98587219Y-40071966D01*
X98731966Y-39927219D01*
X98731968Y-39927215D01*
X98731971Y-39927213D01*
X98784732Y-39854590D01*
X98852287Y-39761610D01*
X98945220Y-39579219D01*
X99008477Y-39384534D01*
X99040500Y-39182352D01*
X99040500Y-38977648D01*
X99008477Y-38775466D01*
X98945220Y-38580781D01*
X98945218Y-38580778D01*
X98945218Y-38580776D01*
X98911503Y-38514607D01*
X98852287Y-38398390D01*
X98844556Y-38387749D01*
X98731971Y-38232786D01*
X98587213Y-38088028D01*
X98421611Y-37967713D01*
X98328369Y-37920203D01*
X98277574Y-37872229D01*
X98260779Y-37804407D01*
X98283317Y-37738273D01*
X98328371Y-37699234D01*
X98421346Y-37651861D01*
X98421347Y-37651861D01*
X98465921Y-37619474D01*
X97869409Y-37022962D01*
X97932993Y-37005925D01*
X98047007Y-36940099D01*
X98140099Y-36847007D01*
X98205925Y-36732993D01*
X98222962Y-36669410D01*
X98819474Y-37265922D01*
X98819474Y-37265921D01*
X98851859Y-37221349D01*
X98944755Y-37039031D01*
X99007990Y-36844417D01*
X99040000Y-36642317D01*
X99040000Y-36437682D01*
X99007990Y-36235582D01*
X98944754Y-36040965D01*
X98905695Y-35964307D01*
X98905694Y-35964306D01*
X98851859Y-35858650D01*
X98819474Y-35814077D01*
X98819474Y-35814076D01*
X98222962Y-36410589D01*
X98205925Y-36347007D01*
X98140099Y-36232993D01*
X98047007Y-36139901D01*
X97932993Y-36074075D01*
X97869408Y-36057037D01*
X98465922Y-35460524D01*
X98465921Y-35460523D01*
X98421359Y-35428147D01*
X98421350Y-35428141D01*
X98328369Y-35380765D01*
X98277573Y-35332790D01*
X98260778Y-35264969D01*
X98283315Y-35198835D01*
X98328370Y-35159795D01*
X98353468Y-35147007D01*
X98421610Y-35112287D01*
X98530750Y-35032993D01*
X98587213Y-34991971D01*
X98587215Y-34991968D01*
X98587219Y-34991966D01*
X98731966Y-34847219D01*
X98731968Y-34847215D01*
X98731971Y-34847213D01*
X98852286Y-34681611D01*
X98856886Y-34672585D01*
X98945218Y-34499223D01*
X98945218Y-34499222D01*
X98945220Y-34499219D01*
X99008477Y-34304534D01*
X99040500Y-34102352D01*
X99040500Y-33897648D01*
X99008477Y-33695466D01*
X98945220Y-33500781D01*
X98945218Y-33500778D01*
X98945218Y-33500776D01*
X98889960Y-33392328D01*
X98852287Y-33318390D01*
X98808036Y-33257483D01*
X98731971Y-33152786D01*
X98587213Y-33008028D01*
X98421613Y-32887715D01*
X98421612Y-32887714D01*
X98421610Y-32887713D01*
X98364653Y-32858691D01*
X98239223Y-32794781D01*
X98044534Y-32731522D01*
X97869995Y-32703878D01*
X97842352Y-32699500D01*
X97637648Y-32699500D01*
X97613329Y-32703351D01*
X97435465Y-32731522D01*
X97240776Y-32794781D01*
X97058386Y-32887715D01*
X96892786Y-33008028D01*
X96748028Y-33152786D01*
X96627715Y-33318386D01*
X96534781Y-33500776D01*
X96471522Y-33695465D01*
X96439500Y-33897648D01*
X83800500Y-33897648D01*
X83768477Y-33695466D01*
X83705220Y-33500781D01*
X83705218Y-33500778D01*
X83705218Y-33500776D01*
X83649960Y-33392328D01*
X83612287Y-33318390D01*
X83568036Y-33257483D01*
X83491971Y-33152786D01*
X83347213Y-33008028D01*
X83181613Y-32887715D01*
X83181612Y-32887714D01*
X83181610Y-32887713D01*
X83124653Y-32858691D01*
X82999223Y-32794781D01*
X82804534Y-32731522D01*
X82629995Y-32703878D01*
X82602352Y-32699500D01*
X82397648Y-32699500D01*
X82373329Y-32703351D01*
X82195465Y-32731522D01*
X82000776Y-32794781D01*
X81818386Y-32887715D01*
X81652786Y-33008028D01*
X81508028Y-33152786D01*
X81387715Y-33318386D01*
X81294781Y-33500776D01*
X81231522Y-33695465D01*
X81199500Y-33897648D01*
X60500500Y-33897648D01*
X60500500Y-31402135D01*
X106349500Y-31402135D01*
X106349500Y-33197870D01*
X106349501Y-33197876D01*
X106355908Y-33257483D01*
X106406202Y-33392328D01*
X106406206Y-33392335D01*
X106492452Y-33507544D01*
X106492455Y-33507547D01*
X106607664Y-33593793D01*
X106607671Y-33593797D01*
X106652618Y-33610561D01*
X106742517Y-33644091D01*
X106802127Y-33650500D01*
X106812685Y-33650499D01*
X106879723Y-33670179D01*
X106900372Y-33686818D01*
X107570591Y-34357037D01*
X107507007Y-34374075D01*
X107392993Y-34439901D01*
X107299901Y-34532993D01*
X107234075Y-34647007D01*
X107217037Y-34710591D01*
X106584728Y-34078282D01*
X106584727Y-34078282D01*
X106545380Y-34132439D01*
X106448904Y-34321782D01*
X106383242Y-34523869D01*
X106383242Y-34523872D01*
X106350000Y-34733753D01*
X106350000Y-34946246D01*
X106383242Y-35156127D01*
X106383242Y-35156130D01*
X106448904Y-35358217D01*
X106545375Y-35547550D01*
X106584728Y-35601716D01*
X107217037Y-34969408D01*
X107234075Y-35032993D01*
X107299901Y-35147007D01*
X107392993Y-35240099D01*
X107507007Y-35305925D01*
X107570590Y-35322962D01*
X106938282Y-35955269D01*
X106938282Y-35955270D01*
X106992449Y-35994624D01*
X107181782Y-36091095D01*
X107383870Y-36156757D01*
X107593754Y-36190000D01*
X107806246Y-36190000D01*
X108016127Y-36156757D01*
X108016130Y-36156757D01*
X108218217Y-36091095D01*
X108407554Y-35994622D01*
X108461716Y-35955270D01*
X108461717Y-35955270D01*
X107829408Y-35322962D01*
X107892993Y-35305925D01*
X108007007Y-35240099D01*
X108100099Y-35147007D01*
X108165925Y-35032993D01*
X108182962Y-34969409D01*
X108815270Y-35601717D01*
X108815270Y-35601716D01*
X108854622Y-35547554D01*
X108951095Y-35358217D01*
X109016757Y-35156130D01*
X109016757Y-35156127D01*
X109050000Y-34946246D01*
X109050000Y-34733753D01*
X109016757Y-34523872D01*
X109016757Y-34523869D01*
X108951095Y-34321782D01*
X108854624Y-34132449D01*
X108815270Y-34078282D01*
X108815269Y-34078282D01*
X108182962Y-34710590D01*
X108165925Y-34647007D01*
X108100099Y-34532993D01*
X108007007Y-34439901D01*
X107892993Y-34374075D01*
X107829409Y-34357037D01*
X108499627Y-33686818D01*
X108560950Y-33653333D01*
X108587307Y-33650499D01*
X108597872Y-33650499D01*
X108657483Y-33644091D01*
X108792331Y-33593796D01*
X108907546Y-33507546D01*
X108993796Y-33392331D01*
X109044091Y-33257483D01*
X109050500Y-33197873D01*
X109050499Y-31402128D01*
X109044091Y-31342517D01*
X108993796Y-31207669D01*
X108993795Y-31207668D01*
X108993793Y-31207664D01*
X108907547Y-31092455D01*
X108907544Y-31092452D01*
X108792335Y-31006206D01*
X108792328Y-31006202D01*
X108657482Y-30955908D01*
X108657483Y-30955908D01*
X108597883Y-30949501D01*
X108597881Y-30949500D01*
X108597873Y-30949500D01*
X108597864Y-30949500D01*
X106802129Y-30949500D01*
X106802123Y-30949501D01*
X106742516Y-30955908D01*
X106607671Y-31006202D01*
X106607664Y-31006206D01*
X106492455Y-31092452D01*
X106492452Y-31092455D01*
X106406206Y-31207664D01*
X106406202Y-31207671D01*
X106355908Y-31342517D01*
X106349501Y-31402116D01*
X106349501Y-31402123D01*
X106349500Y-31402135D01*
X60500500Y-31402135D01*
X60500500Y-24878711D01*
X63149500Y-24878711D01*
X63149500Y-25121288D01*
X63181161Y-25361785D01*
X63243947Y-25596104D01*
X63336773Y-25820205D01*
X63336776Y-25820212D01*
X63458064Y-26030289D01*
X63458066Y-26030292D01*
X63458067Y-26030293D01*
X63605733Y-26222736D01*
X63605739Y-26222743D01*
X63777256Y-26394260D01*
X63777262Y-26394265D01*
X63969711Y-26541936D01*
X64179788Y-26663224D01*
X64403900Y-26756054D01*
X64638211Y-26818838D01*
X64818586Y-26842584D01*
X64878711Y-26850500D01*
X64878712Y-26850500D01*
X65121289Y-26850500D01*
X65169388Y-26844167D01*
X65361789Y-26818838D01*
X65596100Y-26756054D01*
X65820212Y-26663224D01*
X66030289Y-26541936D01*
X66222738Y-26394265D01*
X66394265Y-26222738D01*
X66541936Y-26030289D01*
X66663224Y-25820212D01*
X66756054Y-25596100D01*
X66818838Y-25361789D01*
X66850500Y-25121288D01*
X66850500Y-24878712D01*
X66850500Y-24878711D01*
X113149500Y-24878711D01*
X113149500Y-25121288D01*
X113181161Y-25361785D01*
X113243947Y-25596104D01*
X113336773Y-25820205D01*
X113336776Y-25820212D01*
X113458064Y-26030289D01*
X113458066Y-26030292D01*
X113458067Y-26030293D01*
X113605733Y-26222736D01*
X113605739Y-26222743D01*
X113777256Y-26394260D01*
X113777262Y-26394265D01*
X113969711Y-26541936D01*
X114179788Y-26663224D01*
X114403900Y-26756054D01*
X114638211Y-26818838D01*
X114818586Y-26842584D01*
X114878711Y-26850500D01*
X114878712Y-26850500D01*
X115121289Y-26850500D01*
X115169388Y-26844167D01*
X115361789Y-26818838D01*
X115596100Y-26756054D01*
X115820212Y-26663224D01*
X116030289Y-26541936D01*
X116222738Y-26394265D01*
X116394265Y-26222738D01*
X116541936Y-26030289D01*
X116663224Y-25820212D01*
X116756054Y-25596100D01*
X116818838Y-25361789D01*
X116850500Y-25121288D01*
X116850500Y-24878712D01*
X116818838Y-24638211D01*
X116756054Y-24403900D01*
X116663224Y-24179788D01*
X116541936Y-23969711D01*
X116394265Y-23777262D01*
X116394260Y-23777256D01*
X116222743Y-23605739D01*
X116222736Y-23605733D01*
X116030293Y-23458067D01*
X116030292Y-23458066D01*
X116030289Y-23458064D01*
X115820212Y-23336776D01*
X115820205Y-23336773D01*
X115596104Y-23243947D01*
X115361785Y-23181161D01*
X115121289Y-23149500D01*
X115121288Y-23149500D01*
X114878712Y-23149500D01*
X114878711Y-23149500D01*
X114638214Y-23181161D01*
X114403895Y-23243947D01*
X114179794Y-23336773D01*
X114179785Y-23336777D01*
X113969706Y-23458067D01*
X113777263Y-23605733D01*
X113777256Y-23605739D01*
X113605739Y-23777256D01*
X113605733Y-23777263D01*
X113458067Y-23969706D01*
X113336777Y-24179785D01*
X113336773Y-24179794D01*
X113243947Y-24403895D01*
X113181161Y-24638214D01*
X113149500Y-24878711D01*
X66850500Y-24878711D01*
X66818838Y-24638211D01*
X66756054Y-24403900D01*
X66663224Y-24179788D01*
X66541936Y-23969711D01*
X66394265Y-23777262D01*
X66394260Y-23777256D01*
X66222743Y-23605739D01*
X66222736Y-23605733D01*
X66030293Y-23458067D01*
X66030292Y-23458066D01*
X66030289Y-23458064D01*
X65820212Y-23336776D01*
X65820205Y-23336773D01*
X65596104Y-23243947D01*
X65361785Y-23181161D01*
X65121289Y-23149500D01*
X65121288Y-23149500D01*
X64878712Y-23149500D01*
X64878711Y-23149500D01*
X64638214Y-23181161D01*
X64403895Y-23243947D01*
X64179794Y-23336773D01*
X64179785Y-23336777D01*
X63969706Y-23458067D01*
X63777263Y-23605733D01*
X63777256Y-23605739D01*
X63605739Y-23777256D01*
X63605733Y-23777263D01*
X63458067Y-23969706D01*
X63336777Y-24179785D01*
X63336773Y-24179794D01*
X63243947Y-24403895D01*
X63181161Y-24638214D01*
X63149500Y-24878711D01*
X60500500Y-24878711D01*
X60500500Y-22504066D01*
X60500765Y-22495956D01*
X60504819Y-22434108D01*
X60517075Y-22247102D01*
X60519190Y-22231048D01*
X60567045Y-21990462D01*
X60571243Y-21974797D01*
X60594337Y-21906762D01*
X60650093Y-21742512D01*
X60656291Y-21727547D01*
X60764790Y-21507533D01*
X60772893Y-21493498D01*
X60909182Y-21289527D01*
X60919039Y-21276681D01*
X61080786Y-21092244D01*
X61092244Y-21080786D01*
X61276681Y-20919039D01*
X61289527Y-20909182D01*
X61493498Y-20772893D01*
X61507533Y-20764790D01*
X61727547Y-20656291D01*
X61742512Y-20650093D01*
X61906762Y-20594337D01*
X61974797Y-20571243D01*
X61990464Y-20567045D01*
X62231048Y-20519190D01*
X62247102Y-20517075D01*
X62495957Y-20500765D01*
X62504067Y-20500500D01*
X62565892Y-20500500D01*
X117434108Y-20500500D01*
X117495933Y-20500500D01*
X117504043Y-20500765D01*
G37*
%TD.AperFunction*%
%TD*%
M02*
