%TF.GenerationSoftware,KiCad,Pcbnew,9.0.4*%
%TF.CreationDate,2026-03-18T12:24:47+01:00*%
%TF.ProjectId,board-game-timer_hardware_v2,626f6172-642d-4676-916d-652d74696d65,rev?*%
%TF.SameCoordinates,Original*%
%TF.FileFunction,Legend,Top*%
%TF.FilePolarity,Positive*%
%FSLAX46Y46*%
G04 Gerber Fmt 4.6, Leading zero omitted, Abs format (unit mm)*
G04 Created by KiCad (PCBNEW 9.0.4) date 2026-03-18 12:24:47*
%MOMM*%
%LPD*%
G01*
G04 APERTURE LIST*
%ADD10C,0.160000*%
%ADD11C,0.152400*%
%ADD12C,0.162560*%
%ADD13C,0.150000*%
%ADD14C,0.120000*%
G04 APERTURE END LIST*
D10*
X88750476Y-75121870D02*
X88674286Y-75083775D01*
X88674286Y-75083775D02*
X88560000Y-75083775D01*
X88560000Y-75083775D02*
X88445714Y-75121870D01*
X88445714Y-75121870D02*
X88369524Y-75198060D01*
X88369524Y-75198060D02*
X88331429Y-75274251D01*
X88331429Y-75274251D02*
X88293333Y-75426632D01*
X88293333Y-75426632D02*
X88293333Y-75540918D01*
X88293333Y-75540918D02*
X88331429Y-75693299D01*
X88331429Y-75693299D02*
X88369524Y-75769489D01*
X88369524Y-75769489D02*
X88445714Y-75845680D01*
X88445714Y-75845680D02*
X88560000Y-75883775D01*
X88560000Y-75883775D02*
X88636191Y-75883775D01*
X88636191Y-75883775D02*
X88750476Y-75845680D01*
X88750476Y-75845680D02*
X88788572Y-75807584D01*
X88788572Y-75807584D02*
X88788572Y-75540918D01*
X88788572Y-75540918D02*
X88636191Y-75540918D01*
X89131429Y-75883775D02*
X89131429Y-75083775D01*
X89131429Y-75083775D02*
X89588572Y-75883775D01*
X89588572Y-75883775D02*
X89588572Y-75083775D01*
X89969524Y-75883775D02*
X89969524Y-75083775D01*
X89969524Y-75083775D02*
X90160000Y-75083775D01*
X90160000Y-75083775D02*
X90274286Y-75121870D01*
X90274286Y-75121870D02*
X90350476Y-75198060D01*
X90350476Y-75198060D02*
X90388571Y-75274251D01*
X90388571Y-75274251D02*
X90426667Y-75426632D01*
X90426667Y-75426632D02*
X90426667Y-75540918D01*
X90426667Y-75540918D02*
X90388571Y-75693299D01*
X90388571Y-75693299D02*
X90350476Y-75769489D01*
X90350476Y-75769489D02*
X90274286Y-75845680D01*
X90274286Y-75845680D02*
X90160000Y-75883775D01*
X90160000Y-75883775D02*
X89969524Y-75883775D01*
X98769523Y-75223775D02*
X99264761Y-75223775D01*
X99264761Y-75223775D02*
X98998095Y-75528537D01*
X98998095Y-75528537D02*
X99112380Y-75528537D01*
X99112380Y-75528537D02*
X99188571Y-75566632D01*
X99188571Y-75566632D02*
X99226666Y-75604727D01*
X99226666Y-75604727D02*
X99264761Y-75680918D01*
X99264761Y-75680918D02*
X99264761Y-75871394D01*
X99264761Y-75871394D02*
X99226666Y-75947584D01*
X99226666Y-75947584D02*
X99188571Y-75985680D01*
X99188571Y-75985680D02*
X99112380Y-76023775D01*
X99112380Y-76023775D02*
X98883809Y-76023775D01*
X98883809Y-76023775D02*
X98807618Y-75985680D01*
X98807618Y-75985680D02*
X98769523Y-75947584D01*
X99493333Y-75223775D02*
X99760000Y-76023775D01*
X99760000Y-76023775D02*
X100026666Y-75223775D01*
X100217142Y-75223775D02*
X100712380Y-75223775D01*
X100712380Y-75223775D02*
X100445714Y-75528537D01*
X100445714Y-75528537D02*
X100559999Y-75528537D01*
X100559999Y-75528537D02*
X100636190Y-75566632D01*
X100636190Y-75566632D02*
X100674285Y-75604727D01*
X100674285Y-75604727D02*
X100712380Y-75680918D01*
X100712380Y-75680918D02*
X100712380Y-75871394D01*
X100712380Y-75871394D02*
X100674285Y-75947584D01*
X100674285Y-75947584D02*
X100636190Y-75985680D01*
X100636190Y-75985680D02*
X100559999Y-76023775D01*
X100559999Y-76023775D02*
X100331428Y-76023775D01*
X100331428Y-76023775D02*
X100255237Y-75985680D01*
X100255237Y-75985680D02*
X100217142Y-75947584D01*
X103425238Y-70504727D02*
X103539524Y-70542822D01*
X103539524Y-70542822D02*
X103577619Y-70580918D01*
X103577619Y-70580918D02*
X103615715Y-70657108D01*
X103615715Y-70657108D02*
X103615715Y-70771394D01*
X103615715Y-70771394D02*
X103577619Y-70847584D01*
X103577619Y-70847584D02*
X103539524Y-70885680D01*
X103539524Y-70885680D02*
X103463334Y-70923775D01*
X103463334Y-70923775D02*
X103158572Y-70923775D01*
X103158572Y-70923775D02*
X103158572Y-70123775D01*
X103158572Y-70123775D02*
X103425238Y-70123775D01*
X103425238Y-70123775D02*
X103501429Y-70161870D01*
X103501429Y-70161870D02*
X103539524Y-70199965D01*
X103539524Y-70199965D02*
X103577619Y-70276156D01*
X103577619Y-70276156D02*
X103577619Y-70352346D01*
X103577619Y-70352346D02*
X103539524Y-70428537D01*
X103539524Y-70428537D02*
X103501429Y-70466632D01*
X103501429Y-70466632D02*
X103425238Y-70504727D01*
X103425238Y-70504727D02*
X103158572Y-70504727D01*
X103958572Y-70923775D02*
X103958572Y-70123775D01*
X104758571Y-70161870D02*
X104682381Y-70123775D01*
X104682381Y-70123775D02*
X104568095Y-70123775D01*
X104568095Y-70123775D02*
X104453809Y-70161870D01*
X104453809Y-70161870D02*
X104377619Y-70238060D01*
X104377619Y-70238060D02*
X104339524Y-70314251D01*
X104339524Y-70314251D02*
X104301428Y-70466632D01*
X104301428Y-70466632D02*
X104301428Y-70580918D01*
X104301428Y-70580918D02*
X104339524Y-70733299D01*
X104339524Y-70733299D02*
X104377619Y-70809489D01*
X104377619Y-70809489D02*
X104453809Y-70885680D01*
X104453809Y-70885680D02*
X104568095Y-70923775D01*
X104568095Y-70923775D02*
X104644286Y-70923775D01*
X104644286Y-70923775D02*
X104758571Y-70885680D01*
X104758571Y-70885680D02*
X104796667Y-70847584D01*
X104796667Y-70847584D02*
X104796667Y-70580918D01*
X104796667Y-70580918D02*
X104644286Y-70580918D01*
X106015714Y-70504727D02*
X106130000Y-70542822D01*
X106130000Y-70542822D02*
X106168095Y-70580918D01*
X106168095Y-70580918D02*
X106206191Y-70657108D01*
X106206191Y-70657108D02*
X106206191Y-70771394D01*
X106206191Y-70771394D02*
X106168095Y-70847584D01*
X106168095Y-70847584D02*
X106130000Y-70885680D01*
X106130000Y-70885680D02*
X106053810Y-70923775D01*
X106053810Y-70923775D02*
X105749048Y-70923775D01*
X105749048Y-70923775D02*
X105749048Y-70123775D01*
X105749048Y-70123775D02*
X106015714Y-70123775D01*
X106015714Y-70123775D02*
X106091905Y-70161870D01*
X106091905Y-70161870D02*
X106130000Y-70199965D01*
X106130000Y-70199965D02*
X106168095Y-70276156D01*
X106168095Y-70276156D02*
X106168095Y-70352346D01*
X106168095Y-70352346D02*
X106130000Y-70428537D01*
X106130000Y-70428537D02*
X106091905Y-70466632D01*
X106091905Y-70466632D02*
X106015714Y-70504727D01*
X106015714Y-70504727D02*
X105749048Y-70504727D01*
X106549048Y-70123775D02*
X106549048Y-70771394D01*
X106549048Y-70771394D02*
X106587143Y-70847584D01*
X106587143Y-70847584D02*
X106625238Y-70885680D01*
X106625238Y-70885680D02*
X106701429Y-70923775D01*
X106701429Y-70923775D02*
X106853810Y-70923775D01*
X106853810Y-70923775D02*
X106930000Y-70885680D01*
X106930000Y-70885680D02*
X106968095Y-70847584D01*
X106968095Y-70847584D02*
X107006191Y-70771394D01*
X107006191Y-70771394D02*
X107006191Y-70123775D01*
X107272857Y-70123775D02*
X107730000Y-70123775D01*
X107501428Y-70923775D02*
X107501428Y-70123775D01*
X107882381Y-70123775D02*
X108339524Y-70123775D01*
X108110952Y-70923775D02*
X108110952Y-70123775D01*
X108758572Y-70123775D02*
X108910953Y-70123775D01*
X108910953Y-70123775D02*
X108987143Y-70161870D01*
X108987143Y-70161870D02*
X109063334Y-70238060D01*
X109063334Y-70238060D02*
X109101429Y-70390441D01*
X109101429Y-70390441D02*
X109101429Y-70657108D01*
X109101429Y-70657108D02*
X109063334Y-70809489D01*
X109063334Y-70809489D02*
X108987143Y-70885680D01*
X108987143Y-70885680D02*
X108910953Y-70923775D01*
X108910953Y-70923775D02*
X108758572Y-70923775D01*
X108758572Y-70923775D02*
X108682381Y-70885680D01*
X108682381Y-70885680D02*
X108606191Y-70809489D01*
X108606191Y-70809489D02*
X108568095Y-70657108D01*
X108568095Y-70657108D02*
X108568095Y-70390441D01*
X108568095Y-70390441D02*
X108606191Y-70238060D01*
X108606191Y-70238060D02*
X108682381Y-70161870D01*
X108682381Y-70161870D02*
X108758572Y-70123775D01*
X109444286Y-70923775D02*
X109444286Y-70123775D01*
X109444286Y-70123775D02*
X109901429Y-70923775D01*
X109901429Y-70923775D02*
X109901429Y-70123775D01*
X104389523Y-67093775D02*
X104884761Y-67093775D01*
X104884761Y-67093775D02*
X104618095Y-67398537D01*
X104618095Y-67398537D02*
X104732380Y-67398537D01*
X104732380Y-67398537D02*
X104808571Y-67436632D01*
X104808571Y-67436632D02*
X104846666Y-67474727D01*
X104846666Y-67474727D02*
X104884761Y-67550918D01*
X104884761Y-67550918D02*
X104884761Y-67741394D01*
X104884761Y-67741394D02*
X104846666Y-67817584D01*
X104846666Y-67817584D02*
X104808571Y-67855680D01*
X104808571Y-67855680D02*
X104732380Y-67893775D01*
X104732380Y-67893775D02*
X104503809Y-67893775D01*
X104503809Y-67893775D02*
X104427618Y-67855680D01*
X104427618Y-67855680D02*
X104389523Y-67817584D01*
X105113333Y-67093775D02*
X105380000Y-67893775D01*
X105380000Y-67893775D02*
X105646666Y-67093775D01*
X105837142Y-67093775D02*
X106332380Y-67093775D01*
X106332380Y-67093775D02*
X106065714Y-67398537D01*
X106065714Y-67398537D02*
X106179999Y-67398537D01*
X106179999Y-67398537D02*
X106256190Y-67436632D01*
X106256190Y-67436632D02*
X106294285Y-67474727D01*
X106294285Y-67474727D02*
X106332380Y-67550918D01*
X106332380Y-67550918D02*
X106332380Y-67741394D01*
X106332380Y-67741394D02*
X106294285Y-67817584D01*
X106294285Y-67817584D02*
X106256190Y-67855680D01*
X106256190Y-67855680D02*
X106179999Y-67893775D01*
X106179999Y-67893775D02*
X105951428Y-67893775D01*
X105951428Y-67893775D02*
X105875237Y-67855680D01*
X105875237Y-67855680D02*
X105837142Y-67817584D01*
X92158094Y-62855680D02*
X92272380Y-62893775D01*
X92272380Y-62893775D02*
X92462856Y-62893775D01*
X92462856Y-62893775D02*
X92539047Y-62855680D01*
X92539047Y-62855680D02*
X92577142Y-62817584D01*
X92577142Y-62817584D02*
X92615237Y-62741394D01*
X92615237Y-62741394D02*
X92615237Y-62665203D01*
X92615237Y-62665203D02*
X92577142Y-62589013D01*
X92577142Y-62589013D02*
X92539047Y-62550918D01*
X92539047Y-62550918D02*
X92462856Y-62512822D01*
X92462856Y-62512822D02*
X92310475Y-62474727D01*
X92310475Y-62474727D02*
X92234285Y-62436632D01*
X92234285Y-62436632D02*
X92196190Y-62398537D01*
X92196190Y-62398537D02*
X92158094Y-62322346D01*
X92158094Y-62322346D02*
X92158094Y-62246156D01*
X92158094Y-62246156D02*
X92196190Y-62169965D01*
X92196190Y-62169965D02*
X92234285Y-62131870D01*
X92234285Y-62131870D02*
X92310475Y-62093775D01*
X92310475Y-62093775D02*
X92500952Y-62093775D01*
X92500952Y-62093775D02*
X92615237Y-62131870D01*
X92958095Y-62474727D02*
X93224761Y-62474727D01*
X93339047Y-62893775D02*
X92958095Y-62893775D01*
X92958095Y-62893775D02*
X92958095Y-62093775D01*
X92958095Y-62093775D02*
X93339047Y-62093775D01*
X94139048Y-62893775D02*
X93872381Y-62512822D01*
X93681905Y-62893775D02*
X93681905Y-62093775D01*
X93681905Y-62093775D02*
X93986667Y-62093775D01*
X93986667Y-62093775D02*
X94062857Y-62131870D01*
X94062857Y-62131870D02*
X94100952Y-62169965D01*
X94100952Y-62169965D02*
X94139048Y-62246156D01*
X94139048Y-62246156D02*
X94139048Y-62360441D01*
X94139048Y-62360441D02*
X94100952Y-62436632D01*
X94100952Y-62436632D02*
X94062857Y-62474727D01*
X94062857Y-62474727D02*
X93986667Y-62512822D01*
X93986667Y-62512822D02*
X93681905Y-62512822D01*
X94481905Y-62893775D02*
X94481905Y-62093775D01*
X94824761Y-62665203D02*
X95205714Y-62665203D01*
X94748571Y-62893775D02*
X95015238Y-62093775D01*
X95015238Y-62093775D02*
X95281904Y-62893775D01*
X95929523Y-62893775D02*
X95548571Y-62893775D01*
X95548571Y-62893775D02*
X95548571Y-62093775D01*
X96729523Y-62093775D02*
X96919999Y-62893775D01*
X96919999Y-62893775D02*
X97072380Y-62322346D01*
X97072380Y-62322346D02*
X97224761Y-62893775D01*
X97224761Y-62893775D02*
X97415238Y-62093775D01*
X97720000Y-62893775D02*
X97720000Y-62093775D01*
X98558095Y-62893775D02*
X98291428Y-62512822D01*
X98100952Y-62893775D02*
X98100952Y-62093775D01*
X98100952Y-62093775D02*
X98405714Y-62093775D01*
X98405714Y-62093775D02*
X98481904Y-62131870D01*
X98481904Y-62131870D02*
X98519999Y-62169965D01*
X98519999Y-62169965D02*
X98558095Y-62246156D01*
X98558095Y-62246156D02*
X98558095Y-62360441D01*
X98558095Y-62360441D02*
X98519999Y-62436632D01*
X98519999Y-62436632D02*
X98481904Y-62474727D01*
X98481904Y-62474727D02*
X98405714Y-62512822D01*
X98405714Y-62512822D02*
X98100952Y-62512822D01*
X98900952Y-62474727D02*
X99167618Y-62474727D01*
X99281904Y-62893775D02*
X98900952Y-62893775D01*
X98900952Y-62893775D02*
X98900952Y-62093775D01*
X98900952Y-62093775D02*
X99281904Y-62093775D01*
X94193810Y-67817584D02*
X94155714Y-67855680D01*
X94155714Y-67855680D02*
X94041429Y-67893775D01*
X94041429Y-67893775D02*
X93965238Y-67893775D01*
X93965238Y-67893775D02*
X93850952Y-67855680D01*
X93850952Y-67855680D02*
X93774762Y-67779489D01*
X93774762Y-67779489D02*
X93736667Y-67703299D01*
X93736667Y-67703299D02*
X93698571Y-67550918D01*
X93698571Y-67550918D02*
X93698571Y-67436632D01*
X93698571Y-67436632D02*
X93736667Y-67284251D01*
X93736667Y-67284251D02*
X93774762Y-67208060D01*
X93774762Y-67208060D02*
X93850952Y-67131870D01*
X93850952Y-67131870D02*
X93965238Y-67093775D01*
X93965238Y-67093775D02*
X94041429Y-67093775D01*
X94041429Y-67093775D02*
X94155714Y-67131870D01*
X94155714Y-67131870D02*
X94193810Y-67169965D01*
X94917619Y-67893775D02*
X94536667Y-67893775D01*
X94536667Y-67893775D02*
X94536667Y-67093775D01*
X95184286Y-67893775D02*
X95184286Y-67093775D01*
X95641429Y-67893775D02*
X95298571Y-67436632D01*
X95641429Y-67093775D02*
X95184286Y-67550918D01*
X107150476Y-75141870D02*
X107074286Y-75103775D01*
X107074286Y-75103775D02*
X106960000Y-75103775D01*
X106960000Y-75103775D02*
X106845714Y-75141870D01*
X106845714Y-75141870D02*
X106769524Y-75218060D01*
X106769524Y-75218060D02*
X106731429Y-75294251D01*
X106731429Y-75294251D02*
X106693333Y-75446632D01*
X106693333Y-75446632D02*
X106693333Y-75560918D01*
X106693333Y-75560918D02*
X106731429Y-75713299D01*
X106731429Y-75713299D02*
X106769524Y-75789489D01*
X106769524Y-75789489D02*
X106845714Y-75865680D01*
X106845714Y-75865680D02*
X106960000Y-75903775D01*
X106960000Y-75903775D02*
X107036191Y-75903775D01*
X107036191Y-75903775D02*
X107150476Y-75865680D01*
X107150476Y-75865680D02*
X107188572Y-75827584D01*
X107188572Y-75827584D02*
X107188572Y-75560918D01*
X107188572Y-75560918D02*
X107036191Y-75560918D01*
X107531429Y-75903775D02*
X107531429Y-75103775D01*
X107531429Y-75103775D02*
X107988572Y-75903775D01*
X107988572Y-75903775D02*
X107988572Y-75103775D01*
X108369524Y-75903775D02*
X108369524Y-75103775D01*
X108369524Y-75103775D02*
X108560000Y-75103775D01*
X108560000Y-75103775D02*
X108674286Y-75141870D01*
X108674286Y-75141870D02*
X108750476Y-75218060D01*
X108750476Y-75218060D02*
X108788571Y-75294251D01*
X108788571Y-75294251D02*
X108826667Y-75446632D01*
X108826667Y-75446632D02*
X108826667Y-75560918D01*
X108826667Y-75560918D02*
X108788571Y-75713299D01*
X108788571Y-75713299D02*
X108750476Y-75789489D01*
X108750476Y-75789489D02*
X108674286Y-75865680D01*
X108674286Y-75865680D02*
X108560000Y-75903775D01*
X108560000Y-75903775D02*
X108369524Y-75903775D01*
D11*
X88593786Y-101279803D02*
X88593786Y-101937784D01*
X88593786Y-101937784D02*
X88632491Y-102015194D01*
X88632491Y-102015194D02*
X88671196Y-102053899D01*
X88671196Y-102053899D02*
X88748605Y-102092603D01*
X88748605Y-102092603D02*
X88903424Y-102092603D01*
X88903424Y-102092603D02*
X88980834Y-102053899D01*
X88980834Y-102053899D02*
X89019539Y-102015194D01*
X89019539Y-102015194D02*
X89058243Y-101937784D01*
X89058243Y-101937784D02*
X89058243Y-101279803D01*
X89871044Y-102092603D02*
X89406587Y-102092603D01*
X89638815Y-102092603D02*
X89638815Y-101279803D01*
X89638815Y-101279803D02*
X89561406Y-101395918D01*
X89561406Y-101395918D02*
X89483996Y-101473327D01*
X89483996Y-101473327D02*
X89406587Y-101512032D01*
D10*
X96380953Y-67893775D02*
X96380953Y-67093775D01*
X96380953Y-67093775D02*
X96571429Y-67093775D01*
X96571429Y-67093775D02*
X96685715Y-67131870D01*
X96685715Y-67131870D02*
X96761905Y-67208060D01*
X96761905Y-67208060D02*
X96800000Y-67284251D01*
X96800000Y-67284251D02*
X96838096Y-67436632D01*
X96838096Y-67436632D02*
X96838096Y-67550918D01*
X96838096Y-67550918D02*
X96800000Y-67703299D01*
X96800000Y-67703299D02*
X96761905Y-67779489D01*
X96761905Y-67779489D02*
X96685715Y-67855680D01*
X96685715Y-67855680D02*
X96571429Y-67893775D01*
X96571429Y-67893775D02*
X96380953Y-67893775D01*
X97180953Y-67893775D02*
X97180953Y-67093775D01*
X97714286Y-67093775D02*
X97866667Y-67093775D01*
X97866667Y-67093775D02*
X97942857Y-67131870D01*
X97942857Y-67131870D02*
X98019048Y-67208060D01*
X98019048Y-67208060D02*
X98057143Y-67360441D01*
X98057143Y-67360441D02*
X98057143Y-67627108D01*
X98057143Y-67627108D02*
X98019048Y-67779489D01*
X98019048Y-67779489D02*
X97942857Y-67855680D01*
X97942857Y-67855680D02*
X97866667Y-67893775D01*
X97866667Y-67893775D02*
X97714286Y-67893775D01*
X97714286Y-67893775D02*
X97638095Y-67855680D01*
X97638095Y-67855680D02*
X97561905Y-67779489D01*
X97561905Y-67779489D02*
X97523809Y-67627108D01*
X97523809Y-67627108D02*
X97523809Y-67360441D01*
X97523809Y-67360441D02*
X97561905Y-67208060D01*
X97561905Y-67208060D02*
X97638095Y-67131870D01*
X97638095Y-67131870D02*
X97714286Y-67093775D01*
X107030475Y-62093775D02*
X107487618Y-62093775D01*
X107259046Y-62893775D02*
X107259046Y-62093775D01*
X107754285Y-62893775D02*
X107754285Y-62093775D01*
X107754285Y-62093775D02*
X108020951Y-62665203D01*
X108020951Y-62665203D02*
X108287618Y-62093775D01*
X108287618Y-62093775D02*
X108287618Y-62893775D01*
X109087618Y-62893775D02*
X108630475Y-62893775D01*
X108859047Y-62893775D02*
X108859047Y-62093775D01*
X108859047Y-62093775D02*
X108782856Y-62208060D01*
X108782856Y-62208060D02*
X108706666Y-62284251D01*
X108706666Y-62284251D02*
X108630475Y-62322346D01*
X109773333Y-62093775D02*
X109620952Y-62093775D01*
X109620952Y-62093775D02*
X109544761Y-62131870D01*
X109544761Y-62131870D02*
X109506666Y-62169965D01*
X109506666Y-62169965D02*
X109430476Y-62284251D01*
X109430476Y-62284251D02*
X109392380Y-62436632D01*
X109392380Y-62436632D02*
X109392380Y-62741394D01*
X109392380Y-62741394D02*
X109430476Y-62817584D01*
X109430476Y-62817584D02*
X109468571Y-62855680D01*
X109468571Y-62855680D02*
X109544761Y-62893775D01*
X109544761Y-62893775D02*
X109697142Y-62893775D01*
X109697142Y-62893775D02*
X109773333Y-62855680D01*
X109773333Y-62855680D02*
X109811428Y-62817584D01*
X109811428Y-62817584D02*
X109849523Y-62741394D01*
X109849523Y-62741394D02*
X109849523Y-62550918D01*
X109849523Y-62550918D02*
X109811428Y-62474727D01*
X109811428Y-62474727D02*
X109773333Y-62436632D01*
X109773333Y-62436632D02*
X109697142Y-62398537D01*
X109697142Y-62398537D02*
X109544761Y-62398537D01*
X109544761Y-62398537D02*
X109468571Y-62436632D01*
X109468571Y-62436632D02*
X109430476Y-62474727D01*
X109430476Y-62474727D02*
X109392380Y-62550918D01*
X110116190Y-62093775D02*
X110611428Y-62093775D01*
X110611428Y-62093775D02*
X110344762Y-62398537D01*
X110344762Y-62398537D02*
X110459047Y-62398537D01*
X110459047Y-62398537D02*
X110535238Y-62436632D01*
X110535238Y-62436632D02*
X110573333Y-62474727D01*
X110573333Y-62474727D02*
X110611428Y-62550918D01*
X110611428Y-62550918D02*
X110611428Y-62741394D01*
X110611428Y-62741394D02*
X110573333Y-62817584D01*
X110573333Y-62817584D02*
X110535238Y-62855680D01*
X110535238Y-62855680D02*
X110459047Y-62893775D01*
X110459047Y-62893775D02*
X110230476Y-62893775D01*
X110230476Y-62893775D02*
X110154285Y-62855680D01*
X110154285Y-62855680D02*
X110116190Y-62817584D01*
X110878095Y-62093775D02*
X111411429Y-62093775D01*
X111411429Y-62093775D02*
X111068571Y-62893775D01*
X98749523Y-67093775D02*
X99244761Y-67093775D01*
X99244761Y-67093775D02*
X98978095Y-67398537D01*
X98978095Y-67398537D02*
X99092380Y-67398537D01*
X99092380Y-67398537D02*
X99168571Y-67436632D01*
X99168571Y-67436632D02*
X99206666Y-67474727D01*
X99206666Y-67474727D02*
X99244761Y-67550918D01*
X99244761Y-67550918D02*
X99244761Y-67741394D01*
X99244761Y-67741394D02*
X99206666Y-67817584D01*
X99206666Y-67817584D02*
X99168571Y-67855680D01*
X99168571Y-67855680D02*
X99092380Y-67893775D01*
X99092380Y-67893775D02*
X98863809Y-67893775D01*
X98863809Y-67893775D02*
X98787618Y-67855680D01*
X98787618Y-67855680D02*
X98749523Y-67817584D01*
X99473333Y-67093775D02*
X99740000Y-67893775D01*
X99740000Y-67893775D02*
X100006666Y-67093775D01*
X100197142Y-67093775D02*
X100692380Y-67093775D01*
X100692380Y-67093775D02*
X100425714Y-67398537D01*
X100425714Y-67398537D02*
X100539999Y-67398537D01*
X100539999Y-67398537D02*
X100616190Y-67436632D01*
X100616190Y-67436632D02*
X100654285Y-67474727D01*
X100654285Y-67474727D02*
X100692380Y-67550918D01*
X100692380Y-67550918D02*
X100692380Y-67741394D01*
X100692380Y-67741394D02*
X100654285Y-67817584D01*
X100654285Y-67817584D02*
X100616190Y-67855680D01*
X100616190Y-67855680D02*
X100539999Y-67893775D01*
X100539999Y-67893775D02*
X100311428Y-67893775D01*
X100311428Y-67893775D02*
X100235237Y-67855680D01*
X100235237Y-67855680D02*
X100197142Y-67817584D01*
X112430476Y-67131870D02*
X112354286Y-67093775D01*
X112354286Y-67093775D02*
X112240000Y-67093775D01*
X112240000Y-67093775D02*
X112125714Y-67131870D01*
X112125714Y-67131870D02*
X112049524Y-67208060D01*
X112049524Y-67208060D02*
X112011429Y-67284251D01*
X112011429Y-67284251D02*
X111973333Y-67436632D01*
X111973333Y-67436632D02*
X111973333Y-67550918D01*
X111973333Y-67550918D02*
X112011429Y-67703299D01*
X112011429Y-67703299D02*
X112049524Y-67779489D01*
X112049524Y-67779489D02*
X112125714Y-67855680D01*
X112125714Y-67855680D02*
X112240000Y-67893775D01*
X112240000Y-67893775D02*
X112316191Y-67893775D01*
X112316191Y-67893775D02*
X112430476Y-67855680D01*
X112430476Y-67855680D02*
X112468572Y-67817584D01*
X112468572Y-67817584D02*
X112468572Y-67550918D01*
X112468572Y-67550918D02*
X112316191Y-67550918D01*
X112811429Y-67893775D02*
X112811429Y-67093775D01*
X112811429Y-67093775D02*
X113268572Y-67893775D01*
X113268572Y-67893775D02*
X113268572Y-67093775D01*
X113649524Y-67893775D02*
X113649524Y-67093775D01*
X113649524Y-67093775D02*
X113840000Y-67093775D01*
X113840000Y-67093775D02*
X113954286Y-67131870D01*
X113954286Y-67131870D02*
X114030476Y-67208060D01*
X114030476Y-67208060D02*
X114068571Y-67284251D01*
X114068571Y-67284251D02*
X114106667Y-67436632D01*
X114106667Y-67436632D02*
X114106667Y-67550918D01*
X114106667Y-67550918D02*
X114068571Y-67703299D01*
X114068571Y-67703299D02*
X114030476Y-67779489D01*
X114030476Y-67779489D02*
X113954286Y-67855680D01*
X113954286Y-67855680D02*
X113840000Y-67893775D01*
X113840000Y-67893775D02*
X113649524Y-67893775D01*
X91390476Y-67131870D02*
X91314286Y-67093775D01*
X91314286Y-67093775D02*
X91200000Y-67093775D01*
X91200000Y-67093775D02*
X91085714Y-67131870D01*
X91085714Y-67131870D02*
X91009524Y-67208060D01*
X91009524Y-67208060D02*
X90971429Y-67284251D01*
X90971429Y-67284251D02*
X90933333Y-67436632D01*
X90933333Y-67436632D02*
X90933333Y-67550918D01*
X90933333Y-67550918D02*
X90971429Y-67703299D01*
X90971429Y-67703299D02*
X91009524Y-67779489D01*
X91009524Y-67779489D02*
X91085714Y-67855680D01*
X91085714Y-67855680D02*
X91200000Y-67893775D01*
X91200000Y-67893775D02*
X91276191Y-67893775D01*
X91276191Y-67893775D02*
X91390476Y-67855680D01*
X91390476Y-67855680D02*
X91428572Y-67817584D01*
X91428572Y-67817584D02*
X91428572Y-67550918D01*
X91428572Y-67550918D02*
X91276191Y-67550918D01*
X91771429Y-67893775D02*
X91771429Y-67093775D01*
X91771429Y-67093775D02*
X92228572Y-67893775D01*
X92228572Y-67893775D02*
X92228572Y-67093775D01*
X92609524Y-67893775D02*
X92609524Y-67093775D01*
X92609524Y-67093775D02*
X92800000Y-67093775D01*
X92800000Y-67093775D02*
X92914286Y-67131870D01*
X92914286Y-67131870D02*
X92990476Y-67208060D01*
X92990476Y-67208060D02*
X93028571Y-67284251D01*
X93028571Y-67284251D02*
X93066667Y-67436632D01*
X93066667Y-67436632D02*
X93066667Y-67550918D01*
X93066667Y-67550918D02*
X93028571Y-67703299D01*
X93028571Y-67703299D02*
X92990476Y-67779489D01*
X92990476Y-67779489D02*
X92914286Y-67855680D01*
X92914286Y-67855680D02*
X92800000Y-67893775D01*
X92800000Y-67893775D02*
X92609524Y-67893775D01*
D12*
X83014950Y-91829529D02*
X82202150Y-91829529D01*
X82202150Y-91829529D02*
X82782722Y-91558595D01*
X82782722Y-91558595D02*
X82202150Y-91287662D01*
X82202150Y-91287662D02*
X83014950Y-91287662D01*
X83014950Y-90552272D02*
X82589198Y-90552272D01*
X82589198Y-90552272D02*
X82511788Y-90590977D01*
X82511788Y-90590977D02*
X82473084Y-90668386D01*
X82473084Y-90668386D02*
X82473084Y-90823205D01*
X82473084Y-90823205D02*
X82511788Y-90900615D01*
X82976246Y-90552272D02*
X83014950Y-90629681D01*
X83014950Y-90629681D02*
X83014950Y-90823205D01*
X83014950Y-90823205D02*
X82976246Y-90900615D01*
X82976246Y-90900615D02*
X82898836Y-90939319D01*
X82898836Y-90939319D02*
X82821426Y-90939319D01*
X82821426Y-90939319D02*
X82744017Y-90900615D01*
X82744017Y-90900615D02*
X82705312Y-90823205D01*
X82705312Y-90823205D02*
X82705312Y-90629681D01*
X82705312Y-90629681D02*
X82666607Y-90552272D01*
X83014950Y-89816882D02*
X82202150Y-89816882D01*
X82976246Y-89816882D02*
X83014950Y-89894291D01*
X83014950Y-89894291D02*
X83014950Y-90049110D01*
X83014950Y-90049110D02*
X82976246Y-90126520D01*
X82976246Y-90126520D02*
X82937541Y-90165225D01*
X82937541Y-90165225D02*
X82860131Y-90203929D01*
X82860131Y-90203929D02*
X82627903Y-90203929D01*
X82627903Y-90203929D02*
X82550493Y-90165225D01*
X82550493Y-90165225D02*
X82511788Y-90126520D01*
X82511788Y-90126520D02*
X82473084Y-90049110D01*
X82473084Y-90049110D02*
X82473084Y-89894291D01*
X82473084Y-89894291D02*
X82511788Y-89816882D01*
X82976246Y-89120197D02*
X83014950Y-89197606D01*
X83014950Y-89197606D02*
X83014950Y-89352425D01*
X83014950Y-89352425D02*
X82976246Y-89429835D01*
X82976246Y-89429835D02*
X82898836Y-89468539D01*
X82898836Y-89468539D02*
X82589198Y-89468539D01*
X82589198Y-89468539D02*
X82511788Y-89429835D01*
X82511788Y-89429835D02*
X82473084Y-89352425D01*
X82473084Y-89352425D02*
X82473084Y-89197606D01*
X82473084Y-89197606D02*
X82511788Y-89120197D01*
X82511788Y-89120197D02*
X82589198Y-89081492D01*
X82589198Y-89081492D02*
X82666607Y-89081492D01*
X82666607Y-89081492D02*
X82744017Y-89468539D01*
X83014950Y-88113873D02*
X82202150Y-88113873D01*
X82511788Y-88113873D02*
X82473084Y-88036463D01*
X82473084Y-88036463D02*
X82473084Y-87881644D01*
X82473084Y-87881644D02*
X82511788Y-87804235D01*
X82511788Y-87804235D02*
X82550493Y-87765530D01*
X82550493Y-87765530D02*
X82627903Y-87726825D01*
X82627903Y-87726825D02*
X82860131Y-87726825D01*
X82860131Y-87726825D02*
X82937541Y-87765530D01*
X82937541Y-87765530D02*
X82976246Y-87804235D01*
X82976246Y-87804235D02*
X83014950Y-87881644D01*
X83014950Y-87881644D02*
X83014950Y-88036463D01*
X83014950Y-88036463D02*
X82976246Y-88113873D01*
X82473084Y-87455892D02*
X83014950Y-87262368D01*
X82473084Y-87068845D02*
X83014950Y-87262368D01*
X83014950Y-87262368D02*
X83208474Y-87339778D01*
X83208474Y-87339778D02*
X83247179Y-87378483D01*
X83247179Y-87378483D02*
X83285884Y-87455892D01*
X83014950Y-86139931D02*
X82202150Y-86139931D01*
X83014950Y-85675474D02*
X82550493Y-86023816D01*
X82202150Y-85675474D02*
X82666607Y-86139931D01*
X83014950Y-85327131D02*
X82473084Y-85327131D01*
X82627903Y-85327131D02*
X82550493Y-85288426D01*
X82550493Y-85288426D02*
X82511788Y-85249721D01*
X82511788Y-85249721D02*
X82473084Y-85172312D01*
X82473084Y-85172312D02*
X82473084Y-85094902D01*
X82473084Y-84901378D02*
X82473084Y-84475626D01*
X82473084Y-84475626D02*
X83014950Y-84901378D01*
X83014950Y-84901378D02*
X83014950Y-84475626D01*
X82473084Y-84243397D02*
X83014950Y-84049873D01*
X82473084Y-83856350D02*
X83014950Y-84049873D01*
X83014950Y-84049873D02*
X83208474Y-84127283D01*
X83208474Y-84127283D02*
X83247179Y-84165988D01*
X83247179Y-84165988D02*
X83285884Y-84243397D01*
X82976246Y-83585416D02*
X83014950Y-83508007D01*
X83014950Y-83508007D02*
X83014950Y-83353188D01*
X83014950Y-83353188D02*
X82976246Y-83275778D01*
X82976246Y-83275778D02*
X82898836Y-83237074D01*
X82898836Y-83237074D02*
X82860131Y-83237074D01*
X82860131Y-83237074D02*
X82782722Y-83275778D01*
X82782722Y-83275778D02*
X82744017Y-83353188D01*
X82744017Y-83353188D02*
X82744017Y-83469302D01*
X82744017Y-83469302D02*
X82705312Y-83546712D01*
X82705312Y-83546712D02*
X82627903Y-83585416D01*
X82627903Y-83585416D02*
X82589198Y-83585416D01*
X82589198Y-83585416D02*
X82511788Y-83546712D01*
X82511788Y-83546712D02*
X82473084Y-83469302D01*
X82473084Y-83469302D02*
X82473084Y-83353188D01*
X82473084Y-83353188D02*
X82511788Y-83275778D01*
X82473084Y-82966140D02*
X82473084Y-82540388D01*
X82473084Y-82540388D02*
X83014950Y-82966140D01*
X83014950Y-82966140D02*
X83014950Y-82540388D01*
X82473084Y-82346864D02*
X82473084Y-82037226D01*
X82202150Y-82230750D02*
X82898836Y-82230750D01*
X82898836Y-82230750D02*
X82976246Y-82192045D01*
X82976246Y-82192045D02*
X83014950Y-82114635D01*
X83014950Y-82114635D02*
X83014950Y-82037226D01*
X83014950Y-81650178D02*
X82976246Y-81727588D01*
X82976246Y-81727588D02*
X82937541Y-81766293D01*
X82937541Y-81766293D02*
X82860131Y-81804997D01*
X82860131Y-81804997D02*
X82627903Y-81804997D01*
X82627903Y-81804997D02*
X82550493Y-81766293D01*
X82550493Y-81766293D02*
X82511788Y-81727588D01*
X82511788Y-81727588D02*
X82473084Y-81650178D01*
X82473084Y-81650178D02*
X82473084Y-81534064D01*
X82473084Y-81534064D02*
X82511788Y-81456655D01*
X82511788Y-81456655D02*
X82550493Y-81417950D01*
X82550493Y-81417950D02*
X82627903Y-81379245D01*
X82627903Y-81379245D02*
X82860131Y-81379245D01*
X82860131Y-81379245D02*
X82937541Y-81417950D01*
X82937541Y-81417950D02*
X82976246Y-81456655D01*
X82976246Y-81456655D02*
X83014950Y-81534064D01*
X83014950Y-81534064D02*
X83014950Y-81650178D01*
X82473084Y-81147017D02*
X82473084Y-80837379D01*
X83014950Y-81030903D02*
X82318265Y-81030903D01*
X82318265Y-81030903D02*
X82240855Y-80992198D01*
X82240855Y-80992198D02*
X82202150Y-80914788D01*
X82202150Y-80914788D02*
X82202150Y-80837379D01*
X82937541Y-79482713D02*
X82976246Y-79521417D01*
X82976246Y-79521417D02*
X83014950Y-79637532D01*
X83014950Y-79637532D02*
X83014950Y-79714941D01*
X83014950Y-79714941D02*
X82976246Y-79831055D01*
X82976246Y-79831055D02*
X82898836Y-79908465D01*
X82898836Y-79908465D02*
X82821426Y-79947170D01*
X82821426Y-79947170D02*
X82666607Y-79985874D01*
X82666607Y-79985874D02*
X82550493Y-79985874D01*
X82550493Y-79985874D02*
X82395674Y-79947170D01*
X82395674Y-79947170D02*
X82318265Y-79908465D01*
X82318265Y-79908465D02*
X82240855Y-79831055D01*
X82240855Y-79831055D02*
X82202150Y-79714941D01*
X82202150Y-79714941D02*
X82202150Y-79637532D01*
X82202150Y-79637532D02*
X82240855Y-79521417D01*
X82240855Y-79521417D02*
X82279560Y-79482713D01*
X83014950Y-78786027D02*
X82589198Y-78786027D01*
X82589198Y-78786027D02*
X82511788Y-78824732D01*
X82511788Y-78824732D02*
X82473084Y-78902141D01*
X82473084Y-78902141D02*
X82473084Y-79056960D01*
X82473084Y-79056960D02*
X82511788Y-79134370D01*
X82976246Y-78786027D02*
X83014950Y-78863436D01*
X83014950Y-78863436D02*
X83014950Y-79056960D01*
X83014950Y-79056960D02*
X82976246Y-79134370D01*
X82976246Y-79134370D02*
X82898836Y-79173074D01*
X82898836Y-79173074D02*
X82821426Y-79173074D01*
X82821426Y-79173074D02*
X82744017Y-79134370D01*
X82744017Y-79134370D02*
X82705312Y-79056960D01*
X82705312Y-79056960D02*
X82705312Y-78863436D01*
X82705312Y-78863436D02*
X82666607Y-78786027D01*
X82473084Y-78398980D02*
X83169769Y-78398980D01*
X83169769Y-78398980D02*
X83247179Y-78437684D01*
X83247179Y-78437684D02*
X83285884Y-78515094D01*
X83285884Y-78515094D02*
X83285884Y-78553799D01*
X82202150Y-78398980D02*
X82240855Y-78437684D01*
X82240855Y-78437684D02*
X82279560Y-78398980D01*
X82279560Y-78398980D02*
X82240855Y-78360275D01*
X82240855Y-78360275D02*
X82202150Y-78398980D01*
X82202150Y-78398980D02*
X82279560Y-78398980D01*
X83014950Y-77895817D02*
X82976246Y-77973227D01*
X82976246Y-77973227D02*
X82898836Y-78011932D01*
X82898836Y-78011932D02*
X82202150Y-78011932D01*
X82976246Y-77276542D02*
X83014950Y-77353951D01*
X83014950Y-77353951D02*
X83014950Y-77508770D01*
X83014950Y-77508770D02*
X82976246Y-77586180D01*
X82976246Y-77586180D02*
X82898836Y-77624884D01*
X82898836Y-77624884D02*
X82589198Y-77624884D01*
X82589198Y-77624884D02*
X82511788Y-77586180D01*
X82511788Y-77586180D02*
X82473084Y-77508770D01*
X82473084Y-77508770D02*
X82473084Y-77353951D01*
X82473084Y-77353951D02*
X82511788Y-77276542D01*
X82511788Y-77276542D02*
X82589198Y-77237837D01*
X82589198Y-77237837D02*
X82666607Y-77237837D01*
X82666607Y-77237837D02*
X82744017Y-77624884D01*
X83014950Y-76889494D02*
X82473084Y-76889494D01*
X82627903Y-76889494D02*
X82550493Y-76850789D01*
X82550493Y-76850789D02*
X82511788Y-76812084D01*
X82511788Y-76812084D02*
X82473084Y-76734675D01*
X82473084Y-76734675D02*
X82473084Y-76657265D01*
X83781646Y-91481186D02*
X84439627Y-91481186D01*
X84439627Y-91481186D02*
X84517036Y-91519891D01*
X84517036Y-91519891D02*
X84555741Y-91558595D01*
X84555741Y-91558595D02*
X84594446Y-91636005D01*
X84594446Y-91636005D02*
X84594446Y-91752119D01*
X84594446Y-91752119D02*
X84555741Y-91829529D01*
X84284808Y-91481186D02*
X84323512Y-91558595D01*
X84323512Y-91558595D02*
X84323512Y-91713414D01*
X84323512Y-91713414D02*
X84284808Y-91790824D01*
X84284808Y-91790824D02*
X84246103Y-91829529D01*
X84246103Y-91829529D02*
X84168693Y-91868233D01*
X84168693Y-91868233D02*
X83936465Y-91868233D01*
X83936465Y-91868233D02*
X83859055Y-91829529D01*
X83859055Y-91829529D02*
X83820350Y-91790824D01*
X83820350Y-91790824D02*
X83781646Y-91713414D01*
X83781646Y-91713414D02*
X83781646Y-91558595D01*
X83781646Y-91558595D02*
X83820350Y-91481186D01*
X84323512Y-91094139D02*
X83781646Y-91094139D01*
X83510712Y-91094139D02*
X83549417Y-91132843D01*
X83549417Y-91132843D02*
X83588122Y-91094139D01*
X83588122Y-91094139D02*
X83549417Y-91055434D01*
X83549417Y-91055434D02*
X83510712Y-91094139D01*
X83510712Y-91094139D02*
X83588122Y-91094139D01*
X83781646Y-90823205D02*
X83781646Y-90513567D01*
X83510712Y-90707091D02*
X84207398Y-90707091D01*
X84207398Y-90707091D02*
X84284808Y-90668386D01*
X84284808Y-90668386D02*
X84323512Y-90590976D01*
X84323512Y-90590976D02*
X84323512Y-90513567D01*
X84323512Y-90242634D02*
X83510712Y-90242634D01*
X84323512Y-89894291D02*
X83897760Y-89894291D01*
X83897760Y-89894291D02*
X83820350Y-89932996D01*
X83820350Y-89932996D02*
X83781646Y-90010405D01*
X83781646Y-90010405D02*
X83781646Y-90126519D01*
X83781646Y-90126519D02*
X83820350Y-90203929D01*
X83820350Y-90203929D02*
X83859055Y-90242634D01*
X83781646Y-89158901D02*
X84323512Y-89158901D01*
X83781646Y-89507244D02*
X84207398Y-89507244D01*
X84207398Y-89507244D02*
X84284808Y-89468539D01*
X84284808Y-89468539D02*
X84323512Y-89391129D01*
X84323512Y-89391129D02*
X84323512Y-89275015D01*
X84323512Y-89275015D02*
X84284808Y-89197606D01*
X84284808Y-89197606D02*
X84246103Y-89158901D01*
X84323512Y-88771854D02*
X83510712Y-88771854D01*
X83820350Y-88771854D02*
X83781646Y-88694444D01*
X83781646Y-88694444D02*
X83781646Y-88539625D01*
X83781646Y-88539625D02*
X83820350Y-88462216D01*
X83820350Y-88462216D02*
X83859055Y-88423511D01*
X83859055Y-88423511D02*
X83936465Y-88384806D01*
X83936465Y-88384806D02*
X84168693Y-88384806D01*
X84168693Y-88384806D02*
X84246103Y-88423511D01*
X84246103Y-88423511D02*
X84284808Y-88462216D01*
X84284808Y-88462216D02*
X84323512Y-88539625D01*
X84323512Y-88539625D02*
X84323512Y-88694444D01*
X84323512Y-88694444D02*
X84284808Y-88771854D01*
X84246103Y-88036464D02*
X84284808Y-87997759D01*
X84284808Y-87997759D02*
X84323512Y-88036464D01*
X84323512Y-88036464D02*
X84284808Y-88075168D01*
X84284808Y-88075168D02*
X84246103Y-88036464D01*
X84246103Y-88036464D02*
X84323512Y-88036464D01*
X84284808Y-87301073D02*
X84323512Y-87378482D01*
X84323512Y-87378482D02*
X84323512Y-87533301D01*
X84323512Y-87533301D02*
X84284808Y-87610711D01*
X84284808Y-87610711D02*
X84246103Y-87649416D01*
X84246103Y-87649416D02*
X84168693Y-87688120D01*
X84168693Y-87688120D02*
X83936465Y-87688120D01*
X83936465Y-87688120D02*
X83859055Y-87649416D01*
X83859055Y-87649416D02*
X83820350Y-87610711D01*
X83820350Y-87610711D02*
X83781646Y-87533301D01*
X83781646Y-87533301D02*
X83781646Y-87378482D01*
X83781646Y-87378482D02*
X83820350Y-87301073D01*
X84323512Y-86836615D02*
X84284808Y-86914025D01*
X84284808Y-86914025D02*
X84246103Y-86952730D01*
X84246103Y-86952730D02*
X84168693Y-86991434D01*
X84168693Y-86991434D02*
X83936465Y-86991434D01*
X83936465Y-86991434D02*
X83859055Y-86952730D01*
X83859055Y-86952730D02*
X83820350Y-86914025D01*
X83820350Y-86914025D02*
X83781646Y-86836615D01*
X83781646Y-86836615D02*
X83781646Y-86720501D01*
X83781646Y-86720501D02*
X83820350Y-86643092D01*
X83820350Y-86643092D02*
X83859055Y-86604387D01*
X83859055Y-86604387D02*
X83936465Y-86565682D01*
X83936465Y-86565682D02*
X84168693Y-86565682D01*
X84168693Y-86565682D02*
X84246103Y-86604387D01*
X84246103Y-86604387D02*
X84284808Y-86643092D01*
X84284808Y-86643092D02*
X84323512Y-86720501D01*
X84323512Y-86720501D02*
X84323512Y-86836615D01*
X84323512Y-86217340D02*
X83781646Y-86217340D01*
X83859055Y-86217340D02*
X83820350Y-86178635D01*
X83820350Y-86178635D02*
X83781646Y-86101225D01*
X83781646Y-86101225D02*
X83781646Y-85985111D01*
X83781646Y-85985111D02*
X83820350Y-85907702D01*
X83820350Y-85907702D02*
X83897760Y-85868997D01*
X83897760Y-85868997D02*
X84323512Y-85868997D01*
X83897760Y-85868997D02*
X83820350Y-85830292D01*
X83820350Y-85830292D02*
X83781646Y-85752883D01*
X83781646Y-85752883D02*
X83781646Y-85636768D01*
X83781646Y-85636768D02*
X83820350Y-85559359D01*
X83820350Y-85559359D02*
X83897760Y-85520654D01*
X83897760Y-85520654D02*
X84323512Y-85520654D01*
X83472008Y-84553035D02*
X84517036Y-85249721D01*
X84323512Y-84282102D02*
X83510712Y-84282102D01*
X84323512Y-83817645D02*
X83859055Y-84165987D01*
X83510712Y-83817645D02*
X83975169Y-84282102D01*
X84323512Y-83469302D02*
X83781646Y-83469302D01*
X83936465Y-83469302D02*
X83859055Y-83430597D01*
X83859055Y-83430597D02*
X83820350Y-83391892D01*
X83820350Y-83391892D02*
X83781646Y-83314483D01*
X83781646Y-83314483D02*
X83781646Y-83237073D01*
X84323512Y-82966140D02*
X83781646Y-82966140D01*
X83510712Y-82966140D02*
X83549417Y-83004844D01*
X83549417Y-83004844D02*
X83588122Y-82966140D01*
X83588122Y-82966140D02*
X83549417Y-82927435D01*
X83549417Y-82927435D02*
X83510712Y-82966140D01*
X83510712Y-82966140D02*
X83588122Y-82966140D01*
X84284808Y-82617796D02*
X84323512Y-82540387D01*
X84323512Y-82540387D02*
X84323512Y-82385568D01*
X84323512Y-82385568D02*
X84284808Y-82308158D01*
X84284808Y-82308158D02*
X84207398Y-82269454D01*
X84207398Y-82269454D02*
X84168693Y-82269454D01*
X84168693Y-82269454D02*
X84091284Y-82308158D01*
X84091284Y-82308158D02*
X84052579Y-82385568D01*
X84052579Y-82385568D02*
X84052579Y-82501682D01*
X84052579Y-82501682D02*
X84013874Y-82579092D01*
X84013874Y-82579092D02*
X83936465Y-82617796D01*
X83936465Y-82617796D02*
X83897760Y-82617796D01*
X83897760Y-82617796D02*
X83820350Y-82579092D01*
X83820350Y-82579092D02*
X83781646Y-82501682D01*
X83781646Y-82501682D02*
X83781646Y-82385568D01*
X83781646Y-82385568D02*
X83820350Y-82308158D01*
X84284808Y-81959815D02*
X84323512Y-81882406D01*
X84323512Y-81882406D02*
X84323512Y-81727587D01*
X84323512Y-81727587D02*
X84284808Y-81650177D01*
X84284808Y-81650177D02*
X84207398Y-81611473D01*
X84207398Y-81611473D02*
X84168693Y-81611473D01*
X84168693Y-81611473D02*
X84091284Y-81650177D01*
X84091284Y-81650177D02*
X84052579Y-81727587D01*
X84052579Y-81727587D02*
X84052579Y-81843701D01*
X84052579Y-81843701D02*
X84013874Y-81921111D01*
X84013874Y-81921111D02*
X83936465Y-81959815D01*
X83936465Y-81959815D02*
X83897760Y-81959815D01*
X83897760Y-81959815D02*
X83820350Y-81921111D01*
X83820350Y-81921111D02*
X83781646Y-81843701D01*
X83781646Y-81843701D02*
X83781646Y-81727587D01*
X83781646Y-81727587D02*
X83820350Y-81650177D01*
X84284808Y-81301834D02*
X84323512Y-81224425D01*
X84323512Y-81224425D02*
X84323512Y-81069606D01*
X84323512Y-81069606D02*
X84284808Y-80992196D01*
X84284808Y-80992196D02*
X84207398Y-80953492D01*
X84207398Y-80953492D02*
X84168693Y-80953492D01*
X84168693Y-80953492D02*
X84091284Y-80992196D01*
X84091284Y-80992196D02*
X84052579Y-81069606D01*
X84052579Y-81069606D02*
X84052579Y-81185720D01*
X84052579Y-81185720D02*
X84013874Y-81263130D01*
X84013874Y-81263130D02*
X83936465Y-81301834D01*
X83936465Y-81301834D02*
X83897760Y-81301834D01*
X83897760Y-81301834D02*
X83820350Y-81263130D01*
X83820350Y-81263130D02*
X83781646Y-81185720D01*
X83781646Y-81185720D02*
X83781646Y-81069606D01*
X83781646Y-81069606D02*
X83820350Y-80992196D01*
X84323512Y-80566444D02*
X84323512Y-80411625D01*
X84323512Y-80411625D02*
X84284808Y-80334215D01*
X84284808Y-80334215D02*
X84246103Y-80295511D01*
X84246103Y-80295511D02*
X84129988Y-80218101D01*
X84129988Y-80218101D02*
X83975169Y-80179396D01*
X83975169Y-80179396D02*
X83665531Y-80179396D01*
X83665531Y-80179396D02*
X83588122Y-80218101D01*
X83588122Y-80218101D02*
X83549417Y-80256806D01*
X83549417Y-80256806D02*
X83510712Y-80334215D01*
X83510712Y-80334215D02*
X83510712Y-80489034D01*
X83510712Y-80489034D02*
X83549417Y-80566444D01*
X83549417Y-80566444D02*
X83588122Y-80605149D01*
X83588122Y-80605149D02*
X83665531Y-80643853D01*
X83665531Y-80643853D02*
X83859055Y-80643853D01*
X83859055Y-80643853D02*
X83936465Y-80605149D01*
X83936465Y-80605149D02*
X83975169Y-80566444D01*
X83975169Y-80566444D02*
X84013874Y-80489034D01*
X84013874Y-80489034D02*
X84013874Y-80334215D01*
X84013874Y-80334215D02*
X83975169Y-80256806D01*
X83975169Y-80256806D02*
X83936465Y-80218101D01*
X83936465Y-80218101D02*
X83859055Y-80179396D01*
X84323512Y-79792349D02*
X84323512Y-79637530D01*
X84323512Y-79637530D02*
X84284808Y-79560120D01*
X84284808Y-79560120D02*
X84246103Y-79521416D01*
X84246103Y-79521416D02*
X84129988Y-79444006D01*
X84129988Y-79444006D02*
X83975169Y-79405301D01*
X83975169Y-79405301D02*
X83665531Y-79405301D01*
X83665531Y-79405301D02*
X83588122Y-79444006D01*
X83588122Y-79444006D02*
X83549417Y-79482711D01*
X83549417Y-79482711D02*
X83510712Y-79560120D01*
X83510712Y-79560120D02*
X83510712Y-79714939D01*
X83510712Y-79714939D02*
X83549417Y-79792349D01*
X83549417Y-79792349D02*
X83588122Y-79831054D01*
X83588122Y-79831054D02*
X83665531Y-79869758D01*
X83665531Y-79869758D02*
X83859055Y-79869758D01*
X83859055Y-79869758D02*
X83936465Y-79831054D01*
X83936465Y-79831054D02*
X83975169Y-79792349D01*
X83975169Y-79792349D02*
X84013874Y-79714939D01*
X84013874Y-79714939D02*
X84013874Y-79560120D01*
X84013874Y-79560120D02*
X83975169Y-79482711D01*
X83975169Y-79482711D02*
X83936465Y-79444006D01*
X83936465Y-79444006D02*
X83859055Y-79405301D01*
X83472008Y-78476387D02*
X84517036Y-79173073D01*
X83781646Y-77857111D02*
X84439627Y-77857111D01*
X84439627Y-77857111D02*
X84517036Y-77895816D01*
X84517036Y-77895816D02*
X84555741Y-77934520D01*
X84555741Y-77934520D02*
X84594446Y-78011930D01*
X84594446Y-78011930D02*
X84594446Y-78128044D01*
X84594446Y-78128044D02*
X84555741Y-78205454D01*
X84284808Y-77857111D02*
X84323512Y-77934520D01*
X84323512Y-77934520D02*
X84323512Y-78089339D01*
X84323512Y-78089339D02*
X84284808Y-78166749D01*
X84284808Y-78166749D02*
X84246103Y-78205454D01*
X84246103Y-78205454D02*
X84168693Y-78244158D01*
X84168693Y-78244158D02*
X83936465Y-78244158D01*
X83936465Y-78244158D02*
X83859055Y-78205454D01*
X83859055Y-78205454D02*
X83820350Y-78166749D01*
X83820350Y-78166749D02*
X83781646Y-78089339D01*
X83781646Y-78089339D02*
X83781646Y-77934520D01*
X83781646Y-77934520D02*
X83820350Y-77857111D01*
X84323512Y-77121721D02*
X83897760Y-77121721D01*
X83897760Y-77121721D02*
X83820350Y-77160426D01*
X83820350Y-77160426D02*
X83781646Y-77237835D01*
X83781646Y-77237835D02*
X83781646Y-77392654D01*
X83781646Y-77392654D02*
X83820350Y-77470064D01*
X84284808Y-77121721D02*
X84323512Y-77199130D01*
X84323512Y-77199130D02*
X84323512Y-77392654D01*
X84323512Y-77392654D02*
X84284808Y-77470064D01*
X84284808Y-77470064D02*
X84207398Y-77508768D01*
X84207398Y-77508768D02*
X84129988Y-77508768D01*
X84129988Y-77508768D02*
X84052579Y-77470064D01*
X84052579Y-77470064D02*
X84013874Y-77392654D01*
X84013874Y-77392654D02*
X84013874Y-77199130D01*
X84013874Y-77199130D02*
X83975169Y-77121721D01*
X84323512Y-76734674D02*
X83781646Y-76734674D01*
X83859055Y-76734674D02*
X83820350Y-76695969D01*
X83820350Y-76695969D02*
X83781646Y-76618559D01*
X83781646Y-76618559D02*
X83781646Y-76502445D01*
X83781646Y-76502445D02*
X83820350Y-76425036D01*
X83820350Y-76425036D02*
X83897760Y-76386331D01*
X83897760Y-76386331D02*
X84323512Y-76386331D01*
X83897760Y-76386331D02*
X83820350Y-76347626D01*
X83820350Y-76347626D02*
X83781646Y-76270217D01*
X83781646Y-76270217D02*
X83781646Y-76154102D01*
X83781646Y-76154102D02*
X83820350Y-76076693D01*
X83820350Y-76076693D02*
X83897760Y-76037988D01*
X83897760Y-76037988D02*
X84323512Y-76037988D01*
X84284808Y-75341303D02*
X84323512Y-75418712D01*
X84323512Y-75418712D02*
X84323512Y-75573531D01*
X84323512Y-75573531D02*
X84284808Y-75650941D01*
X84284808Y-75650941D02*
X84207398Y-75689645D01*
X84207398Y-75689645D02*
X83897760Y-75689645D01*
X83897760Y-75689645D02*
X83820350Y-75650941D01*
X83820350Y-75650941D02*
X83781646Y-75573531D01*
X83781646Y-75573531D02*
X83781646Y-75418712D01*
X83781646Y-75418712D02*
X83820350Y-75341303D01*
X83820350Y-75341303D02*
X83897760Y-75302598D01*
X83897760Y-75302598D02*
X83975169Y-75302598D01*
X83975169Y-75302598D02*
X84052579Y-75689645D01*
X84013874Y-74954255D02*
X84013874Y-74334979D01*
X84323512Y-73947931D02*
X83510712Y-73947931D01*
X83820350Y-73947931D02*
X83781646Y-73870521D01*
X83781646Y-73870521D02*
X83781646Y-73715702D01*
X83781646Y-73715702D02*
X83820350Y-73638293D01*
X83820350Y-73638293D02*
X83859055Y-73599588D01*
X83859055Y-73599588D02*
X83936465Y-73560883D01*
X83936465Y-73560883D02*
X84168693Y-73560883D01*
X84168693Y-73560883D02*
X84246103Y-73599588D01*
X84246103Y-73599588D02*
X84284808Y-73638293D01*
X84284808Y-73638293D02*
X84323512Y-73715702D01*
X84323512Y-73715702D02*
X84323512Y-73870521D01*
X84323512Y-73870521D02*
X84284808Y-73947931D01*
X84323512Y-73096426D02*
X84284808Y-73173836D01*
X84284808Y-73173836D02*
X84246103Y-73212541D01*
X84246103Y-73212541D02*
X84168693Y-73251245D01*
X84168693Y-73251245D02*
X83936465Y-73251245D01*
X83936465Y-73251245D02*
X83859055Y-73212541D01*
X83859055Y-73212541D02*
X83820350Y-73173836D01*
X83820350Y-73173836D02*
X83781646Y-73096426D01*
X83781646Y-73096426D02*
X83781646Y-72980312D01*
X83781646Y-72980312D02*
X83820350Y-72902903D01*
X83820350Y-72902903D02*
X83859055Y-72864198D01*
X83859055Y-72864198D02*
X83936465Y-72825493D01*
X83936465Y-72825493D02*
X84168693Y-72825493D01*
X84168693Y-72825493D02*
X84246103Y-72864198D01*
X84246103Y-72864198D02*
X84284808Y-72902903D01*
X84284808Y-72902903D02*
X84323512Y-72980312D01*
X84323512Y-72980312D02*
X84323512Y-73096426D01*
X84323512Y-72128808D02*
X83897760Y-72128808D01*
X83897760Y-72128808D02*
X83820350Y-72167513D01*
X83820350Y-72167513D02*
X83781646Y-72244922D01*
X83781646Y-72244922D02*
X83781646Y-72399741D01*
X83781646Y-72399741D02*
X83820350Y-72477151D01*
X84284808Y-72128808D02*
X84323512Y-72206217D01*
X84323512Y-72206217D02*
X84323512Y-72399741D01*
X84323512Y-72399741D02*
X84284808Y-72477151D01*
X84284808Y-72477151D02*
X84207398Y-72515855D01*
X84207398Y-72515855D02*
X84129988Y-72515855D01*
X84129988Y-72515855D02*
X84052579Y-72477151D01*
X84052579Y-72477151D02*
X84013874Y-72399741D01*
X84013874Y-72399741D02*
X84013874Y-72206217D01*
X84013874Y-72206217D02*
X83975169Y-72128808D01*
X84323512Y-71741761D02*
X83781646Y-71741761D01*
X83936465Y-71741761D02*
X83859055Y-71703056D01*
X83859055Y-71703056D02*
X83820350Y-71664351D01*
X83820350Y-71664351D02*
X83781646Y-71586942D01*
X83781646Y-71586942D02*
X83781646Y-71509532D01*
X84323512Y-70890256D02*
X83510712Y-70890256D01*
X84284808Y-70890256D02*
X84323512Y-70967665D01*
X84323512Y-70967665D02*
X84323512Y-71122484D01*
X84323512Y-71122484D02*
X84284808Y-71199894D01*
X84284808Y-71199894D02*
X84246103Y-71238599D01*
X84246103Y-71238599D02*
X84168693Y-71277303D01*
X84168693Y-71277303D02*
X83936465Y-71277303D01*
X83936465Y-71277303D02*
X83859055Y-71238599D01*
X83859055Y-71238599D02*
X83820350Y-71199894D01*
X83820350Y-71199894D02*
X83781646Y-71122484D01*
X83781646Y-71122484D02*
X83781646Y-70967665D01*
X83781646Y-70967665D02*
X83820350Y-70890256D01*
X84013874Y-70503209D02*
X84013874Y-69883933D01*
X83781646Y-69612999D02*
X83781646Y-69303361D01*
X83510712Y-69496885D02*
X84207398Y-69496885D01*
X84207398Y-69496885D02*
X84284808Y-69458180D01*
X84284808Y-69458180D02*
X84323512Y-69380770D01*
X84323512Y-69380770D02*
X84323512Y-69303361D01*
X84323512Y-69032428D02*
X83781646Y-69032428D01*
X83510712Y-69032428D02*
X83549417Y-69071132D01*
X83549417Y-69071132D02*
X83588122Y-69032428D01*
X83588122Y-69032428D02*
X83549417Y-68993723D01*
X83549417Y-68993723D02*
X83510712Y-69032428D01*
X83510712Y-69032428D02*
X83588122Y-69032428D01*
X84323512Y-68645380D02*
X83781646Y-68645380D01*
X83859055Y-68645380D02*
X83820350Y-68606675D01*
X83820350Y-68606675D02*
X83781646Y-68529265D01*
X83781646Y-68529265D02*
X83781646Y-68413151D01*
X83781646Y-68413151D02*
X83820350Y-68335742D01*
X83820350Y-68335742D02*
X83897760Y-68297037D01*
X83897760Y-68297037D02*
X84323512Y-68297037D01*
X83897760Y-68297037D02*
X83820350Y-68258332D01*
X83820350Y-68258332D02*
X83781646Y-68180923D01*
X83781646Y-68180923D02*
X83781646Y-68064808D01*
X83781646Y-68064808D02*
X83820350Y-67987399D01*
X83820350Y-67987399D02*
X83897760Y-67948694D01*
X83897760Y-67948694D02*
X84323512Y-67948694D01*
X84284808Y-67252009D02*
X84323512Y-67329418D01*
X84323512Y-67329418D02*
X84323512Y-67484237D01*
X84323512Y-67484237D02*
X84284808Y-67561647D01*
X84284808Y-67561647D02*
X84207398Y-67600351D01*
X84207398Y-67600351D02*
X83897760Y-67600351D01*
X83897760Y-67600351D02*
X83820350Y-67561647D01*
X83820350Y-67561647D02*
X83781646Y-67484237D01*
X83781646Y-67484237D02*
X83781646Y-67329418D01*
X83781646Y-67329418D02*
X83820350Y-67252009D01*
X83820350Y-67252009D02*
X83897760Y-67213304D01*
X83897760Y-67213304D02*
X83975169Y-67213304D01*
X83975169Y-67213304D02*
X84052579Y-67600351D01*
X84323512Y-66864961D02*
X83781646Y-66864961D01*
X83936465Y-66864961D02*
X83859055Y-66826256D01*
X83859055Y-66826256D02*
X83820350Y-66787551D01*
X83820350Y-66787551D02*
X83781646Y-66710142D01*
X83781646Y-66710142D02*
X83781646Y-66632732D01*
X85090208Y-91906938D02*
X85632074Y-91713414D01*
X85632074Y-91713414D02*
X85090208Y-91519891D01*
X85632074Y-90784500D02*
X85632074Y-91248957D01*
X85632074Y-91016729D02*
X84819274Y-91016729D01*
X84819274Y-91016729D02*
X84935389Y-91094138D01*
X84935389Y-91094138D02*
X85012798Y-91171548D01*
X85012798Y-91171548D02*
X85051503Y-91248957D01*
X85554665Y-90436158D02*
X85593370Y-90397453D01*
X85593370Y-90397453D02*
X85632074Y-90436158D01*
X85632074Y-90436158D02*
X85593370Y-90474862D01*
X85593370Y-90474862D02*
X85554665Y-90436158D01*
X85554665Y-90436158D02*
X85632074Y-90436158D01*
X84819274Y-89894291D02*
X84819274Y-89816881D01*
X84819274Y-89816881D02*
X84857979Y-89739472D01*
X84857979Y-89739472D02*
X84896684Y-89700767D01*
X84896684Y-89700767D02*
X84974093Y-89662062D01*
X84974093Y-89662062D02*
X85128912Y-89623357D01*
X85128912Y-89623357D02*
X85322436Y-89623357D01*
X85322436Y-89623357D02*
X85477255Y-89662062D01*
X85477255Y-89662062D02*
X85554665Y-89700767D01*
X85554665Y-89700767D02*
X85593370Y-89739472D01*
X85593370Y-89739472D02*
X85632074Y-89816881D01*
X85632074Y-89816881D02*
X85632074Y-89894291D01*
X85632074Y-89894291D02*
X85593370Y-89971700D01*
X85593370Y-89971700D02*
X85554665Y-90010405D01*
X85554665Y-90010405D02*
X85477255Y-90049110D01*
X85477255Y-90049110D02*
X85322436Y-90087814D01*
X85322436Y-90087814D02*
X85128912Y-90087814D01*
X85128912Y-90087814D02*
X84974093Y-90049110D01*
X84974093Y-90049110D02*
X84896684Y-90010405D01*
X84896684Y-90010405D02*
X84857979Y-89971700D01*
X84857979Y-89971700D02*
X84819274Y-89894291D01*
D10*
X91968571Y-70554727D02*
X92235237Y-70554727D01*
X92349523Y-70973775D02*
X91968571Y-70973775D01*
X91968571Y-70973775D02*
X91968571Y-70173775D01*
X91968571Y-70173775D02*
X92349523Y-70173775D01*
X92692381Y-70973775D02*
X92692381Y-70173775D01*
X92692381Y-70173775D02*
X93149524Y-70973775D01*
X93149524Y-70973775D02*
X93149524Y-70173775D01*
X93987619Y-70897584D02*
X93949523Y-70935680D01*
X93949523Y-70935680D02*
X93835238Y-70973775D01*
X93835238Y-70973775D02*
X93759047Y-70973775D01*
X93759047Y-70973775D02*
X93644761Y-70935680D01*
X93644761Y-70935680D02*
X93568571Y-70859489D01*
X93568571Y-70859489D02*
X93530476Y-70783299D01*
X93530476Y-70783299D02*
X93492380Y-70630918D01*
X93492380Y-70630918D02*
X93492380Y-70516632D01*
X93492380Y-70516632D02*
X93530476Y-70364251D01*
X93530476Y-70364251D02*
X93568571Y-70288060D01*
X93568571Y-70288060D02*
X93644761Y-70211870D01*
X93644761Y-70211870D02*
X93759047Y-70173775D01*
X93759047Y-70173775D02*
X93835238Y-70173775D01*
X93835238Y-70173775D02*
X93949523Y-70211870D01*
X93949523Y-70211870D02*
X93987619Y-70249965D01*
X94482857Y-70173775D02*
X94635238Y-70173775D01*
X94635238Y-70173775D02*
X94711428Y-70211870D01*
X94711428Y-70211870D02*
X94787619Y-70288060D01*
X94787619Y-70288060D02*
X94825714Y-70440441D01*
X94825714Y-70440441D02*
X94825714Y-70707108D01*
X94825714Y-70707108D02*
X94787619Y-70859489D01*
X94787619Y-70859489D02*
X94711428Y-70935680D01*
X94711428Y-70935680D02*
X94635238Y-70973775D01*
X94635238Y-70973775D02*
X94482857Y-70973775D01*
X94482857Y-70973775D02*
X94406666Y-70935680D01*
X94406666Y-70935680D02*
X94330476Y-70859489D01*
X94330476Y-70859489D02*
X94292380Y-70707108D01*
X94292380Y-70707108D02*
X94292380Y-70440441D01*
X94292380Y-70440441D02*
X94330476Y-70288060D01*
X94330476Y-70288060D02*
X94406666Y-70211870D01*
X94406666Y-70211870D02*
X94482857Y-70173775D01*
X95168571Y-70973775D02*
X95168571Y-70173775D01*
X95168571Y-70173775D02*
X95359047Y-70173775D01*
X95359047Y-70173775D02*
X95473333Y-70211870D01*
X95473333Y-70211870D02*
X95549523Y-70288060D01*
X95549523Y-70288060D02*
X95587618Y-70364251D01*
X95587618Y-70364251D02*
X95625714Y-70516632D01*
X95625714Y-70516632D02*
X95625714Y-70630918D01*
X95625714Y-70630918D02*
X95587618Y-70783299D01*
X95587618Y-70783299D02*
X95549523Y-70859489D01*
X95549523Y-70859489D02*
X95473333Y-70935680D01*
X95473333Y-70935680D02*
X95359047Y-70973775D01*
X95359047Y-70973775D02*
X95168571Y-70973775D01*
X95968571Y-70554727D02*
X96235237Y-70554727D01*
X96349523Y-70973775D02*
X95968571Y-70973775D01*
X95968571Y-70973775D02*
X95968571Y-70173775D01*
X95968571Y-70173775D02*
X96349523Y-70173775D01*
X97149524Y-70973775D02*
X96882857Y-70592822D01*
X96692381Y-70973775D02*
X96692381Y-70173775D01*
X96692381Y-70173775D02*
X96997143Y-70173775D01*
X96997143Y-70173775D02*
X97073333Y-70211870D01*
X97073333Y-70211870D02*
X97111428Y-70249965D01*
X97111428Y-70249965D02*
X97149524Y-70326156D01*
X97149524Y-70326156D02*
X97149524Y-70440441D01*
X97149524Y-70440441D02*
X97111428Y-70516632D01*
X97111428Y-70516632D02*
X97073333Y-70554727D01*
X97073333Y-70554727D02*
X96997143Y-70592822D01*
X96997143Y-70592822D02*
X96692381Y-70592822D01*
D13*
X101793809Y-77078628D02*
X101793809Y-77554819D01*
X101460476Y-76554819D02*
X101793809Y-77078628D01*
X101793809Y-77078628D02*
X102127142Y-76554819D01*
X102984285Y-77554819D02*
X102412857Y-77554819D01*
X102698571Y-77554819D02*
X102698571Y-76554819D01*
X102698571Y-76554819D02*
X102603333Y-76697676D01*
X102603333Y-76697676D02*
X102508095Y-76792914D01*
X102508095Y-76792914D02*
X102412857Y-76840533D01*
X119259580Y-75076666D02*
X119307200Y-75124285D01*
X119307200Y-75124285D02*
X119354819Y-75267142D01*
X119354819Y-75267142D02*
X119354819Y-75362380D01*
X119354819Y-75362380D02*
X119307200Y-75505237D01*
X119307200Y-75505237D02*
X119211961Y-75600475D01*
X119211961Y-75600475D02*
X119116723Y-75648094D01*
X119116723Y-75648094D02*
X118926247Y-75695713D01*
X118926247Y-75695713D02*
X118783390Y-75695713D01*
X118783390Y-75695713D02*
X118592914Y-75648094D01*
X118592914Y-75648094D02*
X118497676Y-75600475D01*
X118497676Y-75600475D02*
X118402438Y-75505237D01*
X118402438Y-75505237D02*
X118354819Y-75362380D01*
X118354819Y-75362380D02*
X118354819Y-75267142D01*
X118354819Y-75267142D02*
X118402438Y-75124285D01*
X118402438Y-75124285D02*
X118450057Y-75076666D01*
X118354819Y-74219523D02*
X118354819Y-74409999D01*
X118354819Y-74409999D02*
X118402438Y-74505237D01*
X118402438Y-74505237D02*
X118450057Y-74552856D01*
X118450057Y-74552856D02*
X118592914Y-74648094D01*
X118592914Y-74648094D02*
X118783390Y-74695713D01*
X118783390Y-74695713D02*
X119164342Y-74695713D01*
X119164342Y-74695713D02*
X119259580Y-74648094D01*
X119259580Y-74648094D02*
X119307200Y-74600475D01*
X119307200Y-74600475D02*
X119354819Y-74505237D01*
X119354819Y-74505237D02*
X119354819Y-74314761D01*
X119354819Y-74314761D02*
X119307200Y-74219523D01*
X119307200Y-74219523D02*
X119259580Y-74171904D01*
X119259580Y-74171904D02*
X119164342Y-74124285D01*
X119164342Y-74124285D02*
X118926247Y-74124285D01*
X118926247Y-74124285D02*
X118831009Y-74171904D01*
X118831009Y-74171904D02*
X118783390Y-74219523D01*
X118783390Y-74219523D02*
X118735771Y-74314761D01*
X118735771Y-74314761D02*
X118735771Y-74505237D01*
X118735771Y-74505237D02*
X118783390Y-74600475D01*
X118783390Y-74600475D02*
X118831009Y-74648094D01*
X118831009Y-74648094D02*
X118926247Y-74695713D01*
X82324819Y-96888094D02*
X81324819Y-96888094D01*
X81324819Y-96888094D02*
X81324819Y-96649999D01*
X81324819Y-96649999D02*
X81372438Y-96507142D01*
X81372438Y-96507142D02*
X81467676Y-96411904D01*
X81467676Y-96411904D02*
X81562914Y-96364285D01*
X81562914Y-96364285D02*
X81753390Y-96316666D01*
X81753390Y-96316666D02*
X81896247Y-96316666D01*
X81896247Y-96316666D02*
X82086723Y-96364285D01*
X82086723Y-96364285D02*
X82181961Y-96411904D01*
X82181961Y-96411904D02*
X82277200Y-96507142D01*
X82277200Y-96507142D02*
X82324819Y-96649999D01*
X82324819Y-96649999D02*
X82324819Y-96888094D01*
X82324819Y-95364285D02*
X82324819Y-95935713D01*
X82324819Y-95649999D02*
X81324819Y-95649999D01*
X81324819Y-95649999D02*
X81467676Y-95745237D01*
X81467676Y-95745237D02*
X81562914Y-95840475D01*
X81562914Y-95840475D02*
X81610533Y-95935713D01*
X114834819Y-65333333D02*
X115549104Y-65333333D01*
X115549104Y-65333333D02*
X115691961Y-65380952D01*
X115691961Y-65380952D02*
X115787200Y-65476190D01*
X115787200Y-65476190D02*
X115834819Y-65619047D01*
X115834819Y-65619047D02*
X115834819Y-65714285D01*
X114834819Y-64952380D02*
X114834819Y-64333333D01*
X114834819Y-64333333D02*
X115215771Y-64666666D01*
X115215771Y-64666666D02*
X115215771Y-64523809D01*
X115215771Y-64523809D02*
X115263390Y-64428571D01*
X115263390Y-64428571D02*
X115311009Y-64380952D01*
X115311009Y-64380952D02*
X115406247Y-64333333D01*
X115406247Y-64333333D02*
X115644342Y-64333333D01*
X115644342Y-64333333D02*
X115739580Y-64380952D01*
X115739580Y-64380952D02*
X115787200Y-64428571D01*
X115787200Y-64428571D02*
X115834819Y-64523809D01*
X115834819Y-64523809D02*
X115834819Y-64809523D01*
X115834819Y-64809523D02*
X115787200Y-64904761D01*
X115787200Y-64904761D02*
X115739580Y-64952380D01*
X106589580Y-88476666D02*
X106637200Y-88524285D01*
X106637200Y-88524285D02*
X106684819Y-88667142D01*
X106684819Y-88667142D02*
X106684819Y-88762380D01*
X106684819Y-88762380D02*
X106637200Y-88905237D01*
X106637200Y-88905237D02*
X106541961Y-89000475D01*
X106541961Y-89000475D02*
X106446723Y-89048094D01*
X106446723Y-89048094D02*
X106256247Y-89095713D01*
X106256247Y-89095713D02*
X106113390Y-89095713D01*
X106113390Y-89095713D02*
X105922914Y-89048094D01*
X105922914Y-89048094D02*
X105827676Y-89000475D01*
X105827676Y-89000475D02*
X105732438Y-88905237D01*
X105732438Y-88905237D02*
X105684819Y-88762380D01*
X105684819Y-88762380D02*
X105684819Y-88667142D01*
X105684819Y-88667142D02*
X105732438Y-88524285D01*
X105732438Y-88524285D02*
X105780057Y-88476666D01*
X105684819Y-87571904D02*
X105684819Y-88048094D01*
X105684819Y-88048094D02*
X106161009Y-88095713D01*
X106161009Y-88095713D02*
X106113390Y-88048094D01*
X106113390Y-88048094D02*
X106065771Y-87952856D01*
X106065771Y-87952856D02*
X106065771Y-87714761D01*
X106065771Y-87714761D02*
X106113390Y-87619523D01*
X106113390Y-87619523D02*
X106161009Y-87571904D01*
X106161009Y-87571904D02*
X106256247Y-87524285D01*
X106256247Y-87524285D02*
X106494342Y-87524285D01*
X106494342Y-87524285D02*
X106589580Y-87571904D01*
X106589580Y-87571904D02*
X106637200Y-87619523D01*
X106637200Y-87619523D02*
X106684819Y-87714761D01*
X106684819Y-87714761D02*
X106684819Y-87952856D01*
X106684819Y-87952856D02*
X106637200Y-88048094D01*
X106637200Y-88048094D02*
X106589580Y-88095713D01*
X99278095Y-92784819D02*
X99278095Y-93594342D01*
X99278095Y-93594342D02*
X99325714Y-93689580D01*
X99325714Y-93689580D02*
X99373333Y-93737200D01*
X99373333Y-93737200D02*
X99468571Y-93784819D01*
X99468571Y-93784819D02*
X99659047Y-93784819D01*
X99659047Y-93784819D02*
X99754285Y-93737200D01*
X99754285Y-93737200D02*
X99801904Y-93689580D01*
X99801904Y-93689580D02*
X99849523Y-93594342D01*
X99849523Y-93594342D02*
X99849523Y-92784819D01*
X100278095Y-92880057D02*
X100325714Y-92832438D01*
X100325714Y-92832438D02*
X100420952Y-92784819D01*
X100420952Y-92784819D02*
X100659047Y-92784819D01*
X100659047Y-92784819D02*
X100754285Y-92832438D01*
X100754285Y-92832438D02*
X100801904Y-92880057D01*
X100801904Y-92880057D02*
X100849523Y-92975295D01*
X100849523Y-92975295D02*
X100849523Y-93070533D01*
X100849523Y-93070533D02*
X100801904Y-93213390D01*
X100801904Y-93213390D02*
X100230476Y-93784819D01*
X100230476Y-93784819D02*
X100849523Y-93784819D01*
X86534819Y-73333333D02*
X87249104Y-73333333D01*
X87249104Y-73333333D02*
X87391961Y-73380952D01*
X87391961Y-73380952D02*
X87487200Y-73476190D01*
X87487200Y-73476190D02*
X87534819Y-73619047D01*
X87534819Y-73619047D02*
X87534819Y-73714285D01*
X87534819Y-72333333D02*
X87534819Y-72904761D01*
X87534819Y-72619047D02*
X86534819Y-72619047D01*
X86534819Y-72619047D02*
X86677676Y-72714285D01*
X86677676Y-72714285D02*
X86772914Y-72809523D01*
X86772914Y-72809523D02*
X86820533Y-72904761D01*
X98783333Y-83009580D02*
X98735714Y-83057200D01*
X98735714Y-83057200D02*
X98592857Y-83104819D01*
X98592857Y-83104819D02*
X98497619Y-83104819D01*
X98497619Y-83104819D02*
X98354762Y-83057200D01*
X98354762Y-83057200D02*
X98259524Y-82961961D01*
X98259524Y-82961961D02*
X98211905Y-82866723D01*
X98211905Y-82866723D02*
X98164286Y-82676247D01*
X98164286Y-82676247D02*
X98164286Y-82533390D01*
X98164286Y-82533390D02*
X98211905Y-82342914D01*
X98211905Y-82342914D02*
X98259524Y-82247676D01*
X98259524Y-82247676D02*
X98354762Y-82152438D01*
X98354762Y-82152438D02*
X98497619Y-82104819D01*
X98497619Y-82104819D02*
X98592857Y-82104819D01*
X98592857Y-82104819D02*
X98735714Y-82152438D01*
X98735714Y-82152438D02*
X98783333Y-82200057D01*
X99116667Y-82104819D02*
X99735714Y-82104819D01*
X99735714Y-82104819D02*
X99402381Y-82485771D01*
X99402381Y-82485771D02*
X99545238Y-82485771D01*
X99545238Y-82485771D02*
X99640476Y-82533390D01*
X99640476Y-82533390D02*
X99688095Y-82581009D01*
X99688095Y-82581009D02*
X99735714Y-82676247D01*
X99735714Y-82676247D02*
X99735714Y-82914342D01*
X99735714Y-82914342D02*
X99688095Y-83009580D01*
X99688095Y-83009580D02*
X99640476Y-83057200D01*
X99640476Y-83057200D02*
X99545238Y-83104819D01*
X99545238Y-83104819D02*
X99259524Y-83104819D01*
X99259524Y-83104819D02*
X99164286Y-83057200D01*
X99164286Y-83057200D02*
X99116667Y-83009580D01*
X100943333Y-83009580D02*
X100895714Y-83057200D01*
X100895714Y-83057200D02*
X100752857Y-83104819D01*
X100752857Y-83104819D02*
X100657619Y-83104819D01*
X100657619Y-83104819D02*
X100514762Y-83057200D01*
X100514762Y-83057200D02*
X100419524Y-82961961D01*
X100419524Y-82961961D02*
X100371905Y-82866723D01*
X100371905Y-82866723D02*
X100324286Y-82676247D01*
X100324286Y-82676247D02*
X100324286Y-82533390D01*
X100324286Y-82533390D02*
X100371905Y-82342914D01*
X100371905Y-82342914D02*
X100419524Y-82247676D01*
X100419524Y-82247676D02*
X100514762Y-82152438D01*
X100514762Y-82152438D02*
X100657619Y-82104819D01*
X100657619Y-82104819D02*
X100752857Y-82104819D01*
X100752857Y-82104819D02*
X100895714Y-82152438D01*
X100895714Y-82152438D02*
X100943333Y-82200057D01*
X101800476Y-82438152D02*
X101800476Y-83104819D01*
X101562381Y-82057200D02*
X101324286Y-82771485D01*
X101324286Y-82771485D02*
X101943333Y-82771485D01*
X94149580Y-89286666D02*
X94197200Y-89334285D01*
X94197200Y-89334285D02*
X94244819Y-89477142D01*
X94244819Y-89477142D02*
X94244819Y-89572380D01*
X94244819Y-89572380D02*
X94197200Y-89715237D01*
X94197200Y-89715237D02*
X94101961Y-89810475D01*
X94101961Y-89810475D02*
X94006723Y-89858094D01*
X94006723Y-89858094D02*
X93816247Y-89905713D01*
X93816247Y-89905713D02*
X93673390Y-89905713D01*
X93673390Y-89905713D02*
X93482914Y-89858094D01*
X93482914Y-89858094D02*
X93387676Y-89810475D01*
X93387676Y-89810475D02*
X93292438Y-89715237D01*
X93292438Y-89715237D02*
X93244819Y-89572380D01*
X93244819Y-89572380D02*
X93244819Y-89477142D01*
X93244819Y-89477142D02*
X93292438Y-89334285D01*
X93292438Y-89334285D02*
X93340057Y-89286666D01*
X93340057Y-88905713D02*
X93292438Y-88858094D01*
X93292438Y-88858094D02*
X93244819Y-88762856D01*
X93244819Y-88762856D02*
X93244819Y-88524761D01*
X93244819Y-88524761D02*
X93292438Y-88429523D01*
X93292438Y-88429523D02*
X93340057Y-88381904D01*
X93340057Y-88381904D02*
X93435295Y-88334285D01*
X93435295Y-88334285D02*
X93530533Y-88334285D01*
X93530533Y-88334285D02*
X93673390Y-88381904D01*
X93673390Y-88381904D02*
X94244819Y-88953332D01*
X94244819Y-88953332D02*
X94244819Y-88334285D01*
X86569580Y-96216666D02*
X86617200Y-96264285D01*
X86617200Y-96264285D02*
X86664819Y-96407142D01*
X86664819Y-96407142D02*
X86664819Y-96502380D01*
X86664819Y-96502380D02*
X86617200Y-96645237D01*
X86617200Y-96645237D02*
X86521961Y-96740475D01*
X86521961Y-96740475D02*
X86426723Y-96788094D01*
X86426723Y-96788094D02*
X86236247Y-96835713D01*
X86236247Y-96835713D02*
X86093390Y-96835713D01*
X86093390Y-96835713D02*
X85902914Y-96788094D01*
X85902914Y-96788094D02*
X85807676Y-96740475D01*
X85807676Y-96740475D02*
X85712438Y-96645237D01*
X85712438Y-96645237D02*
X85664819Y-96502380D01*
X85664819Y-96502380D02*
X85664819Y-96407142D01*
X85664819Y-96407142D02*
X85712438Y-96264285D01*
X85712438Y-96264285D02*
X85760057Y-96216666D01*
X86093390Y-95645237D02*
X86045771Y-95740475D01*
X86045771Y-95740475D02*
X85998152Y-95788094D01*
X85998152Y-95788094D02*
X85902914Y-95835713D01*
X85902914Y-95835713D02*
X85855295Y-95835713D01*
X85855295Y-95835713D02*
X85760057Y-95788094D01*
X85760057Y-95788094D02*
X85712438Y-95740475D01*
X85712438Y-95740475D02*
X85664819Y-95645237D01*
X85664819Y-95645237D02*
X85664819Y-95454761D01*
X85664819Y-95454761D02*
X85712438Y-95359523D01*
X85712438Y-95359523D02*
X85760057Y-95311904D01*
X85760057Y-95311904D02*
X85855295Y-95264285D01*
X85855295Y-95264285D02*
X85902914Y-95264285D01*
X85902914Y-95264285D02*
X85998152Y-95311904D01*
X85998152Y-95311904D02*
X86045771Y-95359523D01*
X86045771Y-95359523D02*
X86093390Y-95454761D01*
X86093390Y-95454761D02*
X86093390Y-95645237D01*
X86093390Y-95645237D02*
X86141009Y-95740475D01*
X86141009Y-95740475D02*
X86188628Y-95788094D01*
X86188628Y-95788094D02*
X86283866Y-95835713D01*
X86283866Y-95835713D02*
X86474342Y-95835713D01*
X86474342Y-95835713D02*
X86569580Y-95788094D01*
X86569580Y-95788094D02*
X86617200Y-95740475D01*
X86617200Y-95740475D02*
X86664819Y-95645237D01*
X86664819Y-95645237D02*
X86664819Y-95454761D01*
X86664819Y-95454761D02*
X86617200Y-95359523D01*
X86617200Y-95359523D02*
X86569580Y-95311904D01*
X86569580Y-95311904D02*
X86474342Y-95264285D01*
X86474342Y-95264285D02*
X86283866Y-95264285D01*
X86283866Y-95264285D02*
X86188628Y-95311904D01*
X86188628Y-95311904D02*
X86141009Y-95359523D01*
X86141009Y-95359523D02*
X86093390Y-95454761D01*
X90754580Y-89291666D02*
X90802200Y-89339285D01*
X90802200Y-89339285D02*
X90849819Y-89482142D01*
X90849819Y-89482142D02*
X90849819Y-89577380D01*
X90849819Y-89577380D02*
X90802200Y-89720237D01*
X90802200Y-89720237D02*
X90706961Y-89815475D01*
X90706961Y-89815475D02*
X90611723Y-89863094D01*
X90611723Y-89863094D02*
X90421247Y-89910713D01*
X90421247Y-89910713D02*
X90278390Y-89910713D01*
X90278390Y-89910713D02*
X90087914Y-89863094D01*
X90087914Y-89863094D02*
X89992676Y-89815475D01*
X89992676Y-89815475D02*
X89897438Y-89720237D01*
X89897438Y-89720237D02*
X89849819Y-89577380D01*
X89849819Y-89577380D02*
X89849819Y-89482142D01*
X89849819Y-89482142D02*
X89897438Y-89339285D01*
X89897438Y-89339285D02*
X89945057Y-89291666D01*
X90849819Y-88339285D02*
X90849819Y-88910713D01*
X90849819Y-88624999D02*
X89849819Y-88624999D01*
X89849819Y-88624999D02*
X89992676Y-88720237D01*
X89992676Y-88720237D02*
X90087914Y-88815475D01*
X90087914Y-88815475D02*
X90135533Y-88910713D01*
X105516945Y-93331009D02*
X105183612Y-93331009D01*
X105183612Y-93854819D02*
X105183612Y-92854819D01*
X105183612Y-92854819D02*
X105659802Y-92854819D01*
X106374088Y-93331009D02*
X106516945Y-93378628D01*
X106516945Y-93378628D02*
X106564564Y-93426247D01*
X106564564Y-93426247D02*
X106612183Y-93521485D01*
X106612183Y-93521485D02*
X106612183Y-93664342D01*
X106612183Y-93664342D02*
X106564564Y-93759580D01*
X106564564Y-93759580D02*
X106516945Y-93807200D01*
X106516945Y-93807200D02*
X106421707Y-93854819D01*
X106421707Y-93854819D02*
X106040755Y-93854819D01*
X106040755Y-93854819D02*
X106040755Y-92854819D01*
X106040755Y-92854819D02*
X106374088Y-92854819D01*
X106374088Y-92854819D02*
X106469326Y-92902438D01*
X106469326Y-92902438D02*
X106516945Y-92950057D01*
X106516945Y-92950057D02*
X106564564Y-93045295D01*
X106564564Y-93045295D02*
X106564564Y-93140533D01*
X106564564Y-93140533D02*
X106516945Y-93235771D01*
X106516945Y-93235771D02*
X106469326Y-93283390D01*
X106469326Y-93283390D02*
X106374088Y-93331009D01*
X106374088Y-93331009D02*
X106040755Y-93331009D01*
X107564564Y-93854819D02*
X106993136Y-93854819D01*
X107278850Y-93854819D02*
X107278850Y-92854819D01*
X107278850Y-92854819D02*
X107183612Y-92997676D01*
X107183612Y-92997676D02*
X107088374Y-93092914D01*
X107088374Y-93092914D02*
X106993136Y-93140533D01*
X112696667Y-86887200D02*
X112839524Y-86934819D01*
X112839524Y-86934819D02*
X113077619Y-86934819D01*
X113077619Y-86934819D02*
X113172857Y-86887200D01*
X113172857Y-86887200D02*
X113220476Y-86839580D01*
X113220476Y-86839580D02*
X113268095Y-86744342D01*
X113268095Y-86744342D02*
X113268095Y-86649104D01*
X113268095Y-86649104D02*
X113220476Y-86553866D01*
X113220476Y-86553866D02*
X113172857Y-86506247D01*
X113172857Y-86506247D02*
X113077619Y-86458628D01*
X113077619Y-86458628D02*
X112887143Y-86411009D01*
X112887143Y-86411009D02*
X112791905Y-86363390D01*
X112791905Y-86363390D02*
X112744286Y-86315771D01*
X112744286Y-86315771D02*
X112696667Y-86220533D01*
X112696667Y-86220533D02*
X112696667Y-86125295D01*
X112696667Y-86125295D02*
X112744286Y-86030057D01*
X112744286Y-86030057D02*
X112791905Y-85982438D01*
X112791905Y-85982438D02*
X112887143Y-85934819D01*
X112887143Y-85934819D02*
X113125238Y-85934819D01*
X113125238Y-85934819D02*
X113268095Y-85982438D01*
X113601429Y-85934819D02*
X113839524Y-86934819D01*
X113839524Y-86934819D02*
X114030000Y-86220533D01*
X114030000Y-86220533D02*
X114220476Y-86934819D01*
X114220476Y-86934819D02*
X114458572Y-85934819D01*
X114791905Y-86030057D02*
X114839524Y-85982438D01*
X114839524Y-85982438D02*
X114934762Y-85934819D01*
X114934762Y-85934819D02*
X115172857Y-85934819D01*
X115172857Y-85934819D02*
X115268095Y-85982438D01*
X115268095Y-85982438D02*
X115315714Y-86030057D01*
X115315714Y-86030057D02*
X115363333Y-86125295D01*
X115363333Y-86125295D02*
X115363333Y-86220533D01*
X115363333Y-86220533D02*
X115315714Y-86363390D01*
X115315714Y-86363390D02*
X114744286Y-86934819D01*
X114744286Y-86934819D02*
X115363333Y-86934819D01*
X109594819Y-73333333D02*
X110309104Y-73333333D01*
X110309104Y-73333333D02*
X110451961Y-73380952D01*
X110451961Y-73380952D02*
X110547200Y-73476190D01*
X110547200Y-73476190D02*
X110594819Y-73619047D01*
X110594819Y-73619047D02*
X110594819Y-73714285D01*
X109928152Y-72428571D02*
X110594819Y-72428571D01*
X109547200Y-72666666D02*
X110261485Y-72904761D01*
X110261485Y-72904761D02*
X110261485Y-72285714D01*
X109059580Y-88246666D02*
X109107200Y-88294285D01*
X109107200Y-88294285D02*
X109154819Y-88437142D01*
X109154819Y-88437142D02*
X109154819Y-88532380D01*
X109154819Y-88532380D02*
X109107200Y-88675237D01*
X109107200Y-88675237D02*
X109011961Y-88770475D01*
X109011961Y-88770475D02*
X108916723Y-88818094D01*
X108916723Y-88818094D02*
X108726247Y-88865713D01*
X108726247Y-88865713D02*
X108583390Y-88865713D01*
X108583390Y-88865713D02*
X108392914Y-88818094D01*
X108392914Y-88818094D02*
X108297676Y-88770475D01*
X108297676Y-88770475D02*
X108202438Y-88675237D01*
X108202438Y-88675237D02*
X108154819Y-88532380D01*
X108154819Y-88532380D02*
X108154819Y-88437142D01*
X108154819Y-88437142D02*
X108202438Y-88294285D01*
X108202438Y-88294285D02*
X108250057Y-88246666D01*
X109154819Y-87770475D02*
X109154819Y-87579999D01*
X109154819Y-87579999D02*
X109107200Y-87484761D01*
X109107200Y-87484761D02*
X109059580Y-87437142D01*
X109059580Y-87437142D02*
X108916723Y-87341904D01*
X108916723Y-87341904D02*
X108726247Y-87294285D01*
X108726247Y-87294285D02*
X108345295Y-87294285D01*
X108345295Y-87294285D02*
X108250057Y-87341904D01*
X108250057Y-87341904D02*
X108202438Y-87389523D01*
X108202438Y-87389523D02*
X108154819Y-87484761D01*
X108154819Y-87484761D02*
X108154819Y-87675237D01*
X108154819Y-87675237D02*
X108202438Y-87770475D01*
X108202438Y-87770475D02*
X108250057Y-87818094D01*
X108250057Y-87818094D02*
X108345295Y-87865713D01*
X108345295Y-87865713D02*
X108583390Y-87865713D01*
X108583390Y-87865713D02*
X108678628Y-87818094D01*
X108678628Y-87818094D02*
X108726247Y-87770475D01*
X108726247Y-87770475D02*
X108773866Y-87675237D01*
X108773866Y-87675237D02*
X108773866Y-87484761D01*
X108773866Y-87484761D02*
X108726247Y-87389523D01*
X108726247Y-87389523D02*
X108678628Y-87341904D01*
X108678628Y-87341904D02*
X108583390Y-87294285D01*
X94193333Y-106319580D02*
X94145714Y-106367200D01*
X94145714Y-106367200D02*
X94002857Y-106414819D01*
X94002857Y-106414819D02*
X93907619Y-106414819D01*
X93907619Y-106414819D02*
X93764762Y-106367200D01*
X93764762Y-106367200D02*
X93669524Y-106271961D01*
X93669524Y-106271961D02*
X93621905Y-106176723D01*
X93621905Y-106176723D02*
X93574286Y-105986247D01*
X93574286Y-105986247D02*
X93574286Y-105843390D01*
X93574286Y-105843390D02*
X93621905Y-105652914D01*
X93621905Y-105652914D02*
X93669524Y-105557676D01*
X93669524Y-105557676D02*
X93764762Y-105462438D01*
X93764762Y-105462438D02*
X93907619Y-105414819D01*
X93907619Y-105414819D02*
X94002857Y-105414819D01*
X94002857Y-105414819D02*
X94145714Y-105462438D01*
X94145714Y-105462438D02*
X94193333Y-105510057D01*
X94526667Y-105414819D02*
X95193333Y-105414819D01*
X95193333Y-105414819D02*
X94764762Y-106414819D01*
X102166666Y-102814819D02*
X102166666Y-103529104D01*
X102166666Y-103529104D02*
X102119047Y-103671961D01*
X102119047Y-103671961D02*
X102023809Y-103767200D01*
X102023809Y-103767200D02*
X101880952Y-103814819D01*
X101880952Y-103814819D02*
X101785714Y-103814819D01*
X103119047Y-102814819D02*
X102642857Y-102814819D01*
X102642857Y-102814819D02*
X102595238Y-103291009D01*
X102595238Y-103291009D02*
X102642857Y-103243390D01*
X102642857Y-103243390D02*
X102738095Y-103195771D01*
X102738095Y-103195771D02*
X102976190Y-103195771D01*
X102976190Y-103195771D02*
X103071428Y-103243390D01*
X103071428Y-103243390D02*
X103119047Y-103291009D01*
X103119047Y-103291009D02*
X103166666Y-103386247D01*
X103166666Y-103386247D02*
X103166666Y-103624342D01*
X103166666Y-103624342D02*
X103119047Y-103719580D01*
X103119047Y-103719580D02*
X103071428Y-103767200D01*
X103071428Y-103767200D02*
X102976190Y-103814819D01*
X102976190Y-103814819D02*
X102738095Y-103814819D01*
X102738095Y-103814819D02*
X102642857Y-103767200D01*
X102642857Y-103767200D02*
X102595238Y-103719580D01*
X89074819Y-65333333D02*
X89789104Y-65333333D01*
X89789104Y-65333333D02*
X89931961Y-65380952D01*
X89931961Y-65380952D02*
X90027200Y-65476190D01*
X90027200Y-65476190D02*
X90074819Y-65619047D01*
X90074819Y-65619047D02*
X90074819Y-65714285D01*
X89170057Y-64904761D02*
X89122438Y-64857142D01*
X89122438Y-64857142D02*
X89074819Y-64761904D01*
X89074819Y-64761904D02*
X89074819Y-64523809D01*
X89074819Y-64523809D02*
X89122438Y-64428571D01*
X89122438Y-64428571D02*
X89170057Y-64380952D01*
X89170057Y-64380952D02*
X89265295Y-64333333D01*
X89265295Y-64333333D02*
X89360533Y-64333333D01*
X89360533Y-64333333D02*
X89503390Y-64380952D01*
X89503390Y-64380952D02*
X90074819Y-64952380D01*
X90074819Y-64952380D02*
X90074819Y-64333333D01*
X113486667Y-101897200D02*
X113629524Y-101944819D01*
X113629524Y-101944819D02*
X113867619Y-101944819D01*
X113867619Y-101944819D02*
X113962857Y-101897200D01*
X113962857Y-101897200D02*
X114010476Y-101849580D01*
X114010476Y-101849580D02*
X114058095Y-101754342D01*
X114058095Y-101754342D02*
X114058095Y-101659104D01*
X114058095Y-101659104D02*
X114010476Y-101563866D01*
X114010476Y-101563866D02*
X113962857Y-101516247D01*
X113962857Y-101516247D02*
X113867619Y-101468628D01*
X113867619Y-101468628D02*
X113677143Y-101421009D01*
X113677143Y-101421009D02*
X113581905Y-101373390D01*
X113581905Y-101373390D02*
X113534286Y-101325771D01*
X113534286Y-101325771D02*
X113486667Y-101230533D01*
X113486667Y-101230533D02*
X113486667Y-101135295D01*
X113486667Y-101135295D02*
X113534286Y-101040057D01*
X113534286Y-101040057D02*
X113581905Y-100992438D01*
X113581905Y-100992438D02*
X113677143Y-100944819D01*
X113677143Y-100944819D02*
X113915238Y-100944819D01*
X113915238Y-100944819D02*
X114058095Y-100992438D01*
X114391429Y-100944819D02*
X114629524Y-101944819D01*
X114629524Y-101944819D02*
X114820000Y-101230533D01*
X114820000Y-101230533D02*
X115010476Y-101944819D01*
X115010476Y-101944819D02*
X115248572Y-100944819D01*
X116153333Y-101944819D02*
X115581905Y-101944819D01*
X115867619Y-101944819D02*
X115867619Y-100944819D01*
X115867619Y-100944819D02*
X115772381Y-101087676D01*
X115772381Y-101087676D02*
X115677143Y-101182914D01*
X115677143Y-101182914D02*
X115581905Y-101230533D01*
X99109580Y-97292857D02*
X99157200Y-97340476D01*
X99157200Y-97340476D02*
X99204819Y-97483333D01*
X99204819Y-97483333D02*
X99204819Y-97578571D01*
X99204819Y-97578571D02*
X99157200Y-97721428D01*
X99157200Y-97721428D02*
X99061961Y-97816666D01*
X99061961Y-97816666D02*
X98966723Y-97864285D01*
X98966723Y-97864285D02*
X98776247Y-97911904D01*
X98776247Y-97911904D02*
X98633390Y-97911904D01*
X98633390Y-97911904D02*
X98442914Y-97864285D01*
X98442914Y-97864285D02*
X98347676Y-97816666D01*
X98347676Y-97816666D02*
X98252438Y-97721428D01*
X98252438Y-97721428D02*
X98204819Y-97578571D01*
X98204819Y-97578571D02*
X98204819Y-97483333D01*
X98204819Y-97483333D02*
X98252438Y-97340476D01*
X98252438Y-97340476D02*
X98300057Y-97292857D01*
X99204819Y-96340476D02*
X99204819Y-96911904D01*
X99204819Y-96626190D02*
X98204819Y-96626190D01*
X98204819Y-96626190D02*
X98347676Y-96721428D01*
X98347676Y-96721428D02*
X98442914Y-96816666D01*
X98442914Y-96816666D02*
X98490533Y-96911904D01*
X98204819Y-95721428D02*
X98204819Y-95626190D01*
X98204819Y-95626190D02*
X98252438Y-95530952D01*
X98252438Y-95530952D02*
X98300057Y-95483333D01*
X98300057Y-95483333D02*
X98395295Y-95435714D01*
X98395295Y-95435714D02*
X98585771Y-95388095D01*
X98585771Y-95388095D02*
X98823866Y-95388095D01*
X98823866Y-95388095D02*
X99014342Y-95435714D01*
X99014342Y-95435714D02*
X99109580Y-95483333D01*
X99109580Y-95483333D02*
X99157200Y-95530952D01*
X99157200Y-95530952D02*
X99204819Y-95626190D01*
X99204819Y-95626190D02*
X99204819Y-95721428D01*
X99204819Y-95721428D02*
X99157200Y-95816666D01*
X99157200Y-95816666D02*
X99109580Y-95864285D01*
X99109580Y-95864285D02*
X99014342Y-95911904D01*
X99014342Y-95911904D02*
X98823866Y-95959523D01*
X98823866Y-95959523D02*
X98585771Y-95959523D01*
X98585771Y-95959523D02*
X98395295Y-95911904D01*
X98395295Y-95911904D02*
X98300057Y-95864285D01*
X98300057Y-95864285D02*
X98252438Y-95816666D01*
X98252438Y-95816666D02*
X98204819Y-95721428D01*
X114234819Y-75016666D02*
X113758628Y-75349999D01*
X114234819Y-75588094D02*
X113234819Y-75588094D01*
X113234819Y-75588094D02*
X113234819Y-75207142D01*
X113234819Y-75207142D02*
X113282438Y-75111904D01*
X113282438Y-75111904D02*
X113330057Y-75064285D01*
X113330057Y-75064285D02*
X113425295Y-75016666D01*
X113425295Y-75016666D02*
X113568152Y-75016666D01*
X113568152Y-75016666D02*
X113663390Y-75064285D01*
X113663390Y-75064285D02*
X113711009Y-75111904D01*
X113711009Y-75111904D02*
X113758628Y-75207142D01*
X113758628Y-75207142D02*
X113758628Y-75588094D01*
X113330057Y-74635713D02*
X113282438Y-74588094D01*
X113282438Y-74588094D02*
X113234819Y-74492856D01*
X113234819Y-74492856D02*
X113234819Y-74254761D01*
X113234819Y-74254761D02*
X113282438Y-74159523D01*
X113282438Y-74159523D02*
X113330057Y-74111904D01*
X113330057Y-74111904D02*
X113425295Y-74064285D01*
X113425295Y-74064285D02*
X113520533Y-74064285D01*
X113520533Y-74064285D02*
X113663390Y-74111904D01*
X113663390Y-74111904D02*
X114234819Y-74683332D01*
X114234819Y-74683332D02*
X114234819Y-74064285D01*
X119124819Y-90466666D02*
X118648628Y-90799999D01*
X119124819Y-91038094D02*
X118124819Y-91038094D01*
X118124819Y-91038094D02*
X118124819Y-90657142D01*
X118124819Y-90657142D02*
X118172438Y-90561904D01*
X118172438Y-90561904D02*
X118220057Y-90514285D01*
X118220057Y-90514285D02*
X118315295Y-90466666D01*
X118315295Y-90466666D02*
X118458152Y-90466666D01*
X118458152Y-90466666D02*
X118553390Y-90514285D01*
X118553390Y-90514285D02*
X118601009Y-90561904D01*
X118601009Y-90561904D02*
X118648628Y-90657142D01*
X118648628Y-90657142D02*
X118648628Y-91038094D01*
X119124819Y-89514285D02*
X119124819Y-90085713D01*
X119124819Y-89799999D02*
X118124819Y-89799999D01*
X118124819Y-89799999D02*
X118267676Y-89895237D01*
X118267676Y-89895237D02*
X118362914Y-89990475D01*
X118362914Y-89990475D02*
X118410533Y-90085713D01*
X82634819Y-93281666D02*
X82158628Y-93614999D01*
X82634819Y-93853094D02*
X81634819Y-93853094D01*
X81634819Y-93853094D02*
X81634819Y-93472142D01*
X81634819Y-93472142D02*
X81682438Y-93376904D01*
X81682438Y-93376904D02*
X81730057Y-93329285D01*
X81730057Y-93329285D02*
X81825295Y-93281666D01*
X81825295Y-93281666D02*
X81968152Y-93281666D01*
X81968152Y-93281666D02*
X82063390Y-93329285D01*
X82063390Y-93329285D02*
X82111009Y-93376904D01*
X82111009Y-93376904D02*
X82158628Y-93472142D01*
X82158628Y-93472142D02*
X82158628Y-93853094D01*
X81634819Y-92948332D02*
X81634819Y-92329285D01*
X81634819Y-92329285D02*
X82015771Y-92662618D01*
X82015771Y-92662618D02*
X82015771Y-92519761D01*
X82015771Y-92519761D02*
X82063390Y-92424523D01*
X82063390Y-92424523D02*
X82111009Y-92376904D01*
X82111009Y-92376904D02*
X82206247Y-92329285D01*
X82206247Y-92329285D02*
X82444342Y-92329285D01*
X82444342Y-92329285D02*
X82539580Y-92376904D01*
X82539580Y-92376904D02*
X82587200Y-92424523D01*
X82587200Y-92424523D02*
X82634819Y-92519761D01*
X82634819Y-92519761D02*
X82634819Y-92805475D01*
X82634819Y-92805475D02*
X82587200Y-92900713D01*
X82587200Y-92900713D02*
X82539580Y-92948332D01*
D14*
%TO.C,Y1*%
X101480000Y-77530000D02*
X98060000Y-77530000D01*
X98060000Y-77530000D02*
X98060000Y-81650000D01*
%TO.C,C6*%
X119650000Y-75007836D02*
X119650000Y-74792164D01*
X120370000Y-75007836D02*
X120370000Y-74792164D01*
%TO.C,D1*%
X82615000Y-94740000D02*
X82615000Y-97025000D01*
X84085000Y-94740000D02*
X82615000Y-94740000D01*
X84085000Y-97025000D02*
X84085000Y-94740000D01*
%TO.C,J3*%
X104000000Y-63620000D02*
X104000000Y-66380000D01*
X111730000Y-63620000D02*
X104000000Y-63620000D01*
X111730000Y-63620000D02*
X111730000Y-66380000D01*
X111730000Y-66380000D02*
X104000000Y-66380000D01*
X113000000Y-63620000D02*
X114380000Y-63620000D01*
X114380000Y-63620000D02*
X114380000Y-65000000D01*
%TO.C,C5*%
X107010000Y-88427836D02*
X107010000Y-88212164D01*
X107730000Y-88427836D02*
X107730000Y-88212164D01*
%TO.C,U2*%
X100040000Y-85745000D02*
X97840000Y-85745000D01*
X100040000Y-85745000D02*
X102240000Y-85745000D01*
X100040000Y-92515000D02*
X97840000Y-92515000D01*
X100040000Y-92515000D02*
X102240000Y-92515000D01*
X104230000Y-92295000D02*
X103900000Y-92055000D01*
X104230000Y-91815000D01*
X104230000Y-92295000D01*
G36*
X104230000Y-92295000D02*
G01*
X103900000Y-92055000D01*
X104230000Y-91815000D01*
X104230000Y-92295000D01*
G37*
%TO.C,J1*%
X88080000Y-74380000D02*
X88080000Y-73000000D01*
X89460000Y-74380000D02*
X88080000Y-74380000D01*
X90730000Y-71620000D02*
X101000000Y-71620000D01*
X90730000Y-74380000D02*
X90730000Y-71620000D01*
X90730000Y-74380000D02*
X101000000Y-74380000D01*
X101000000Y-74380000D02*
X101000000Y-71620000D01*
%TO.C,C3*%
X99107836Y-83470000D02*
X98892164Y-83470000D01*
X99107836Y-84190000D02*
X98892164Y-84190000D01*
%TO.C,C4*%
X100992164Y-83470000D02*
X101207836Y-83470000D01*
X100992164Y-84190000D02*
X101207836Y-84190000D01*
%TO.C,C2*%
X94590000Y-89227836D02*
X94590000Y-89012164D01*
X95310000Y-89227836D02*
X95310000Y-89012164D01*
%TO.C,C8*%
X87165000Y-96323752D02*
X87165000Y-95801248D01*
X88635000Y-96323752D02*
X88635000Y-95801248D01*
%TO.C,C1*%
X91340000Y-89386252D02*
X91340000Y-88863748D01*
X92810000Y-89386252D02*
X92810000Y-88863748D01*
%TO.C,FB1*%
X106350279Y-94520000D02*
X106024721Y-94520000D01*
X106350279Y-95540000D02*
X106024721Y-95540000D01*
%TO.C,SW2*%
X113790000Y-81160000D02*
X113790000Y-82660000D01*
X115040000Y-85160000D02*
X119540000Y-85160000D01*
X119540000Y-78660000D02*
X115040000Y-78660000D01*
X120790000Y-82660000D02*
X120790000Y-81160000D01*
%TO.C,J4*%
X103840000Y-71620000D02*
X103840000Y-74380000D01*
X106490000Y-71620000D02*
X103840000Y-71620000D01*
X106490000Y-71620000D02*
X106490000Y-74380000D01*
X106490000Y-74380000D02*
X103840000Y-74380000D01*
X107760000Y-71620000D02*
X109140000Y-71620000D01*
X109140000Y-71620000D02*
X109140000Y-73000000D01*
%TO.C,C9*%
X109565000Y-88371252D02*
X109565000Y-87848748D01*
X111035000Y-88371252D02*
X111035000Y-87848748D01*
%TO.C,C7*%
X94791252Y-106855000D02*
X94268748Y-106855000D01*
X94791252Y-108325000D02*
X94268748Y-108325000D01*
%TO.C,J5*%
X98240000Y-104450000D02*
X98240000Y-108810000D01*
X98240000Y-104450000D02*
X100740000Y-104450000D01*
X100740000Y-104450000D02*
X100740000Y-104250000D01*
X101400000Y-104250000D02*
X100740000Y-104250000D01*
X104260000Y-104450000D02*
X106760000Y-104450000D01*
X106760000Y-104450000D02*
X106760000Y-108810000D01*
%TO.C,J2*%
X90620000Y-66380000D02*
X90620000Y-65000000D01*
X92000000Y-66380000D02*
X90620000Y-66380000D01*
X93270000Y-63620000D02*
X101000000Y-63620000D01*
X93270000Y-66380000D02*
X93270000Y-63620000D01*
X93270000Y-66380000D02*
X101000000Y-66380000D01*
X101000000Y-66380000D02*
X101000000Y-63620000D01*
%TO.C,SW1*%
X113700000Y-95957500D02*
X113700000Y-97457500D01*
X114950000Y-99957500D02*
X119450000Y-99957500D01*
X119450000Y-93457500D02*
X114950000Y-93457500D01*
X120700000Y-97457500D02*
X120700000Y-95957500D01*
%TO.C,U1*%
X90170000Y-98960000D02*
X91430000Y-98960000D01*
X90170000Y-102720000D02*
X90170000Y-98960000D01*
X96990000Y-98960000D02*
X95730000Y-98960000D01*
X96990000Y-102720000D02*
X96990000Y-98960000D01*
X90270000Y-104000000D02*
X89940000Y-104240000D01*
X89940000Y-103760000D01*
X90270000Y-104000000D01*
G36*
X90270000Y-104000000D02*
G01*
X89940000Y-104240000D01*
X89940000Y-103760000D01*
X90270000Y-104000000D01*
G37*
%TO.C,C10*%
X99785000Y-96311248D02*
X99785000Y-96833752D01*
X101255000Y-96311248D02*
X101255000Y-96833752D01*
%TO.C,R2*%
X114620000Y-74696359D02*
X114620000Y-75003641D01*
X115380000Y-74696359D02*
X115380000Y-75003641D01*
%TO.C,R1*%
X119550000Y-90106359D02*
X119550000Y-90413641D01*
X120310000Y-90106359D02*
X120310000Y-90413641D01*
%TO.C,R3*%
X82970000Y-93268641D02*
X82970000Y-92961359D01*
X83730000Y-93268641D02*
X83730000Y-92961359D01*
%TD*%
M02*
