M48
; DRILL file {KiCad 9.0.4} date 2026-03-18T12:25:01+0100
; FORMAT={-:-/ absolute / metric / decimal}
; #@! TF.CreationDate,2026-03-18T12:25:01+01:00
; #@! TF.GenerationSoftware,Kicad,Pcbnew,9.0.4
; #@! TF.FileFunction,Plated,1,4,PTH
FMAT,2
METRIC
; #@! TA.AperFunction,Plated,PTH,ViaDrill
T1C0.250
; #@! TA.AperFunction,Plated,PTH,ViaDrill
T2C0.330
; #@! TA.AperFunction,Plated,PTH,ComponentDrill
T3C0.500
; #@! TA.AperFunction,Plated,PTH,ComponentDrill
T4C1.000
; #@! TA.AperFunction,Plated,PTH,ComponentDrill
T5C1.100
%
G90
G05
T1
X81.5Y-70.5
X81.5Y-75.5
X81.5Y-84.0
X81.5Y-90.5
X81.5Y-101.0
X89.0Y-101.0
X89.0Y-108.5
X89.972Y-61.389
X91.14Y-107.59
X91.3Y-105.75
X97.5Y-108.5
X100.0Y-61.5
X108.0Y-108.5
X110.0Y-61.5
X110.4Y-102.95
X115.925Y-89.475
X116.0Y-103.0
X116.0Y-108.5
X116.125Y-68.45
X116.5Y-61.5
X119.93Y-87.8
X120.0Y-71.5
X122.5Y-75.0
X122.5Y-85.0
X123.5Y-68.5
X123.5Y-95.0
X123.5Y-101.5
T2
X83.35Y-91.4
X87.9Y-93.62
X91.2Y-82.2
X91.78Y-78.11
X93.08Y-77.98
X93.52Y-92.44
X94.48Y-69.47
X94.83Y-92.14
X95.44Y-78.12
X95.76Y-69.49
X96.25Y-79.12
X96.42Y-80.7
X97.09Y-83.79
X98.625Y-88.125
X100.52Y-100.38
X102.82Y-78.5
X103.22Y-83.4
X104.23Y-92.91
X104.47Y-103.28
X105.09Y-90.92
X105.46Y-92.4
X106.17Y-91.42
X107.38Y-85.85
X107.76Y-77.89
X108.7Y-81.5
X109.86Y-81.21
X110.4Y-68.9
X110.5Y-84.4
X111.45Y-69.63
X111.93Y-87.76
X113.14Y-87.77
T4
X89.46Y-73.0
X92.0Y-65.0
X92.0Y-73.0
X94.54Y-65.0
X94.54Y-73.0
X97.08Y-65.0
X97.08Y-73.0
X99.62Y-65.0
X99.62Y-73.0
X105.22Y-73.0
X105.38Y-65.0
X107.76Y-73.0
X107.92Y-65.0
X110.46Y-65.0
X113.0Y-65.0
T5
X113.95Y-94.457
X113.95Y-98.957
X114.04Y-79.66
X114.04Y-84.16
X120.45Y-94.457
X120.45Y-98.957
X120.54Y-79.66
X120.54Y-84.16
T3
X99.2Y-108.21G85X99.2Y-107.51
G05
X105.8Y-108.21G85X105.8Y-107.51
G05
M30
