%TF.GenerationSoftware,KiCad,Pcbnew,9.0.4*%
%TF.CreationDate,2026-03-18T12:24:47+01:00*%
%TF.ProjectId,board-game-timer_hardware_v2,626f6172-642d-4676-916d-652d74696d65,rev?*%
%TF.SameCoordinates,Original*%
%TF.FileFunction,Copper,L4,Bot*%
%TF.FilePolarity,Positive*%
%FSLAX46Y46*%
G04 Gerber Fmt 4.6, Leading zero omitted, Abs format (unit mm)*
G04 Created by KiCad (PCBNEW 9.0.4) date 2026-03-18 12:24:47*
%MOMM*%
%LPD*%
G01*
G04 APERTURE LIST*
%TA.AperFunction,ComponentPad*%
%ADD10R,1.700000X1.700000*%
%TD*%
%TA.AperFunction,ComponentPad*%
%ADD11C,1.700000*%
%TD*%
%TA.AperFunction,ComponentPad*%
%ADD12C,2.000000*%
%TD*%
%TA.AperFunction,HeatsinkPad*%
%ADD13O,0.900000X1.600000*%
%TD*%
%TA.AperFunction,ViaPad*%
%ADD14C,0.685800*%
%TD*%
%TA.AperFunction,ViaPad*%
%ADD15C,0.600000*%
%TD*%
%TA.AperFunction,Conductor*%
%ADD16C,0.200000*%
%TD*%
G04 APERTURE END LIST*
D10*
%TO.P,J3,1,Pin_1*%
%TO.N,GND*%
X113000000Y-65000000D03*
D11*
%TO.P,J3,2,Pin_2*%
%TO.N,/TM1637_DIO*%
X110460000Y-65000000D03*
%TO.P,J3,3,Pin_3*%
%TO.N,/TM1637_CLK*%
X107920000Y-65000000D03*
%TO.P,J3,4,Pin_4*%
%TO.N,+3V3*%
X105380000Y-65000000D03*
%TD*%
D10*
%TO.P,J1,1,Pin_1*%
%TO.N,GND*%
X89460000Y-73000000D03*
D11*
%TO.P,J1,2,Pin_2*%
%TO.N,/ENCODER_SW*%
X92000000Y-73000000D03*
%TO.P,J1,3,Pin_3*%
%TO.N,/ENCODER_B*%
X94540000Y-73000000D03*
%TO.P,J1,4,Pin_4*%
%TO.N,/ENCODER_A*%
X97080000Y-73000000D03*
%TO.P,J1,5,Pin_5*%
%TO.N,+3V3*%
X99620000Y-73000000D03*
%TD*%
D12*
%TO.P,SW2,1,1*%
%TO.N,GND*%
X120540000Y-84160000D03*
X114040000Y-84160000D03*
%TO.P,SW2,2,2*%
%TO.N,RST*%
X120540000Y-79660000D03*
X114040000Y-79660000D03*
%TD*%
D10*
%TO.P,J4,1,Pin_1*%
%TO.N,GND*%
X107760000Y-73000000D03*
D11*
%TO.P,J4,2,Pin_2*%
%TO.N,/big_switch*%
X105220000Y-73000000D03*
%TD*%
D13*
%TO.P,J5,6,Shield*%
%TO.N,unconnected-(J5-Shield-Pad6)*%
X99200000Y-107860000D03*
%TO.N,unconnected-(J5-Shield-Pad6)_5*%
X105800000Y-107860000D03*
%TD*%
D10*
%TO.P,J2,1,Pin_1*%
%TO.N,GND*%
X92000000Y-65000000D03*
D11*
%TO.P,J2,2,Pin_2*%
%TO.N,/SW_CLK*%
X94540000Y-65000000D03*
%TO.P,J2,3,Pin_3*%
%TO.N,/SW_DIO*%
X97080000Y-65000000D03*
%TO.P,J2,4,Pin_4*%
%TO.N,+3V3*%
X99620000Y-65000000D03*
%TD*%
D12*
%TO.P,SW1,1,1*%
%TO.N,BOOT0*%
X113950000Y-94457500D03*
X120450000Y-94457500D03*
%TO.P,SW1,2,2*%
%TO.N,+3V3*%
X113950000Y-98957500D03*
X120450000Y-98957500D03*
%TD*%
D14*
%TO.N,GND*%
X96250000Y-79120000D03*
%TO.N,/ENCODER_A*%
X95440000Y-78120000D03*
%TO.N,GND*%
X91780000Y-78110000D03*
%TO.N,/ENCODER_B*%
X93080000Y-77980000D03*
%TO.N,GND*%
X94480000Y-69470000D03*
%TO.N,/SW_DIO*%
X95760000Y-69490000D03*
%TO.N,GND*%
X110500000Y-84400000D03*
D15*
X123500000Y-101500000D03*
D14*
X96420000Y-80700000D03*
D15*
X115925000Y-89475000D03*
X97500000Y-108500000D03*
D14*
X91200000Y-82200000D03*
D15*
X108000000Y-108500000D03*
X110000000Y-61500000D03*
X81500000Y-101000000D03*
D14*
X103220000Y-83400000D03*
D15*
X91300000Y-105750000D03*
X116000000Y-108500000D03*
D14*
X107760000Y-77890000D03*
X97090000Y-83790000D03*
X102820000Y-78500000D03*
D15*
X122500000Y-85000000D03*
D14*
X83350000Y-91400000D03*
X87900000Y-93620000D03*
D15*
X116500000Y-61500000D03*
X89000000Y-101000000D03*
X120000000Y-71500000D03*
D14*
X107380000Y-85850000D03*
X98625000Y-88125000D03*
X93520000Y-92440000D03*
D15*
X91140000Y-107590000D03*
X116000000Y-103000000D03*
X119930000Y-87800000D03*
D14*
X104230000Y-92910000D03*
D15*
X89972184Y-61388734D03*
X110400000Y-102950000D03*
X122500000Y-75000000D03*
D14*
X113140000Y-87770000D03*
D15*
X123500000Y-95000000D03*
D14*
X100520000Y-100380000D03*
D15*
X123500000Y-68500000D03*
D14*
X111450000Y-69630000D03*
X106170000Y-91420000D03*
D15*
X100000000Y-61500000D03*
X116125000Y-68450000D03*
X81500000Y-84000000D03*
X81500000Y-75500000D03*
D14*
X109860000Y-81210000D03*
D15*
X81500000Y-90500000D03*
X81500000Y-70500000D03*
D14*
X104470000Y-103280000D03*
D15*
X89000000Y-108500000D03*
D14*
%TO.N,/SW_DIO*%
X94830000Y-92140000D03*
%TO.N,/TM1637_CLK*%
X108700000Y-81500000D03*
%TO.N,/TM1637_DIO*%
X110400000Y-68900000D03*
%TO.N,RST*%
X105090000Y-90920000D03*
X111930000Y-87760000D03*
%TO.N,BOOT0*%
X105460000Y-92400000D03*
%TD*%
D16*
%TO.N,RST*%
X109565100Y-90124900D02*
X111930000Y-87760000D01*
X105090000Y-90800000D02*
X105765100Y-90124900D01*
X105765100Y-90124900D02*
X109565100Y-90124900D01*
X105090000Y-90920000D02*
X105090000Y-90800000D01*
%TO.N,BOOT0*%
X105460000Y-92400000D02*
X111892500Y-92400000D01*
X111892500Y-92400000D02*
X113950000Y-94457500D01*
%TO.N,/SW_DIO*%
X95760000Y-76090000D02*
X95760000Y-69490000D01*
X94320000Y-77530000D02*
X95760000Y-76090000D01*
X94830000Y-92140000D02*
X94320000Y-91630000D01*
X94320000Y-91630000D02*
X94320000Y-77530000D01*
%TO.N,/ENCODER_A*%
X95440000Y-78120000D02*
X97080000Y-76480000D01*
X97080000Y-76480000D02*
X97080000Y-73000000D01*
%TO.N,/ENCODER_B*%
X93080000Y-74460000D02*
X94540000Y-73000000D01*
X93080000Y-77980000D02*
X93080000Y-74460000D01*
%TO.N,/TM1637_CLK*%
X109500000Y-66580000D02*
X109500000Y-79400000D01*
X107920000Y-65000000D02*
X109500000Y-66580000D01*
X109500000Y-79400000D02*
X108700000Y-80200000D01*
X108700000Y-80200000D02*
X108700000Y-81500000D01*
%TO.N,/TM1637_DIO*%
X110460000Y-68840000D02*
X110460000Y-65000000D01*
X110400000Y-68900000D02*
X110460000Y-68840000D01*
%TD*%
M02*
